<mxfile host="Electron" modified="2024-03-11T14:54:22.984Z" agent="Mozilla/5.0 (Windows NT 10.0; Win64; x64) AppleWebKit/537.36 (KHTML, like Gecko) draw.io/23.1.5 Chrome/120.0.6099.109 Electron/28.1.0 Safari/537.36" etag="iH5yKsnCtOhWMEuVCE_c" version="23.1.5" type="device">
  <diagram name="V2" id="xazSntdLqJKF5WuCdxwc">
    <mxGraphModel dx="857" dy="426" grid="1" gridSize="10" guides="1" tooltips="1" connect="1" arrows="1" fold="1" page="1" pageScale="1" pageWidth="850" pageHeight="1100" math="0" shadow="0">
      <root>
        <mxCell id="hVDaip0IasZPoEA9I7b5-0" />
        <mxCell id="hVDaip0IasZPoEA9I7b5-1" parent="hVDaip0IasZPoEA9I7b5-0" />
        <mxCell id="hVDaip0IasZPoEA9I7b5-2" value="" style="shape=image;verticalLabelPosition=bottom;labelBackgroundColor=default;verticalAlign=top;aspect=fixed;imageAspect=0;image=data:image/png,iVBORw0KGgoAAAANSUhEUgAAAT0AAAIkCAYAAABsqvxTAAAACXBIWXMAAA7BAAAOwQG4kWvtAADTpklEQVR4Xu39B5Rdx3nni1YHdM4NNHIGCIAIBAkQAAmCBEkwiZRE0ZYlW7q2rPGSw9ijefbMXc+z3rx1w7ued2fejDzLHo9njbKtRMsScw4AExIJgACInHMD6JwT+n2/Qldjn9Mn7H12ne7Tp6u4zmrwnL1rV3276l9f/pRyzVHAUcBRwFHAUcBRwFHAUcBRwFHAUcBRwFHAUcBRwFHAUcBRwFHAUcBRwFHAUcBRwFHAUcBRwFHAUcBRwFHAUcBRwFHAUcBRwFHAUcBRwFHAUcBRwFHAUcBRwFHAUcBRwFHAUcBRwFHAUSAuBXImOm3eeustaOD9GJKEpc2gh7ax/j24ZcsW7/cT/VW4+UdRYGht8q1Zi2adRn8X6/+93yWjLeuwT9bjQLILs+H3sBt73NHgb/7mb5YdOHDg/zUwMLBCBl86NAFeNi/+RtSEYtGH6wxY8dd7jfd7v//2XpeInt5nmWdG3xvr/6PHa55hvmfuzNv85d+xPtH9mP+P13/0XLwbN3eIbvyN9W/vIWSuidVf9GEVDQ7Rv5t3bOZn/t/71zsf7wEYvRa8z4oFTPxuxm7maL6LNe5E/Zn+zTX05/3Ob7/mudHj6pfO6qdOnfp3f/VXf/XDcbepAw44P+D14/7ys2fPbvr0009/p7+f9+yao4CjwBAF5sydO/dfPfvssz//rd/6re5spsqEAz15mdVBX2hOztgzxIODThIO+t7c9YEpMFPuqJSPA73ApMvsGwIhWEFBgSopKVH5+WNzPgB2PT09qr29PS1UBdCZ26RJk9LSf5BOmSuf7u707TnmWVpqtBpBRhfuWu/BORYHGDRlHSV59tgs8nCkDXz3hJhkFFUCybWFhYWqurpaFRUVBSaujRtYpK2trWkDvdzcXA0CFRUVNoYbqg/m2tvbmzbQA3h4n3V1daHGGfRmnmtAzwB70D7CXt/Y2Kj6+vqU6LKTdRWt1052/bj7fSKCXt+4e0tpHDCbEW52LLif6GkBCHl5eWmcrVidZL7pfkaiCYyVqoTDzWfLej2Kb0r4JNh4uCwQpzceJuTG6ChgiQKofhzoWSJmJnXjQC+T3oYbi6PAKFNgInJ6WX+SjfIaco/LHgoEMvKN12lPRJ2elXeF/glfvxs37Ol9saKOpb4plo4tXZZGr3LfygsJ2Yl5nyG7GXE77zOWPg2Dgs21Yx4c73m25zWe+3Ogl+LbwxLW0NCgurq6Uuwh8jZAoKamRlVW4iY19g0QYI6dnZ3WB2OMJ8XFxdb7TrVDQOj69etWgQgAwiqOy1N06+jo0BZ5m4cK4FpeXq7KyspSJYM3zC3VPjL+vokIelZYeE5pQAHfJxuNBevDncDGo3z1wWYE0C9fvuzr+iAXMVfAPZNAj/eJa5BN7gvOPd4cWTdtbW1WnwfIhnStsrI3gqyFsbh2Iur0JuKcx2JtuWeOTwpkPfBNRACYiHMen9vPjXq0KTAhxNuJCABZf5KN9k5xz8sqCmT9/piIoDcR55xVu9JNJm0UyHrAg3ITEQAmxItN27ZwHWc7BbJ+fzjQy/Yl7ObnKOCfAk6n559W4+rKrD/JxtXbcIN1FBhlCkxETm8iznmUl5V73DimQNYzBRMRALL+pY7jDeeGPvYUyPr9MRFBb+yXlRuBo0DmUsCBXua+GzcyRwFHgTRQwIFeGojqunQUcBRwFBgzCjjxdsxI7x7sKJCRFHCcXka+FjcoRwFHAUeBFCngOL0UCeducxTIUgo4Ti9LX6yblqOAo8AEpcBE5PSy/iSboGvZTdtRwBcFHOj5IpO7yFFgwlAg65kCB3oTZi27iToKJKWASziQlETj84KsP8nG52txo84QCmT9/piInF6GrC03DEeBjKOA4/Qy7pW4ATkKOAo4CoSkwETk9AZD0szd7ijgKDCOKTAR696OO9CjODa1YtPR6Jf+M6UxFuq3pqOlk47pGK/rMz0UmIigdyM9pExfrxSNDlG1PuHAAJiCgoL0DT5AzwbwqqqqAtzl/1L6nzRpkv8b3JVZSYGJCHrjitNjo5aUlOjPRGiAUl1d3USYqpvjGFEgPTLTGE3G52PHHafnc17uMkcBRwEfFHCg54NI7hJHgQlCgXElBaX6TiYi6E2IF5vqgnD3OQpkOwUc6GX7G3bzcxRwFIiggDNkuAUxJhQYHBxUAwMDY/LsWA+9ccOpejPmZaR5IBMR9NJM0tS6BwQaGhpUU1NTah1YvovxpAsI6LelpUW1tbVZHnXq3aVzvqmPyt2ZDgo40EsHVVPok03X39+fwp3j85ZM4/TGJxXdqFOhwETU6aVCJ3ePo8BEoEDmhOakkdoO9NJIXNe1o4CjQOZRwIFe5r0TNyJHgbGigOP0xory7rmOAo4CjgLpooDj9NJFWdevo8D4pEDWO+870BufC9ON2lEgXRRwoJcuyrp+HQUcBTKSAg70MvK1hBvUhFDWhiORu3uCUgDAy/rQFCfeTtDV7abtKBCDAoCe4/Tc0nAUcBSYMBRwoJelrzrrT7IsfW9uWumngBNv009j9wRHAUeBDKIA+jyn08ugF+KG4ijgKJBeCjhOL730db07CjgKZBgFnE4vw16IreE4lxVblHT9ZBsFJoS+eyK6rASaM3nf+MRq8b7Ptp3g5uMokE0UCAQAWTLxQHPu6+tTvb29EcAH2Jnvs4QmbhpZRoEccbfLyw2cjn9CiLcTMXNyINAD8Nrb2xVFqAsKCvTW6OnpUa2trRMq03GWYcIoTmdQ5ef2qaJJXSo3Z0AN3MhX3X3pK9wO2BXmd6mSgnZVlN+tuuRZHb1lMl9fkiuqH18XjiIBrT/KgV4SksLVUcsB8CsuLtZXd3d3649rjgKJKACCAHjTKs6rBbVHVXF+h2rvrVDHry1XV3PyrBOP5xVM6lELa8+o+fI8QLZ3oECet1Lqr1T5ed6E0HdPRNAL/GIBPgd0fvaMu8ZLgdzcG6q2tFmtnL5Hgx+tRriv1bNa1IUra1RDjl2mKi9vQE2vvK4WTj48zLAV5PWqpXWfqjOX71RXc6lA595RIFEvS8hl/4jNEsK4adilQEF+n5pdWz8MeKb3wrweNav2unxv1w84X3R4M2uuj5BQ83L71bTKJjUpuY4PhiDrMSHrJxhjGU/EOdvdza43XxTIEU6uYFJsNUhxQY/id9stR8Vm5RB1fTS7KOzjgWNxyUQEgMDi7Vi8GPfM8U+B/oEc1dhy0/gV3a42TRKjht2lyPMuXisaYYkYHMxR568Vqj75PUmjBqkvdEzWUSb/7kAvk9+OG9u4pkBXT57af7pcdfZEWmsb2ivUkXOlqq8/KQgFmn9PX646cLpCXWmqjrjv6KXp6mx9kZ/n9U4E0JuIhoyJCPSBNo+72A4F8GlvbCtUv3hvvlq7pElVl/ao+uYitetorerqTc/W6+iZpH75/hy1aGa1qi3vVZcaitTZq+WqVwDRR8PakvUibnoo74O6Y3jJTb8T1xwFRoECN0SEvd5aqN7ZO1Xr8Pj/voFccXZPz8PpF0A9fK5KXFbEWivPCyBGl8uoiuTTlp7RZUavdvnrJHP62U9/uvjEiRPzT588ubKxqWmmtIYhIkNolB/mOGJcWFkBZf7y4TczXu+4OZm8nuT8Zn7ne/QUfLiu8sSpU19taGiIG1qWGa/FjcJRYPQpUF5ermbOmHG8qrLyI3l6i3wQd9lDxqpr9hZ70XzYo3zM/vTuR5O1he/QFZqPSWE1IP6veeLoX1BcUnJu2bJlHy1evPjsM7/xG5fTOfu0g95bb75Z/ctf/vJ/3bljx+OtLS1zS0tLq2/IcTQgDkO1tbXpnFvMvnslrGzgRmIOPicnR0dg5OU575ZRf0HugWmhAFFEN5Ks+7lz56rJkyer+itXVMN1XF/S3/r7+3XEE3/Zb709PZdqamsP3Xffff/zP3/nO8+mYwRpBb3/43//33//xRde+N96urvnVFRV6YkB/bkCKrS8/NGXromsAHDjtbKyMrV582Z1++23D4edpYPwrk9HgdGkAMDywgsvqHPnzsUNn5wzZ46aMmWKunr1qro+SqCHnA8TMsgHgsj/5+Xm6mCAwsLCN7/49NP/+v/5l395yCat0oI6H7z/fsHPf/az//bLf/qnPxC2VZVWVKh8OCcBuUzPTDJ79my1dOlStWDBAtHBpPVMsPkeXV+OAgkpwEG/YsUKde3aNR1WGauZjEKs+1wBntFquR6Jyuy5HHm+cH2P/OwnP3nzX3/72//2r//rf/2prfGkZWa/+tWvvrNt69Y/gGsqknhVAvVhraMBjwnCUj/wwANqy5Yt6s477xyOb7U1waD9lAhIFxUVOcALSjh3fUZTANGxQpiPRCobk0hjLOPKDfDCJJUIfhQUFc145623/u4v/vzPP2+LwNY5vf/wV3/1B//8y1/+SakoRWXAcfUIAOGmTZvUypUr9akCKKJHA3D27t07pgH9jsOztbxcP5lEgWTruqWlRWcQSqb7Czun6upqNX36dL3vL1++LMkQsGdGNsCP8YoNgL+VL7344nf+x9///ZE//KM/Oh72+VZBT8TZeT/64Q//b3R35XKqxDMYcNqI5VatX79eNTc3qw8//FDrGQA82O9EOrewE3b3Owo4CsSmADkiAZp0GfBER6dWr16txWwsxQAbKdpgcvbt2xcT+GRACunrxsDAwh9873v/t1z0TNj3ZxX0duzY8WdnzpypEetLQgspkwfwQPrXXntNnT59elj0hehh9X70P3/+fLVo0aLo80MNNP9cTa26on2YTMOo9fzWyerC1cKw9Ax9P4DPB9qw+JKdzqEf6DqYkBR4alODmju9W9bZrem3d5WqTnWPeOqtiqAJwHT06FFVX18filbikqLWrVunurq6NMjxF0YnkThtsADJ8czJk4/9l//8nzf8+V/8xY4wA7EGeq+8/HL597773d9mMCgmE3Fr+WLQgNODiKdOndLgBBvLJr9w4YJmd8Nwe4jO6Ao3btw4AvTUlR+rlfOui4XoltsKoPfR/soxBz3ECjhdrGc06AGAcyryIZ+fA8Ewy93dayiwcXWLumdlawToXWnsV/UD09RgaeS+uSIuLFhzw4Ae+v3ly5frjOPCHKljx47pHJXs1WRrWjvhyt6YPmNGiajO/lj+NzNA78Tx48sErKZXVFb6Aiw4GaxITBhLaV1dnf5s375ds7xhQM8LGJHLXOpdTLqhigsHVH6eF/SEpZdcY+lugBrzNdws8+S04xAA0FgA6DWhTVNTk/ZfAvg4EAA9/Br5cDq65igQhgKFBTdUSdENWWu31n1hwYAq7JdoETlovY11GVbkxf+vUrDh+PHjmrFhr/P/gCCAii4xUWNPlMke+HjXrnVh5s291jg9UUiuRj9XK5PrE/1csgbbCvrz9+zZs5q7w1WkSvz5whI42bPH4ncA7+LFi9qCBsA1NjaqS5cuqY6ODg166C0MuMEF19TU6MUAXQBAlMz8BSj5nX5ccxQYLxQA4FjnrGH2AtLdkiVLNOh9+umnej8karoujeCK3Dvlxz/6Ud3v/t7v3RSHUmjWQE825WK4lmSsKmNk0gDk1KlT1cKFCzWry6SeeuqpFKYwPm5BZEVMgEuDTugxzQJgBoAbiwKODusWoIezKOCGhQt6wRlzL6fivHnz9AERtEFnozeMda/x0WIs3oahKRH3bThU7mEhc2083SzPoH/vM7iWZ/CJ1zgMeU6sNZbqvBhnomcyxuhDmPXLffGsnHAl3Gc4eujBtXxv6qyYOfK9dtqPE4zLs7NBtwsNmD/rn7myHzi8Z82apde7nwbNZX/UCl4sluvHHvTaOzqma188H6Nn06LIfPTRR/UH6w2EQH8V1ojh4/GjfklnZ6dm6Xm5gBicLaJr9KZh8RuuDhDErM89cIHcz0LhGkCQe+GM+c1vg+5wjImKGrHBOJURP2g8D47ThArFexYLGM6djc4cOLnjgSTXsPmhBfMDyLiW5yQ68Q1HjIjv1W+iGzLzYnPFamw4njdt2jT9M8+DxskKPPEOOIi439RL4QBC+R4P9Bgb9GC80I93B+1Z36hyaPRl3nV0tT3v+Bkz8+Xe8dzQByLVcFhz4B8+fFi/w6ChqNgLTp48uVpo8WGq9LDG6fX39ZVohaOP9BEszP379+vNJQHG2l+PBUSIDCJgvIWb6iTH+j7EWMCEDcRmZ95sCjYOm4K/cHDmxIcWbGK+QxfCachmoQ+4RejDImLRICL48Z43RhIWHBs93ntifESlAHoGiI4cOaJBL1FjTkM+VXoz8y7ZzPEaY+Ye5gVdGB8gJNb/hM8xRioMVYZr4D4MYoBRvHkBQDNmzNCgx7MAVyyS0DlRY058GC+HF/PifSaaG0DOcwzonT9/XtOPQ8GAHlw7+i3GnsgvjncP6I530OPdQAdcVu655x4liUf0OgsSCKALH8n67OvtrQyzp62BnoSYURzW91hYNO+88446dOiQXghsMDYkp31YI4bvQYzChQAaFllOOF4wC5xFrH2PhsQkwA0g4sNmgCtg80IjQI7/xwWHPvgeTg8asYgADD9iLuOgL57BZmQs0SIs5IDrMlXfeD6bnA1rOKV46otosY2+uJa+ojcs4M6cARyj1Pa+Cu6Dw4kGczgFAJ95G+6HMXIAsKk4FJgXc4huzBXwopk+eL6feZk5szZ5l9xv5hWLHow9mZqHwx3gNbrtWGNmrMarYRSWalofwXo9ePDgMLfLnmfurC0OSV9taF3Igezzhti9WgM96d4/4g2NxWxgNnG2NjYJCxpgArx4wXzYrHxvOAk4P7gDs7EAP6MLMqIiyl8WC/3QL+DBQcHpmWyTwaUYMGUsPM+AQDTgGABjoQIMxjMerjKefgkuJhqkABpA2YiUPId3DngBXMzLVJnzbnqeh67XywUYSQCAM/fwHeDJ/9MvYANnZMTs6DXlnRcgaUA50bw4nMy82KA8i7EyJz6xuGxoFOtA8Y7H6HMZEwcaB2Gsd8jv453LM/PmgOPQRb2DJMH6hWvmYA3YAmONt3+boJcwOh9nYMzk2l0kfzDCOdg7IPL5k+u/W1Jtd/USnja+g/4BJ7gSXjAbnRcfLRqxiTBcYNjhg3gEJ4AOzwAViwURDgdPwA/gAMgAAa5J5sbC840YxQZj0cXiziLfhVjMhrz0uYcMHEEagACwRiuq2cSADqBnFPnRoGfEZe/zmDPioDGqGOOHd16M0XCq8cZq7jOclN95GeMFQMicguqjvOMxKhzGigoj1gEUhNaZei2uYMVFA6pI9j7/zskRg955PrdGXCFpfcsKJbmquMt0y54nzX6SFipngE3QizkQJlpe2q+mT+5Ws6d2qllTulRZyYBwDLHBGkfhju58dfm6pLm+XKL/trRP0kA43prhlBBLES0Bsli6IKOjg8tjA2K1RWcFOACSRmkO1wXwYcCAO0AZzDMADziqZNxeNKCNN3oaH8fxNu5E4w3yzsbTvPNlf9dW9qhpk0U1M6NT1VX3CMPTH+EMHXEISL0Q9jn7/fSlEnWtuVC1yv/HaRkDeiNGyMRnCMhtvuu6evzeejVT/h2kXWsqVG/tqlNv7Z6izl0p8ZvnX3MPcEaATHS7cVW4j/ySyIgMwd/O7lB0jDktAI6xwFEBegbwjEsDN3ndR/g318HBAXqIoIhKAJ1xA4HTQR2AGMdfIy4jaqVzA6U7CD3IurB5rR/DW/TzUrnH5pht9HVJQi6PnSsWietWb1dbClXjjQ6lWiP3DYdxkMwrk/LFD292h/rCpsvq3lUNqrKMmF5/o+4X8GOvv7J9qtr6yRR1XcAvhqkgLhr6eYpNTi+CJ8XTG87uNx++qD63sT6uOJtokFPkdPjqo+fVzLou9bPXZ6uj58oEJJJTDzHogw8+0J/o1t1dKn0s8UOb0NcAcnBr/AW0huMIReQznJnxv0NENQYcABtdHQ0xFL0VHB/AQ1/8GzEYbs+4TwQZrLEYRwOZCTY3oqbhrIzuDLpG67AMgPM3naDL/KBfIsAx84pFCw4PI857OUY2c6x5GV9Crw7T3GcMMbwXb/P6OPqxqHMvtGUM8XSD8fwSg7zvWNf+//5h9oivb/oR7pOD9kDK3QNuS+a2q29/9YRaOLMjrkQX7wGovhbM6lC/9+Q5NWdql/reC/NUc9sIjMtM0Ksu71Ob11xTTwiH5w3uD0pNiLhptfhvtUwS9neW1PUcP3V9ALpYi5aNhLIdgwIcHUYL44dnfLZQmqPwZaMi7vL/xoeNTYLy97bbbtPKey+g+qEv3CR9RYMUz4JjBExpRtHPsxGtd+7cGeGoy+/ot3AFQS8VrSM0DsPRLkiGazXPiAWW0CHaGAAHbIA61j3oQDkEogEEejM+1ALeeXHQQPvoeXENhxXz4tDh38a3kDFBf1wueAfmWQYkjZHIjwWX5/B83LdigR4HI24dyXSUft75aF1TWdqn/uiZU2pBCoDnHWN5Sb+6/06xljcVqH98bU60bj8Usxbq5ihCDnN6Bu0fWktgfyhDy9AiVep+EZEPnqpUlxuKhQCj9QrDPYfNBveGkYGNA2cAELAx9+zZo79jM7KwsSCyUfBTg/MwGwLjB78BfNxnFP8YMDBoIOYaC6vf0RrOM/p6w5Wa742VEvGa5wI60Q2ulLGsWrVKc69eoGLuWOe4xjTmD2gwF5pxM/H2y32EJnmBgPt4Pr+ZRAzRkRKAaazoCnPImGcwRsCdccWbF2CEKgHDETQG0DE2cVjw4Vmx/En5DZXDHXfcoQ+2ZC3e87kPOo039y3UWOjwUG2FbZXCOD264ap6c+dU2fcR8eZJLR2Jnp0W0Cst6peJd6g500ZuklQJUVPRpxbNalf7jlZqJed4aAZE4ALQzxn3CjN2OA30juhM4K64ho0OF+EFSHR3/Ia1EGswDeCCswEw4Uj8ilPcy7gA4uh7TBJXMz7jTmGiCmLp9XQUzpDvIFwOVl7T2LBG5xjrfTEO5sRzog08iZyhvdEf3n7jzYt5eiNXmCccNqAFtxYLWLzzAuwYIweUuZaDJpoeRvwGnHmvHFbJmkkoESvenDGPpzh0mB3093ho2GgosirECHqfSHr/9PYsb5fJdVwJBpAW0Kut7FWzRA9nu80SGX9yde+4Aj0jysGpmXC06A0O+AF0bCi4CiM+GQdlY52FkzKgx4ZDTAX0gm4MQNL4wSV7RwAJSR8plGTcZ8w9zINwQuM+kyiG1fscA0LMFct2rGZCvwzAG188XEW4J5aLB5ZvInz8uH8AfHBxiLzRujnmAadpsuAYoOPwgkNEn8o1Xk6P9wHHS5QH10f3GY/OcIN33XWXrzEne1dj/XtNRY94aXQF1uMlGjdubkvn3YoGGjqMQlkdbYLe8EBA+vKS2DGQYV5Mhcj5JT5OETYVepBYi3+g56IU6IQDvcV+Yx2qbyjQPkI2G2CEyApXAGfFBkNHBHCZeFazoYwfHyDD5uUek1ePDQTwmThV47Rswq7SbUCAJoamXvoYGgPmsQwMcEfoHQHmWC2e8QO6AQRwOsyNhY5+U2IutVgMF0XfyXwT/bxLo5f0XmuiJADzWPPiHkDT61tonKMNd5/p1u46YR6KJbWU16o6mCO6yzxJz54XmcGHtQktkqV/mlLVG9clxc+7iHVNvuS9rJV+TYPOYde7TdC7hSLectupzjbGfVSI55OssVmI76OUY0QTgt248keSRPSEys+9xYLfEIfof/OdhWrv0eQ6mGTPjv4dkQgRz4RN8RfwQh/H93B4/DW6LsDQ5M4DHA23Bwgax2UDhgAmuqexSjNlrJnxFqGxZgblRA3ImvsAR8RR5m1SckELG6AX632m4g9oaBB2QwZdX6le/+3fuajWr2iN0LlfbqxSVwdkz5R9KaJbJIq3335bh4wmajcBNPn+DDRm6TMGKxJKvLXJ2gyjSE9vnurssomnN8nUIX368NbWJ4GJIYUbGf6UFEviRHGWFo6xvFS4UfNJ4Cwd6AXFuJjNiULciIaMDaBiIcGtAH7eiAVEKvRZcKlGDwW4GSW+V2cGIGZbcoZ49Mb4YHKymQQNmc5NhV076byfKIkK7x6Qf5cWk1j0ZkJb74fDxc/B1SSuJbYjqHBRa2q7hSVDh0oo3Ap1s/elCL4Ppz5tahXP6khri5X3h7d2Y2uBlb5GqxMThoW+x6RAQu9D5hL+8hJRlBtRyfiN8f9e5TvAZ9JrG06I+/wkG4ieq03nWqPwHw16AvhsPhO/myjTSdjxeOcVhF5Brg07xky7HwNjg+xPm8DX0yeGvQu3JDANesSqhmjW2DEZxbDg3dqZL6Ekpaq+sVBNrUmcBtrv2NukTyZ/vXl8gR4vCdHss88+0wCFfs4E/yOywqkBjOiCjK7OcG9evzfjqmJqCpi0Un5OYGgMiJprERHRkcVLOGBiS014XLx3xO9wrYzNm0TU7zsNep0344hJyAAHaKzQ6Puwxnq5YfMM43PIQYGOClE5HqfI78Y6650XagjjThQ9dvri+XD0XkfooHMcz9fDlW0/UKum13YLx2jHgtsu+377/pphsmjQy8kJ1bk10JNRDVsuQPpjEj3x0f5a9fQDl33p4ZK97F0Ha9ThM+U6KHm8NSx0WEzZkBgpAC6ADxAEYPi3132EDcTHqx+Cg+AaDCFUlGKzB9HlARgAJX0gPrM5Y7m5sMmN7hBOipxv8cCBMRnlNnNJlsAg7HuDjsYPkDkwPmhgMqFAR/waYx0E3AftAT3AGqNIPE7R6FH5i+rBZDmBW8fvMB43Z5I6IA76zQYcliaZdv9rH01VG1Y0aF+9sD66MDrbD9SosxKWFtUyBvQiBkLc7DsSM1tX063uXYn3f+qvZ//xSvXGzjp1oX78RGN4Zwu44G7CpoTLMklBTV0MvvNuQDYt93j9x/h/AMn4tpnQNFxh/DTu47k8h+fFs8R5XTFM+Fki3RnjAiTxnUt3CiTjRwiXBy2ZC7Ti2fwbI1A8IAP0zG9mXonEYw4ck8DVGEy43vhPxqK5sQRDZ+6diO3StSL1k1fnqG9+4YzE2hNel5phA939vqNV6rltM2MxOqHCE2xyehHvuE8Ch4+dL1M/f2O2ahI5f9Pqm4HHQRqGix3C4b0uwccHT5Ur5Pvx2kw4GZwCYhKcnxHXADfDPbA5AQ8v6PFvvuNjxCgiN1Ds+21sSLgP3GYAjHh1GbyOvGz2lStXJox3ZV7G6GI4R0DQZFH2O0YDXiZ8KxaAMgfyCeIrZ1xE+A4uE0dgwCZeSJ7XNYW+8TtMBOZGp+oVqek/kQ7VRIoYdQXvBvpAc+jtjVbBR5DvzEHm9z1m+nUDIuXtlD1L1NST99WrlYtaAjkr3xCMJMnAtj2T1Rs7pkpZ1piV/1JD0iHi2QS9EbwcOfGOiEgK6H1yuFpHaUyt7dG+dvFOAHSUZDxh4ugFT1wo1fG2PZZ96MZi8bAZTL1foizgWBBXAQk2hMnkCzhxLVEaiGRmg7Oh8VHDwguYeJNz+pmPsYCa6vLxfNCMWG1SrCdSzsdKKgpwGb2a30gR+mFOJplmPF0ltAF4jLjPWLmW+xB/4xlWvG4oXA/nHXRePDeeSsH0HyvuN1a+PvNeU3GP8fOux/Kaju48zaxcaSzSMbjzpndKmilJviElJr1ZXbxjJHVcuzA59Q2FWnfP3r98nQwrMUXEEHKjxRKQ8YjcK9zZeRFLsbx+KmIq7iIFUns2nr8dk4RLhABkVxiPOrxECw6Rlg2Hfs1kkYUb4P8BMbgQroEDAAT4a1JqI1qZpABhisX4BSIDKEE3kN/+o/vlvmT3Jvrd73j9XpfK+GLRKtaYsxHsvHPvFrc1GB7Aq0okvNJi4XQlHjfevscOgCTX1iGHf0dS15eMib0d8b45UTkd4WTQI6EIbmgp0Aub741TrrmRjQ93YVL9YPXkWriieN7xQTdkJlyP2AiHBzcHt2f8zkxkQzQHAg2gC0p4k1E4GThkwjzdGBwFkNDw4pCIb5vEyJjUUiMmhQ7kgQce0FwMGxvL2ieffKJFEEo/fvjhh/o70zZs2KA5Hb4nosKAHq4ApN8hx5yfZIb0D0iaONVbA5OTpnmScJ4E29/ShQ7KP7t7RldfCGgZkQwFOYBnqqMZA4YBO8P9BakcZXOFub6yjwLXGgvEKoru+NbcrksS0YaBHnWj+2ZSC9MSGb6CUgb1BPHRSDvoNLGik8UnoM9lKLVcqJujJjxCzjZ+XlgKsWYBaoARxb1RSCPeGdCDK7zzzju1/xSbHRCAGDTS9LDxTd65ZIQ2rhYjM3VIoev2QvV+EVmGI2NvL10fG/8/xBxjpEg2L/e7o4AtCryxo1qHXXq9Knr6ilVf7jmVU/BGxGNQq5jQxzDPZ49jGCMNGfsb6QUpkD1A6YMALRSHYhP0RgwESyUfGq4VBJ8DfpSCQ2Q1NUD5HaU9uqwDBw5otwBv1mOUvnz8FrYGbL3P9hKzuztHXEH8VVQP8BLcpY4C44oCnxy+lQLMDBxmo6DgqhiGGtIyF7g7MAAJjP2NUY+a13yXyG8yxmBCGTJCIWbUYEb0ZZCcjBnLly/XLCyTA5QIXjbB9/RDGUN+h/PjLwCHqf/uu+/W12G19F0fMy2vzHXqKOAoEIYCpATDMEf4Jaoc9Pr8P4yQ34p0YZ4/DO42OhnqYwToMSGD5oAX/28KNjNxGrnaOGHQ/3mrheF+gLhLphR82hCRA8r9FqfmunIUcBQISwEYGfR4GORQdQGCMEDoqgOW0wzlp2eT0xvBcjJBvOQRZwmwh/MD/Ez4EtlH4ABx1cAqiVxvgA2ZH66QZI5kJCEbCeDnmqOAo8D4pIBJ24+Onr3MfgcXUkhaEQr0bOr0RrwJk46bmFMUliA8rho0LJQYKtavX6+BMDoeEiPErl279LXo+NauXeu7QAqcI6dHrIIqfd2XJD8XuREi6XZdrLqxHKB5IfHqFJh8cdFxsyZxAN/zoqMdeE3RaOZm+ojlt8XhwLUmeuKmzqUgZhJFb30IDhc+qeR245mmmDbjY+yx+jLXmJoVfhMO0L+JhIh2QDaRKdEFgUwssqGjuc649hj/vkTzNfMytDRJARLdY2jPXxMGGD1mMx+T3DKWU7V532Y9+IUs7jMRJvHeqUlEYdYo13mTm8Z7Vm2lcFiF0dFcsrYmSXx2XqS+z6Q2CytpQXucu2GEPvroI10PZuPGjXo9xEvkEGf8GROGFoEiBtVNWBEyOy/DWGshAG4oKDIJIaIamCGqCdg2gMG9JiW5nwVjajuY6lfee3Ja/0HVVYqFOMfjsiIO0T9/ndq6I0NesBjHqodAn8wHEzxsO4se7tTkw2N+3rAk3FMMYOECYHzy2HQsVOZMPyYEjcUO8NOfKfbN89CDGKdlxsCCoT/GaXL20ZepVxENIPHoZ4Ls6Yfn8kzG5g0zM4VuoIdJpW7Cq3jPPNNUDov3HJPBhI3EezUHhqmnAV1QeHs3Lu+eZ3JgMh7+zRi94Mn30M/4enqfb7LBmJhd8+6gI+OODnkzqasMLbgfOuJXaRIcGHBj3NCCa/kdMc0LpPyO4p53w71+ExFw0OOqxTzpw+wJ3oF5NuNCz22SLzAvc12yamyb1zZLicYuleOR9dq7K1SHWqVuFNwZ8fqgN1xZrDrSfvajuQY/XeOxgZSHcRP1F+t3pHtZwp4zM+GASY+OXo7GouTl7N69W/+/qSmA6MpCwbBhaiywuO+77z69iFj83IuYi8XXTzOFXzhFIpvUTb3092r1gmviHX4L9PAGf2d3VUzQ4+XAkbLQok9QNpjhKNmYXMcLZLxsEhO8zyYC2NnkfA/w0y/XsemhBX/5nUUAQNIfJyGLxFxnat6aKmjMjYWP+sDLkUFTNjLPZJMlc2Q2WZuhr8kiYjKmmBofjAmDFI1sz4zPPJNrOLTwq0Q3myjxgEnrxEZiA5v0VvQB/djEgJc3YJ9xMSeTyYV/8515vuEEGSMbifVk5ky/bChSaUE/76HCmBGz0C15M8QAYKhWoD3vnHcG8PBMwIRnGLrSP9/zroyHgfEyMAchgMEhwnP8gJ6hJyBhDn5cRlgzeDkgMdHYT0Y3bg435gg4JavGtnF1i7rvjtaIcNCL1/tVfX+dGiyP3DfMj7GEBT1oiscG1lreJfsHulNnBZoHaP0Brh1xqU3xNgJ9TSYLWFleIi8N4PKWEWQh4YjMYoHrM3nk2BimiDWLhUXDAh2rLMEsYsAIEd3bDJfGuNiIfAAaakIYMGPjACTRYhQv3RS4MVXRWFwm4J/FDl1Y5CYeFaDgcMBJm/EYkRidqKkQxvhYoFwHzQGVZGnVoTf3oIZgQ5lnGjA0KZXM3M3YTSZjuBJcjRi/NxVTrIXJIgfs2MAmQzTXMQYWPpsX4POCHvOGBl6ulQ3DBmIsZn2xRqC1SYDA+FlH0It7MZoZwGDMfM+HMQHY0JNxkE6LsfB+AEV+53sDbhxagKE3DtccctDc2xeHYHSygWQbljGzbwBv3gVAzTtgrIwBuptDmPduonvYczyfvcS7JKlBKiqOZONL9XcOSpge9jR7hPdGsAKHdsCWMaAXMW4WFcTnEwkUoicaTjczoPbtvcn50fKHIuquXL6oXhny7wtIjLRcbnRp8cCD05WFyuKECzALzYTbsUgNN2cGaPoEUE0+OJM1mb9s8uhkmDyf77wFgUwWD+/EAUE2CO/AcM+JCMMGZ1MBRpzCZp7MA3BhExtdLP1QSc3buJ57zbgSPYvNaspP8lwOEmhjarwydlMTl35MHRDo6tWXed+JqSvMgcrGYt7QlMMEcKUP5uW1EPI7B5Th6gy4mbq1AKr5Tq9NAU24WPoEWLnO+34AWmgAWJn7uBa68v8ciH6bmT8HiHkXRq3BQcE8TTSPt7Yu9GGOjCVRCU2/47B5HQlGSDZQf+WC/kQ3GbrOuEyRLh8tY8TbuEHAeRJoTCbVYsmywN8ySToQrxjwgEidZEvt7JZK8hK31yF/+yUBwVg2owSPzkFnOD2j+4IjYdMZEYqNabixeFlDhgFfNlWsa4wxwyiTWfBe8S0WXYyRIdqAEo+GgARzY1PHAnZvWiZvH4zJpLFnXLH0Y7GeaerTAjhmfmxSUxAJzt4YSOCUmY/hbuLNwRg1jDjIdcyL+wG4WC4RvB84JSQQxgIXCGgxXzjN6KSofG+u4T17FfscDvwGFwi3hV6SOTEGADcI6PEujFrHzNfQzGRnjpUdmmuNYcNPGcx07ykSi5BRCYMJ1RH5Gy+xaK8kB76573MlJDRP18IhTVWcljGc3oggYEJcCiYN6Cyqj99Tr9Yvb1QzJLGgn3atSdJRHalWr340TWdhhgg+TwE/3Qe6hoWLuBAdigNAGB0cnBCix8cff6y5FwDAgIB3I5oHs0mN5Y+FagwDxhhgrjOiG30zDjYvsYuJNr+px+HNZuy1mpp7jQjOJosHbIkIBT3Ql8H1AEpwY2azmfl5kycYS7UxOiDGAhzMH9CBs6EfU3IQ+nGNMSJ4dZPRlm2Tyt0YGhi30anyXbxMJ4ZTAsR4vjm04h1SgA/jZ9x8vCK34fagC/PgLyqKWAdJtJuGORyNiG1oZehv/p/74ql5jDEIrpk1MpaiLczNXUub1Ja7r8nfZilC1Jc0kTAZlUhC+v6+yerNXVPUxasSFhc7U7o/fjDO4rWp0xsBeiVF/er+O6+rfyFZVKdInc0gjesByo2rGtWPX5mt3pTMyU1tYxMfy7hjuRsYTs7o34grRBmP0txsergM9Bd8vJyDyWDMJmPDs0E43Y2xwwuOXrcVFjRcVbzU7IAnOik4AbgVY3wxFlcj7jJmQJGNakRvv5ZeMzYzLv6f+TA2k3STecGVeLkhwAfQNno9AJPxwiUxJ8RoQIU+jPgImMXi8kz0DnQzHB3XeUVSY91NNC9DR0MX5pTI3YffeO9cH52E1HCUGHrg+Jg/kUaxGgeTKWDO77wnY5027ifRoGX+P5YLFWMxVlbAG05zrBr7/g+fOa0BD6nOb5uUf0PNldx7s6edV/etvq6+/8I89cG+2lgcX8aklooYCBPYsKJR/eGXTqvqimAZk71EKpcT4ptfEMub5Np6XTKp+ikB6ZfIfq9jMbMhEy0kQIQNxzVwTmxmFiEcGg6YLFiAzwtCJqyOjQfY8Yxo6x4gwPd8AAYMFBgN7r333hHiMM/lN8aCSOWNVQYc4FaNiM4z0c0ZF4hE/ojx6IQ4zIdNyHMBW5MCiw2Ptc6rW2IOgB7jA+j4C534y9wALegEGAN60It+4CCjOTVAx6SM5xnMg/69mY0TgYSZkwFlw9nxHL6Ll2DUgJ3xDfTShu84bJgboGc4/liZgTgYef8GOBk/93qzZkePIZ4vIN9DAwwCrC8st8ks9n7XftDrkO6+9aUz6pF1YkQrTk31livJQEg8+q2nTynqZOw5UhU9jIxJLRUR3bF4TrtwaldDAZ6ZabHoBR6/t15SRxerjyUDcyY3NppRrBvrK46Y6IpQ0hvQ4zdcT4wF0Ig3ieZmOEHAhUXuTcXOxtqzZ4/eRGSxMBZf0x/iDs/zNgMKxiUjoIPocFcABlylsbizCRH7oyNovHMEdKETG9/UvgAsGD/AjysGoIYoB5BFi5twg8wJPRquFMayaQxDhntibgB9tCGJ340/Hv8GdIyID+cdzyEdQGRMPJ85RHN7zIGDD1pCg3gNp/xoUDNABT28DuxmrLE4V/pgvAAe9+Milsxan879c/eyJi3dpQp43rFNm9yjvvHUWXXwZIVmejwtFKdnLwzNw4vD5S2Q1PCrFjdbo+9ts9sVQEoG1kxrxrE3GlCMoYNFHL3ADQD4iSYw/RqDCv/vPckBB1wB2BSc8rF0WEYnZJ7nNbIYp+joAkXe5ybzxjcb0tuv91nme9OncXo2YrcX/AE5QBwwM07u8XRyzAtwNU6ucLNeJ3f6hT6xklUwZp4BSBguE/A2Dt/RujPoTz+AqAG96LUIyHK4mUQZ8dZqrPdhrjXlQL0055nQhP6NHyTjZDxw2Qbw/GYiStceemLjlUAibaJxYOzEBrBeJMaoliGgNzg4rB+sEXF27vQuyYkfKlokYp5YgOcLy1tXbaeObpCXbsCGTeD9mJAmdErUtUWc84oy3IfvmLEMBtGZwTUhIhlxlAUOd4e4bKqomVOecD1ABMCDwwsq2gAM6JN4JqK415eS+QIM3pBA9JZefRTXM65oi2MiGnMtY6UfuGDDtRpOGSBi/owtmeXbWGHhnrGSQnPoZQLZoRN6NgDWNJNzEdDAPcU8gz4AXeaI3s0AH/3hqgIt4AqjIy+8c+U9GzekIOvMXAstGDOivxG1+TcfwNboYXHHwdINd4k+mWeOpfGiSCSy2+e3qQJhemy1ksJ+dcfiW+9NG7Bu3IhZLcjvM20aMoa5RvRwk6vEIuh3FD6vq5U+K0qTc3osFBbtO++8M6Ln3PZydfAISUS9ERlKXUmQRBSwYXEhVnobiwy9mHEfAPTQ1XASs6kBLD6c/HAjfmIiTf8m2Sqb1URkAK5sTvzLvM7PxjcNYIpe9CR08IZ7xSI1mxSRDJEKoAGEmAPPYvxsfMOJsfmNUy+gwjWMi+8RN+O5Uow4qof0ekYU8zr6MjdEXIAUAPID4tAI3Z+JZuD/0Tci/iLWQ0ccYU2YmhGdcUD2+lYyH5x6AX9EbN4nfRlOi/GgO/T6x8WiaRjwYcx8AFmAjffDOzb1VRgj8zTheRyqXt9GIwmg5oCOscby9q5qdfJCifjO3TKEdvYKV6yuqBuTIvcN/fsJE5suRb9QRYUp9xpNy0n5g2pWXdfw16yzvFTrSg71YhP0hjFuknBlheKjY7sVCeeI6JysGdDzpqIfPuEliagaJOlBpNW7vTM2x2x84qJ1N/QHiBnRkDhfFO9wEyZ0ixObRWdcV8ziYzPSEuleTFFwTnfD7QGebAaz4eiPvtmk8ZopxZiIZvQDGAAARjcHkPE94GfqctAH1xGOZvR30IV7GFd01ESy98TYoBuntxdEeC6RCNAOOkRzeqYYuVeU4x5TQQ6aQVtjiTURC4wZoGDMgJd5N9EcOP1wWMAFsuHh6JkbtIYWxrnarAHei/ErjDVn1gkHQjKgNPcyHubPs5gLfRsamz6giSnpGQ90E62vrR9LLjsBFG/LyRFf0UnnJOFAZLr4RG4y3vuLhSuLV/gn2VqI9zv4FkM/mBwEEjzQJugNP4ZyblGKx1TnHHEf1ZL6B5KrIY2OLZYeqrubzCX+VQIs9kR6EuMADBgAEGwM467CRoyVfQQg5ZpEYhvcBdeZaA4IwfVedwqz0RMtbr8OyvTFMwEDU0qRZ8JlGTcN8//mGqPsj77G78vmeSa0z8vNMRbmbSzL0ZwKz49FP67jHvO+TJ+M3/jv+RmzOQTMO/BaTaPpaVx/uCYeR8r3cNJ+OFZDO9YSYM1hYubKs0wfxlLsZ23Geh8dXSP3AH0WFPTJOksNU7p78+OVbPS7JEZcd0OSgcTw2EjNLDzUu03QG5Y7MTNT9cx2a2guUK1SIm40WyzXhPin0s3UT8laMh2Vuf/mIkzcX5DxJRuXAbVkzzRgHkRcj8eNxNNzJppXIvrFuy+VMcdyKo+eB/0me5/m2X7o770m2fNtv/ug44u+/orUrAWg/Dgi+31WX1+OuiAlZL17Qg6B1H3gOMj9PjzpdTk5wwOhuPfZKyWqS4r+2mpwj2evlKprTVZLydkanuvHUWDCUwDAo9YtIWW2WpfUz6VetmlDXg8ZAnqDg8OcHqLtqYul6uCpCltz11XPj0s4GtXTXXMUcBTIPAoQJvq6RE4RQ2ujAZ5nLpVEgN5Qv6FcOOyM7uZIhuVs1KNnLpeodz+Zoi0v0yf7i7eNRyg4x3d2T9ExuGRiSNYQz/DbwsoW2STetf01VVVybUQS0bd2Van6huSiabJnu98dBcYDBTavaVYz6np05hPTunpLVXfOagmYXxIxBbwXyBeIVT9Z+/RYpXr34yk6mKAshE8t+/zy9SL1/HszVHPbiACM5C4cCQZqE/QiTEGg/a6DklVY4vCeFIdFkg6k0ghAfmPnVB2E3NzuL/oEXROWSBKRRreca8+ppTMpcxeZRPTAiVIHeqm8IHfPuKTAprta1N23t0UkEb3aXK2uD0xXN0o2RcyJEEas2H5Ar6MrXwMVbisPrr2mqst7A7uwwOGdFknxhfemq48PxYzASs3SMjQrm6A34uVTMf2tXXWqoblQrb5N0lPP6hD/vV5VJCmm4pu2sdbk6uQCpzVrW6X2HK5S16UPv1lWUPBiTR2ZpVY4va5+NbVWsmNEgR5pcFxzFJgoFCAefprsA6/L28Bgr7jnFEjm5EigwYE8mXHLS7dzV4rVr7fOkEzkJWrFwhadRKCqvE87Lcfb9wM3ciWtVJ7s8wIt0e09WqX2iy6P72K0jMmyMmJsgBSi6fuSKeGwKDhnT+2SWFxJ2S0A43WK9N44KC7NFOhp6ZgkqWWK1JWGorS4v0yUxe3m6SgwFhQ4LxbXq2J03H+iQs0Q9RYBCwXiFxgf9HJ0Hr3G1kkSY1+i703A5ISylNjk9OKiLzmxkM/5uOYo4CgwMSgA84JBk4/lljGgN2JeOIqa2g0m7TcKUcRPdG54mxPfaBriKOFahHPhlGnyweFkTEiONxWPZSK67hwFHAVGgQL4ZbLHcUonTjpW1JSPYYRi1kLdHDW4EWZVvOpJdWNCuYh3JM0SmTDWrVun4wpfe+214W5uv/12XbzFFNghENx4nBM7SVZiPzGAPojmLnEUcBQYZQqAAzA77HNCMbdv354q6IXyWwvFJkbRbERfKEDh7Eh9Q+A2nBspd0yqb+IuvSFGBNLjhc7vACIB3+QJI/aULBJjmQ12lNeHe5yjQNZRgLA6EnQQNmlqNKc4yVCgZ5PTGwF6ABcfgA1kB+UBNALyyVoC4kMITOLEuBJcTpEWCGKqqAGCpshymMwVKRLX3eYo4ChgiQJgAdwdEuCaNWvC9Jq5oMesCPQmYwS6PSYL5wboobfjL+LvG2+8oTOFYBYnHToZPmiIt6YOK35CAQsChyGqu9dRwFHAMgVMYa2wMdsyrOQRCgnGblO8jTkQRNqHH35Yi7Wk6DGJHDFsYMQwVZsQbcncy+8mjRMpjLZs2aLFYgDPVO2y/C5cd44CjgLjiwIZ46cX07uXZJ5/+7d/q7m2TZs2aRBDxwcAwu1t3rxZc4NYdPjem6L7l7/8peYOAT8K4ZC1FqBMVsDalFTE4hvdBq/mq7JJUpQm1xORQfoaqbfpmqPARKHApWuF6vj54gh/2WsSTNB4o1MNtkXuGyIxYhU3GkNaZUwYWtwcVyapJwrMp556Sltk4ejIZAsIbty4UedxA/Siict1WG0RkRF/YY2TgR7i8d69e7UhJLoN9EgBGDU/OoeoutroL8RtDF+0e7SjgDUK/OjFaerZN6L4lJwClZN/VOXkXY54jqlDHPbhpgAUrmz8m6gpmBqTlTpA/8HqyUZ1bNOQMQJ9SYRo0odjpIBbIwW4SW1NFltOEWJkEW35GNEWnz2TsBGlJ9wg7ipG35eIQPRB37Gqe3V3D0gSUZeeKsACc5dmIQWuNY085G/mb+yUfRcqiUlcauGbh0saBk3cV0w2aoyaMDwBWqjUUmkFPWqvfvnLXx6uBIZ46q1bgSUXVxYmz18vB/fbv/3burYELwKgo/4D7i+uOQo4CoxPCiDhmapzMDg0mBk4voAtY8TbEcpFQOrHP/6xFlnh8KJriQJy6O34RLcXX3xR+/PgqExqm3jFlwMSy13uKOAoMEYUOHbsmOJjoWUM6I2w3nrdTEg1kydFPvibrHjIoBgWLl06pwZF5UCOfNccBRwFxicFyOJicvb52fckGWDPJ8molDE1MuKKytS/XTSrXd17R6NaOLNdVZb1xc2yggtOS3u+pKUpVR8dqNHpp+Oklxmfq8CN2lFgglCgpGhArVnapNbe3qxmTelSJZJUNF52pT4p+EVGphPnS9WOg7U6vVQC4AuVB86mTm+ElzRc3bzpHep3Hj+vNq1u0OUbNeonY94E7dcsa1ZfuP+S+uRItfqHV+aoo2fLpMhvshtvriasQ/fcc4964IEHopaX5NO78idqxdzjES4rA0LC//WvF6p9x8omyHJ005zoFPg//+S02rAiMonolaZqda3/d9Vg2RcjyIOK6e2339ZRVH7buuWN6htPnVMLZnYM5dFLsu9lz6Mfu3dVg3p682X1gaSj+9HLc3QeTdvNJuiNQKSl89rU73/+jLprSYuverXDk5Oe8JrLl/q5EI8EhN99bp7aI4kF/SQSNdWnRpTHk5sHi25ItaYB6fsWh0xq6vyoGqC2Ce36cxTIJAqUsg/K+rXKybT27n7V0S+x72Jw8DZTIN3v+Detvq6+9aXTauaUbrEE+/Qj9qAH2Za3rLuqaiT35n/+6WLVOLKyYqgwNJseuRGgR+LAh+++GhzwoigL8N02p009dk+9pJzv8Ev32NcNj9Dniwj3NHe3o0DmUiCHdL3227TabvW7T54LBnhRw0BCLBbReNXiFvX1x8/FGmQop9q0gB6DJjX8fUMibVjSAnzrheNbMrddc3+uOQo4CmQmBR4X5gSGxzeHF2caAHJ5Sb/WBy6a3R59VYZweiDdUKPY73yR5euq7Tk5YvxYKMaQ2ip7fWbmsnGjchQYnxTAUnvPqkbNpdloQEqV7Pu1ot+PZgbD9G+P0xscHO4LHdyMyV0R+oIwg+ReCMAJgpzvmqOAo0DmUWBKda9mdLx6wrCjxPPjtjm3OL2hiK1Qkrk90Ltpe9CtuHBAlQlrarvRZ0lhKGu17SG5/hwFHAWGKFBdRpVBu+onqhbWVt5idIaCFEI9xCboDaMRFlYcjG23m/3a7tX15yjgKGCDAukwjYAjEkpvtVkDvb7+/mGU65JSbm1S7Nt2o4B4p/TtmqOAo0DmUaBBXEsGBuwyO/RHv6YRiy/hrKFAwBroDQ4MDPNgzW2T1OVrRYLQdglwSUpINorXtmuOAo4CmUcBve9lj/ZbBL6evlzJ+3craAAfXBFxQ8l71tixgsLCFvMa2rvy1enLperitWIp8N1p5e3gmX3yQpmEqvhz0SG5AXn8Ihq0khq8cKL5Hrgn1s82QFuZtOvEUSBNFKAmbackzvUaHQCY3v4bajBq37CPTMq3RMMB7D7cX6vmTO9UZRJyFraxL5sESHcfqo7oSspIhrJmWgM9GdVwjisAhBi6Dz6tUc9s7lZYYMI0iLnzYLU6LHG4FA5P1khKeOTIkZj59PpbC9W20hkRMYBg4YWr9sNdko3T/e4oMFYUeOn9WrXncLn2ijCts6dY9eaeUTmFL0UMi7yUhKL5aVs/kYqHtzeq5QvagkVhxei8rSNfvb93ssThR0aIyKWhENUm6EUM5FpTodr6yRRtwt4ovjtFYtFNpQFynxyuUm/uqlOXRGT20ziZyM/HJ7p1d+eLTmCyn27cNY4CWUuBD/dVjpjbzSSil8Wx+GrK875wtVj96t2ZqmDSBbVYnIqJt0+ltXZMUu8J4L22fWoscTk1MBkaiE3QixgIyQFOXSxV//T2LNXcVqDukJCSmXVd2p3FT4P9vtxQpD47VaHe3Fmns6344fL89O2ucRRwFEgfBT78tFZzkMTgEn8P41MwKTn4IXF1CFMCZ/fJkSr17sdTRAKLmWA0eWcJpmcT9EYoF3tFR3D0TJnUnyhUB09WqAUSmlYrzsUQIF6KGSbeI0HPLe2T1JlLJZL5pFLBNfrNsJK+V+l6dhRwFPBDAdRR2/ZMVmevFKvl81vVnGldOp3cJEnqIWaImF2wv7t787SllrRS4AUYkI5mE/Rijg9lJBN5R1B7qxCiRDg98mwJJx37esHwLpk8OfRsm7/TQUDXp6OAo8BICsC8nBZJjw9gV1LUr3X7JqFo9B0AJXse4PPhlxfKZcUm6I3wTyElDTVrqWKGlZm08Tr9e9dN7hTzMwVCyJNvrjl9+rT+bcaMqfo7b6MPqqSb2rnxFptJLRV9P9cXTpLY3RuRelDOnrbOPKnRYdfFxm0GR4FMpUBZycAQ5+UZYU6+yptUoHLzIkVKLLfoyZNVIYw31z7ZV4Zrox5OTU2NomgYmdXZzyO8LJITLRRuhbo5amwjeDcqoJHIk4niQtLZ2al2796tTpw4oUFwzpw56s4771RcR+47wOpHP/qRNo+vW7dOFxGhTgZV0bDIQpydO3cmBT3Ky82ePVuXjYxug+0vqNrShoiU9ZxKr31UIz5Gzgcw+XpzV2QDBTasbBV3sp4o622p6s65TQ0WLIuYIjVqqF999WrqBg46ZD+vWrVKUTCMf9Mf5V2pf+2td+2DvqE2qk3QG8EmgebUswXwmpqadEHvL37xi7pYEGUgn3zySQ14lH+jiDfXcy0f/h9iQ6DS0lJd/pFTIVZZx2gi0c+SJUt0Td3IJklEL/1MrV5wSWIEPcW+RZ9w4ESpAz0fq81dkh0U+Nx9Deq+O1pFzXRLx3bxerWq75+tBss/FzFJinqx78KCHnsdZgSAQ+KbNWuWZm7AAr8uMUMDC6Xsswl6MbV0iLQg+fbt2zVX98QTT2jwa21t1WwudW9ffvnlEfVsP/jgAz0/cUTUIjIcnhF9s2PZuVk4CkwsCuBCBsCBCZR1feSRRzRzwv4OCHqhdHrJPX1DvhdEU3R2FPhdvHixnvSlS5e0CAv3V1dXp26//XZd4xYdICKua44CjgLZRwE4PJgcJDj07TA0qLwAwNFsNjm9mONGV7d27Vr9wflx69atugYuYPj666+rRx99VD3zzDOa8/vwww+1qMu/Q4bXjSYN3bMcBRwFAlAAwLvjjjvUggUL1PHjx9X58+cD3K0vzYzY23gDwQABWwuiw+0ZvQB6Owr/MunVq1erhx56SD311FOa2wP8uN41RwFHgeyiAMwOenpUXUh6Bw8eTMV6G8o52aZ4G3MgWFzR6b355psa8O69917N1tIgABzd3r171d/8zd9oq+yyZcs08LnmKOAokF0UQNKbO3euWr9+vTZWoqdPgcuDKP7CuuKQL+2gZ54LqsPBVVdXa84OFnfFihXaYstn4cKFGgSR+b3+QOj4nJ4vuxa/m83EpAD6e1zYqEsN4J07d07vfcMEBaBKKNCzqdMbIWcDYvjZMSmjxMRys2HDBu3388d//Mfa/46Gb92FCxc0R4hOzzTAkd8c8AVYEu5SR4EMpMDdd9+tmRv8dhFxaUiC6Pmff/75ICPOXJ3e0aNHtc7OGCXwtfvrv/5rPTmst9/+9re1yRpQPHPmjPbQhsvzGjGee+45DXh+8nkFoZq71lHAUWB0KYBr2quvvjrioSns7VA6PZuc3ojJAF7I7qZF/z9c3meffTYMgrEstikQZHTfpHuao4CjgC8KsJct7eeMAb2E+sFCyawye2qXZFzoVBVl/XGzLRASRubli5JS5vTlEtWdQk0MuEWcHT/99NMRLyO/tVQ1N1ZJ4LMnIoMMra1pxX9fi8Jd5CgwWhT49FiZiJa5EdmOWrsqVctgsxooiNw36OOTxbvHG3dZ8YBkV2pX02u7Jadm/OxKJBwgPvd8fYmklipOllUpY3R6Mb2kKdu4dlmT+vymyzrFDEkF42VaMIS7QVZ3SR56paFQkghOkwzMtZKTz3/kCXpDOEhE6+jW2wU2z5aPRy0g/0xHIaPRWsDuOY4CQSnwq7en3EzwGRELQMKBYyov/2JEdzFLLyR5IEW6n9p0RefUm1xFacgbEXG+sW4n43qXADF5OF/+YJracaBGkaUpRgsVwWCTvRnR1+SqHvXYhqvq6QcuqeoK8mkF40qrJffezCndus7GC+9N1zU3/DTEZERnYyTx3iN4KCK3zWn7GZG7xlEgsyhAViFxGosY1M3MyX3iRdEWarDThKv74984rVZJ4mDy6AUp/l0lDAh1btn386TWxi/emhUrxVwo0LPpshJBwVIpDLJhRaP60uaLqq6mJzDgQXUKB9cIAZ64t15tXnNd1QgIuuYo4CiQuRQoEMbmG0+dVWtEuqsu7w0EeMyKKFRUYajBHttQrx5aGzOzSyjcCnVzBOlzJBmXpy2Y2aG2rLumWduwjdPi4buvqtvmtCdlkcM+y93vKOAokDoFNq5uEMBr1tXQwoTRwx3OrOtWT91Xr6XEqBYKt0LdHDGQwcFh0CsqGFALJTU8+fHDTNzbP/rAJXPbVUXpCAKk/obcnY4CjgJWKbBFmBP0eTb2PeowVFt3LWm2Cno2lVvD4m1VeZ+aI4P1WwTID9UhACzvZBF3k+XOx++P3F1Tp04d2XX3TlUyqTnCeozF+BMph9foLLh+XoW7JgsosHpJu5pSLeDkmUvfQInqy5V8evmzImaIYZAkIcksuOWl/WrR7I6UVFnxSAqGrFzUot7ePUVfgr5eHJpD4Vaom+OxnOVisa0ZyZKGXiqwuRA2WSO0ZdGiRTrGL7rlNGxVi6ZfEV3DLaPKoFiNLl0rcKCXjLDu96yhwJb1TepOAT5vEtHrLVWq8cZMdaM4MvkuoaGEkCYDvSliuASkbHB5htD5Ul9jhhg1TAP0JEorlLhnE/SGD408MUAEtdT6WU30Sd/JGlYoQl1IVhrZJHOy1CRfNKtrRObk4qJgluVkY3C/OwpkMgVmTOmRurRdEaBXUlykCvuLJXNy5L4hIopw0mSNwj85Ocn3Z7J+vL9TNRHDhhf0gtwf61p7Oj2P4xv1aXukqpHtRi3cvr5Q1mrbQ3L9OQo4CgxRoKOLrEl29ye+e1RJM20oBj/UQ2yC3jDL2daRr641h6rdEXMhXZc+qXzumqOAo0DmUeB6s1Q468wXh2J7Y+sVBup8/S3/XEBv8MaNULgV6uaIqeXkDAvezRJOQpXyVgE/W61buLwzl0sVwOeao4CjQOZRAI7sMynS3dtnD1boc8+RqghOLyc3N5QfnL3RDQ4OWxiY9IkLpWr/8Uphd+28nGNny9XRs2U6Ltc1RwFHgcykwJu76lRjS2G88LFAg6bw91HZ95+dqoi+L5Qhwx7oSbisd2QEDr/z8RR1+lJpaOC7JOFnb+2uUycFSF1zFHAUyFwKfCqMzrufTNGx8mEYHuwCp2S/E4MbIy4+uQtHAhLZZJsizJ832dJqbcL+3MYrasHM4H57cIxnRUx+S06P7RJ87PR5mbvY3cgcBaAAe/bX707X3hHrJQwVdxNC0/w2gLJDpLkjZ8oVXOPuQ9WxbvXfYYy7bYLeiO6bBO3h9q42Far772xQsyS1FOEpECGeLw/ScF9/jp74lYYi9aFkWNl7tMqqftDvC3DXOQo4CgSnwDUxaPzja3OEYSmWaIoWNbWmW5UUDUiy4MHIpC6erjF+4PEBV3f6Uone96jHBsR6a7ulFfQYbGd3vtr1WY3ad6xKZ06YPvkm8Ekm+ZhN8gyqDuES6xuL1AURkbt6bErgtsnn+nMUcBSIRYHW9nwRTaerbXum6DyaxnFZXGhjNhgdJDnSyaHOIr9eghYKFGyCXkKTBWwvCM4n3Y3srBQUrq+vH/moRklNL06Y0REZ3Q5c0/1aXP8ZRIH6hgLZi0URzsnXxADRMNCtBjsj901DQ0PMNG1+ptMunNvh0+XqsCr3c7nfa0I5AY8a6EXPhvhYqiNRPIh/k+0YoCLUJWxKafLoHTlyRFdWG9G6S1Vh3kz5+hZGo0c4X1/ol+DuOkeBcU+BF7ZNVh/sq4wQNwcGS9RA3lk1mPdixPzYT6ZedZiJs89rampUaelNgyT9st87OjqCdhvKWdcm6PlWLgJ08+fPV7/5m7+pQY9qZ1RFov4tlZHCFvoGQHlJsV5Ud/cNSUo4wgQelOjuekeBcU2Bw6dHSlw3k4helz3ZlJa5ERr64IMPqqVLlwqHmavB7qOPPtLlIKmWGKBlDOj58sjDo3ry5Mnqy1/+sp7oxx9/rA4fPqxLw3V1dUUUEgpABHepo4CjQIZTgGwt77//vq6IVllZqR599FFdDZFysJcuXQoy+vEl3paUlCjqX5IJ5Sc/+Yk6e/asniw1b11zFHAUyF4KwNQg0iLZNTY2akkMFRdcX8AW+AZv/zbFW1/jNrnu0LcBeIAfIi7NFCCJVQrSV+fuIkcBR4GMpgBS3qpVq9Ttt9+u9Xvbt29XFy9GFiLyMYFQfiw2Qc/XQED1srIybawA8b/2ta+plStXamMGFcx++tOfqtbWVh/zTnwJzxnKyBBxYb7gK+lqImRx+R/8gcJ4kIcesOvAUWAUKUA6du0r69m17Is8KVVomBAzHJgQ8wk7xIqKCjV9+nSd5Jf9DxYg6jY3N4ft2vf9ow56gB2gVl1drXV6P/jBD/Rg/+2//bea9bXB5SFCr169WovR0S238f9S8+tOyMu9VToTwPtPP54tXuDpd6fx/WbchY4CaaTAn37lkrpjcWQS0cb2akki+rS6UfRgxJORynbs2KFOnjwZekQnTpzQ/cCQbNq0Sa1Zs0YtX75cJykN0HwbTWP1aRP0fI0Z0EO2x3oLh3fgwAF9nw2wMwPgpOL0mDNnTuSYOLHyu9SyBR0q35M5GW9wihK75igwUSgwZ3q3ul32gVeddkl890r7SySJaOS+gSODkbDVDNeIOgs8iCWRJXlWxsTe+qIJZmpQfcWKFepLX/qSBj5EUTg/nCBtNQg5gphD7DxsvDdNtiLUxZdwbmt0rh9HgbGlABmOATzvPkDcvSnyRm6GFEAp5uRqa2sVn+LiYl2/hr3f1NSkrbcBW8aAni+WE2S/cuWK+u53v6u+8IUvaI4P0GPyuK7gr+eao4CjQPZRAMnrnnvu0S5rSHuIunv27IkdOZV4+uML9JgLbC0WG1xWjNIUMMQp2YFe9i12NyNHASgAU4PHBkZL9jt+eyn65obSRdnU6SUVEOGai6R4SOlwIeAuQcCbCwKnlXLJCs2HXPvEwt6wnG/fLT1HAUeB0acAlmKyrBQUtKrcwVY1KMEXgEWxxFXw0YyQyIldkmikq8eX33HGcHoxRysWcKmv2aPuW31drVrUqv+dn6SiGdbUxpZJOmPq+/smS9aForSkmBn91++e6CgwcSiwdF6b2iA59ZbNb1MVUroV/WE8zgh3Meph1DcW6vTwOw7USknWuNFmGcPpjRghpdso1PsbD11SC2e168rnlInz08icumReu1q7rFk9t22G+vhwVURVJD99uGscBRwFRp8C5M37wqbLavOaa2p2XZeqkH2fjNFhlADfbbPz1O0ClnctubnvD0rNjRgtqVSZaNY2xdsI0KM+7e0LWtXXnzivlsvfAk/tSj+vgRq35OCqLu9VpVI8nDx7uySLqs2iI37G4a5xFHAUCEaBp+67rL74wCU1SwDPD9iZ3rX6SzKtz5T7qit6ddb17784V8pElEUPIBRuhYphixpJxEBmTulSD999TS1fGBzwvP1CtMWz29WjG+rVvOmdwajvrnYUcBQYVQosntOunpTyEEEBL3qQ6ABXS9blpx+4rCaNVIdlCOjl5AxzenB5i2Z1qHXLGwPlx4/3dlCErr6tRaEj8Csej+qbdg9zFHAU0BR4eO210IBnSFla1K/uFDH3trlt0dT1Ze2I90pCIWZEp4ODwwVpK0QchSubUmXP565S9AILZnaoWmF7L10vSrjECGc7duxYTPeXgZYitXPvDPG/vKVbpCr7xasuiajbtxOHAq98UKsOHC+TfXArCr2ju0R155xTqvCVCELEzUIeRS5UWHff3mSNMUHcZd+vWdocUQbyxuBgKNwKdXPUnIfRt6q8T02t7Y6MerCwnqZJgRFk/WSgR0zv6dOn1blz8gKjWm9PgegHp3gTJ+srevpC6UYtzM514SgwehR4b0+lxJ9HPi83V7KYT7qkcvMiM44TNoZvbbJWW9mnakUPj2RmqwGkMDum4d+XGzJExCboDZOwsGBA++LZbqUSH4ufX7JmXlKsF9Xdwwu0qcpMNhr3u6NA5lEglkEwV/zLCgYHJGAgNQmtsqx3BJCGnTkAWlVxK6vyUIx+KA4lLbsf0/ONNJRuIzGAS/8Udhm5+x0F0kOBASqY2WPyhgaZoz03olqop9gEveGhdUjZxxYp52a7tbRPkvKQNplT2yN0/TkKTFwKNLYUiIOx5KW0SAJKQV4Vh2XTkGxFgguFW/YQJCdnmAdtliLfl64WSdHuXIW/nY0G53jxarFqaB62lyTsFuLESkOdlyfZV2K8FpdE1MZbcn2MFwoMJxH1DPhm1pXUk4g2yb6/IHsUnX4Q/7xENOvpzVWHz9wqH8melnj91OTvoQfZA71BUQYMtY6ufHXqUqmUVSyOUEKGWRBXmwrVcXFSbBJuL1kj/xepa2bMmDHi0r7Wd1RVSVOE1QqReceBCnW9OXnfyZ7tfncUGA8UWLOsXdXV9EZkkeruLVK9ubNVbuGCiCmQCIQEIWRCStSIlX9v72Q1f0aHWF3D6/RhRNj3e49WRT82UOm06JvtgZ5Sw7MERE5dLNUEINa2XFxYwjSCkD/8tFYdO1smrG1yHWZRUZHOw79ly5aox0oS0Usvq9ULJNND3i0OFC7yT/6/ix3ohXlJ7t5xRYGvPl6v7rtDEgB4LK0Xr1er+v4vSBLR34qYy+XLl9Vrr72WFPS46b09k9V68c+9UxyLg0ZheR8KhhB/D4acrx+RwDQUoISSjaPecoRN+5og9DYhwAf7ahXibqqtTSqkf3y4Wr29e4q6KIkHXHMUcBTIXApcay5Uz741Wx2UZCEwK6kYHuHwrks/MDovvT8tVh/J/WcSkMgmpzdCf3laRNyfvDZHNYtIuk6cFnE0LC68obmsqOSsw0OESP03cqVeRq5qFcD79HilemHbdC0u40TsmqOAo0BmU4DkIH0ikX3x/ssSmdWuEw6QfCSWHtHMBNG4T4wg3QKUiLS7Jc7++femq6a2mDr8ULYSm6A34k0AYOj1fvDiPPXux1N0KNnsqZ2qXNLMxIin0/eD8u0CdnB1+09UquPny3SeLdccBRwFxg8FPj1WqU7I3l0hyUZIPDJVAgtKJZ6WENVYDb9BDCGIsvuPV6iToh5LwOSE4n5sgl5c9MUCc/Rsuf645ijgKDAxKEAy4J2fVeuP5RZKLWcT9FLyTSF1NIVCiJ4gdbTNqmiWCe26cxRwFAhJAcpDFBYWDpeJYN9TIqK/P5BtIvM5vXh0wueGwkBPPPGEwkL04osv6rz5rjkKOApkHwUAvHnz5qm77rpLTZs2TU/w2rVrau/evero0aNBJhxK3xWKTYwaZWDlYkFBgXr66ae1P92sWbNGVFYPQgV3raOAo0BmUwAG59FHH1W33367LgxENiRKv06ZIglAgrVQoGdTvA0EejgQ33vvvaqqqkp9+umnuiyca44CjgLZSQG4vNWrV6vKykot0VH6MUQLBXo2Ob1AcjZ6vI0bN6pt27YpUkG55ijgKJC9FKDm7cyZM9Unn3yiS0GGbKFwyyan5xv0SktL1Ze+9CVFcsJ3331Xff7znw9Jg8jbYZ07OjrU1atXI38QH5ocid09e6VIfIZu+TfeEJ8iSk665igwUShQ31CgzlwujIjIuC4JdhsGetSNrsh909DQEFrXXlNTo9VXLS0tqqSkRD300ENq8eLFutb1vn371K5du4KQ3jfWxOp01EEPay2Ij3z/s5/9LKjVxhdhIOSOHTv0qRLdersKJeHAYvnaK43nqLbOUByzr3G5ixwFMoUC/+3ZmVLKgT3g2Qc5+Sov/1OVm388YpgwEVhYwzQ8M9DhYa3FWHn9+nU1d+5crdYqLw/sypaSp4gZ/6iDHiiPLq+iokI988wzWrTlFMCS+wd/8Afqhz/8oT4NwjTcXiAwn+iGcXhgIP60GY+fLLFhxufudRQYCwoANgAYrT3GIc8eLCjoE46s3frwGhsbtTsazA4ZzeHuYIDuvvtuic4KzLhlbhhaLMqB+OjxDh06pMEFQm/YsEErOD/66CPtq5euVlZWpurq6tTZs2eHX370s06dOqVN6IwNvaNrjgLZQAFAB8kHKSheYw+ieuKaWAxDGDrA2SEmL1myREt3SGIwGCkAHsMI5NQXPW6bnJ4vlpMJnz9/Xl26dEmPhUkvXbpUkRnlxIkTaTNq8BxeKiZynm9OvGiCoAv88MMPNfChg3DNUSAbKADAkBoqkRMwUhhSl5GUbM6b57KvcFMjA9Ly5cv1nuf7FAyZ4wv0ICgT9RL/jTfe0F7ara2taY3IAMRgqRM1xsc4+LjmKDCRKIDUxf5I12FvUlSR6xIGBD0hHCgcYMCWMaAXyE/PO8n6+vqAc07tcl7qnXfeqVn4gGEvqT3Q3eUoMI4ogOoH9RJAlI6GyogIDDhOwJX/Zx+mEHqaMTq9uNpIUsZPn9yjlkjRXrItUL08keqyU9LLNEi+/aOSNPSCZF3okQwMYRuEheDoNVyMb1hquvuzkQIYEFHv2JJyCqVy4UJJLbWQetWVvWItjp9SjuxKnZJN6bLUtCaz0sVrxYly8WUM6I1QgAFsU2p61AN3XldrJZ/eVPl3WUnfSFN51AqitgYFgCgIQj490lJdEiJQDS1M44ViQElReRrm0e5eR4GMp4ApnZoC5zVibotnt6uH1l5TS+e16ezpMDo362bE3sSkkeqVfd/aka/rbHws+fRIQtwau8CYL/tBPILbNGSM6GtGXZd6auMVtVkmP12KfwexTE9WvWrutE41b0anEK1XPU8iUZ1jK9zacWJtOPq5ux0FklEAoPutLRfU2mXNqqIUC22yO279XicAyb6fP71T1VT0qn9+d6bOrxnVQol+aQO9aqmItHFVo3p0Q72aXJW6Y+MUqZj+4JprqkUSDDL5ek85OP+kdFc6CjgKjAYFqIT2Gw9dUveubFTFwt2l0iaJ0/TsaV3qsXuu6szJL0gG5aiWev0J6SgUYkYNZBhAAfZ5UhHpgbuuhQI80z+nxSYRkRfPaY8Im0mFoO4eRwFHgfRRYJ0UBbp7WVPKgGdGlpszqKZWd6tH1l/VajGbnJ490MvJGe4LhEd5uUjkelttjqSZR09QIanmXXMUcBTIPAogxqLHKw1Z/dDMLF84vlmiIqPMRGaC3uDgMKcHiztrapcqEuuNrUZufYBvsoi7rjkKOApkHgUqxEgJszPJU1417CiLCgbUioW3QG/IyBJASzhyBPY4PY+oXFbcr6rLU9fjxSNUdUWfKpe+XXMUcBTIPApgcMRNJYjhItks0O9Nn3wrm7oNy7JN0BsePwWEb5qn7bY8OUG8xYnt9u56cxRwFAhDAfxxbQIeY8kR3d4kKR9pWqZxesMjo5wbhX5tN0pB9vTZ79f2OF1/jgITkQJt4l0xlMTF2vRxWm5rv+VkMuRjG0q8teaycmNwcBj0cCikYC8+dTaRn+rpLR4CWKNsBnVE0DdxiSZMJ4OGlhFDIZSQZBHEa9rOBGJzgsSvkqXHhjhmc1w3uSdJmitppmz7rF6TBL0tsvcxNtqSyPqEgTp7pXSYBIxdaBpKQrUGerk5OcNKvGbxqTt7uUQToEqqm9tohKicFufk6wJ82dxIq00afTYMESTpaAY0mpub09F9Wvuktgoxoh988IG6ePFiWp+VaudsTLKVkDfSNrCkOibvfRyoVB87c+ZM6IzI3n57evMURb5xMC4uTM1Hz9sfTBPc496jlRGgJ/QNZSG1BnoyqmHQ65f06ycvlqk9R6p0CFq8quZ+XyDhZ4dOV+hi4ekQm/2OYzSuq62tVQAfgEdgdjoa2S0+/vhjtXPnznR0n9Y+AZQ/+7M/0ymKMrXB5S1YsED96Z/+aeiMw+mYI9zyyy+/rP75n/9Zl1612d7cWadWL2lWs6Z0h+b2AFHi7wlFjWqhDAY2QS+CpTtzqUS9tXOqDieZI2ElqQLfDZHpicJ4fUedOn7hFptr80VlUl+IHSQ53b9/vwamdMQJG04vhTxmGUEqaqtkIgflJQ40JotIJoIza4zkAmFTwMdaDPtPVKp3dtepz0n46WRJMpCqmEv8/fHzpeqf3p6l+HdUC8VG2gS9CF8SuL09wpZ+/8W56n954pyaUdetisXnxi/4AXbdvbnqmugGf/7mLLV9f60U75k4Rgy4BVLqpyN7M4BBdtzxKN5mBOoODQKOiU90491xWEHndOWmC0MH9Ix8TP686L4A7HhJdv089yevzpbCW4Nqs4SPEoJaKNZXP+AH+zYguIEq6+SFMvXT12ergycrYj0yY8TbEQNBFP3g01qdKODxe+rV3cubtLxPiEnc3FLy0w3JuNAkekHE49c+miZVm0oUIDqRGsaMhx9+WG3atMn6tDEC/PznP7cu2lgfaIZ3yDuisE0sbpzSBNCZQvbhGyA1tGUsWAYBY0CNZJ5kEo9ucIGkd0+1VgzZUr73wjxheqp0hMbKRS2qQqI0NPDF2sbyNYAHR1ffUKg+EgbnbeEWE8TZZ4x4G/PdwrGRKua7z8/TXF+pOBfXSMRGwaTY4+7rz1HNYqFtEyMI5mrXHAUylQIUr37iiSdiZuNGrCVZbUoNTowb5e8NcYq4IWLyTStwjsrNg7u8yUnSUlF/kKX8/vvvV2vXro05PHS9r776aqi8egwXpoUPDsbEz5eLVXdSDP9ddPY9UoK1WfZ8R1e+n0xKoYDBpnib9P0CgIAZH1q0aGDY7qQduQscBbKUAgBcX69U8uvqFJ2b1KCV/49uOSJST5pUoAqLilWBfPKSlEAYa1L1D+SK5FYkzEyO5jC9bjyANjgw5IoiQ0VgTMrIZYbLShDCmiI9K1euHK6Ixv3Hjx8PxVYHGYO71lEgkyigi/F0d6nO9lbVL0V8ErE7g9Sh7enWn9y2VlVUUqpKyiti6hczYY64GG3evFn7n27dulUdO3ZseFh33HGHeuyxxxReCxjw+P2zzz5LNuxQyn2bnJ5vlhPl7qxZs9RTTz2lWWiQ3nB5KNdT1SUko5T73VEgEymAFb2jtVlzeABakHbjxoDq6mjTAFgqwFdYXBLk9rRf+8gjj+jatvhXoiv0GnYAPMCQmhx4KixevFht2bJFYwIVCxO0UPn0bIJeIALC7WEy/+u//uvh+/j/THdFCDRJd7GjQBIK9AlYtQvgwd2lGr2hKwz29aq2lpslHgG/TGnUo3nuuee07+ns2bMjhoUDN+4z1LuG+4PhgetbtmxZdoIes+dlpSvqIFNeuhuHo0A8CvSKOKsBT4DKj/Y+GSXR/8H1YeMoKcsM4Nu9e7eW3LBye0GdqBBCLinWde7cOYWq69FHH1VYvRF1k7SMEW+Tah/NRODymDQy/r/7d/9OA9+FCxe0xShRBfZklHC/OwqMFwoM9ItI29ZiDfDMvAG+zvY2ESPzM0LUjRcfjQ8qAIclmXA9CoAj1gKCPnwbfavSYq2HMRFvOdkwWvz3//7f9aRXrFihJ43c/9JLLyk87l1zFMhWCsDxtIt+K5nBItX5A3wdrS0qX9xmAL9MbMZiu2jRIg1+u3bt0uLtunXr/Oj0fTNY6QY93wMxYi3Ax+Th8rDwYNyAA3TNUSCbKYBY29fbnbIOzw9t+gf6VZdwfKUVVSn58vl5RphrMGrwQaeHPg9DBvufCKSrV68m6zqYtSeqN5sI4xv0GIOpsYm8T2A9Im8qjpbJqON+zz4KVFWJp/9DD6VVH4zq5cUXX/SzAQMRmHUPGIUJ8/L1QHlOt4QaFpWUqXyRoMaqAWQmiQbvDQstNCDRQVtbm/43USELFy5Ut99+ux4mGWCStIwBvWQDHf4dMRa2dt68eRroIEp5ebnT6fmm4MS+kEOSDYReKB0NaeOee+5R77//vnXQwy2lTyyto9FwZ8H3D+flsWIo2Od8ADZUWYAb3ByeGoAbFtzbbrtNW3ZRe8H1kfIqScuYhAO+0ZcXgBw/ffr04ZeBLu/QoUOyIOzk30tGNff7+KXAwYMHtW9XrGD/sLOC+0CRvn79+qT9I5qhh4qleC8qKtIbOqINOSCHLVgfZI5EdhSXlkWAHtIV88RwEKthWLTFiQJi9fX1EVEXGDeI7UV3j7vKqVOntFoL9xbilaHreOH0fIu3IDoTNVk+QH30es4pOdm7dr9DAQ7L5cuXa87Bdnv99dd9p106ceKEBo9oLor/R0eNBDNlypThIeqgevHL8xFmZW1aWIlviH4vN/dW/kFAB1cSdOqx/GLhpH0Aj68xXrp0SfGJ1wA/PgFbxnB6Cc3IFAqqrezRqWYo66ZUw615Fis1efGt/6UORlPrJJ1WiowNrjkKeCkwc+ZMrf9JR9qtDz/80HegPe4VfKIbnB+cEnpBbyPaYgCfPIsNnVhvV71qvPjGcK86njWvWNXN/w3t/oeVOC9/0jA4Mz5AzYC2xeGM6KpQ9jrFuqvK+oWbk8JBceJqyaxEVqYGSTnf0FqYrNZGxoBeTHSi9u38GR1qzbJmnUyU9PGFk2TMCSCSwkLU2SA7y15JT3PsXJnOseWao8B4oACgAyBHp21Cx5Zq1EX8eUscbqdwU0e/dwv05F/5hTVqyrxnNNBpoPUUrEGnDiCnM8FpSdGAFOluVrfPb5WC3d2qTFJLwfhQ3SxWA/R6JH9mY2uBLguxT9LOk1OPDCwxmm9VWqybbVpvR6ASE71TJv74vfVq1aJWnV4mSOsQoFuxsFW9ISmodx2s0Tn2XHMUGJcUIE1UjIwpNuZy40aPBr5bjWwmt/aaLf2c37FWCmPz6PqrOonoolntqqjQP0bpXJoi5S2Z26be2iX7/lC1zCWUL/KIYdsEvQhEIlvq8gWt6stbLgrgtaRUFa1UTou1y5oUROwXMXfHgRoFEE6Ehq4F3UqSwOuUSIEu1YX/pUS6UDf5VnqHekqMm4fy89mFjtiDhJvbsu6a+s2HL95MGEzi0ACNBMO1kmZ+k9TWqZS8mxQG+uzUCCt9KJ2XTdCL0CpPl8IgJmtq2GSvi2e3q0fk5Lh8vUgKBJUHIOH4vRRLFql2sFLabuhzMrWSmO25Zkx/gjhj5TaSkys+sKNECPbq5zddVlNSADzvEFGLrRCm6Qv3X1anL5VGq7cyBPRycoY5PdCeyd99e5OkhrdDbbjFpfPahAAlWV8RDYrhupPM8pUqZRF30lVpLdUxZdt9IxPikiwzPVJKfn6ZKqtZGSHe5hdUDf+/fm7UPrSvW7z5uEc31Ktptd26RkbYdlMv2KKxJKoiWihC2uP0BgfFBnuzobubK1XQYFNtNdLMYxChTwwcrjkKjDUF8BM0RYC8Y+F7Di0OFq/LirnWJuDk5OSqwtJZatbtfxpBDlxUDGeZN4ltfgv1GJuJhohlzDCV3IKOE5XWXVL+kb+2GvseFZcBvaExhWKl7IGeZH83E60SWXxaTVIHw8B0wfRdLX070AtMOndDGihAYR0iCWI5SWO5xZ3FC3ootgkJ6xO/VHtN+iysVtUzHorZJanl8yW1vFe0Rl+MjyORELEasa/okoMGCkyukv1Z0RdYj5eIFgUCoPNndg5fMgR6GSLeekCPgdqocB5NjGJhdwtE1nfNUSATKLB06dKEhYGmTZsWMUzYk4LC4ptgMkphGZMk00qucIPeRsEiYpfjpXGjMBAOw0FBr0J88eK5pKT6vhCTy8ULxDQbnF4oxIyayDDLiYk5HSUbqYkZMJt2qrR29zkK2KeAcHqF4r+XG9ayF2BkFA9KyXUiwDPMpVQyHBSXE5uN/mJgSSjcCnWzd3J9/f3DojJuJS1DFc9sEqBFSkNSIs41R4HxSgFEzYLColEBIhINFBaVjJrVuKHlZgRVeBPGrbcL4F1tvOUYgipBwlVDgUCom70Lb1J+/nDmzybxqr5QL2y8EGCShJ7YaNTAPX+1RF1vuRVDaKPfTO0DHQye8z6yyAaeAjHO6eg38EAm6A3FpeVxyzvaIomOCpHnpCMpQ7wx4lR8XvZ9dVmvhJzZgb5uCU377NQtNzXmJWs3Y8LQhrWzhIydklAS3Etum2MnCzJof1zC0QDUidBQNM+dO1cnVrTd0OXs3btXZ7RwbfQpMEneLRxYd2eHiIN2mILoWcBRUhpytERb8/x3dk9RC8TLAmNm2Iaa7LrE4u6QaKyoljGgFzHL4+fL1NtCgNlTu0IbNeAY3/l4ijp8pny09L9h31fo+ymaQrGUTZs2he4rugPAjs/hw4et9+069EeBsopKEdP6ddaVoK4hyZ6AWFteVTOqXJ4ZE6Fj90s0xR2LW1RhCKMjdh4A77UdU+XviGw6oUDPmk5PJh2RPqKlfZLatmeKevH96YoEAqkYq3SGCJHp3/l4snpT4m+9sn2yF+9+dxTIZArgSlJeWa3rWNiM1KAmhu53jLIlkynlb59dqGB6wuz7prYCjR/Pb5se6zWGSlVjTacnIxvBpxM29o+vzha/uiL11UcuKELT/Np20AiQceHX785Qr26fplHfNUeBbKIAHFlF9WTV1txoheMjfVRFdY2aVGA/z2AQup+9UqL+t/+5TP3OY+d1KCqx834N1jA5Zy+XqGffmqUTDsTxAgnF6aUV9CAUHB/c3rsf16lFEk6ycKbI++LAOCkvti6DSbZINpUzQrhj58olxVS+ZKfwC5VBXo271lFg7CmAQamiulbKNraqbp2xOPh+1lEZ4ppSIunz8wX4MqEhkv7tPy1UP319tloqGVNmiZoLfztCVKMb35BWCuvvGbEDwCV2y//bzq5inmsT9OKaaxh8m4DXp5Ij6+CJipuoHw/HpBc64h4stqmIxZnw0t0YHAX8UgALa2l5pTZuUKybuhYkHE3WdP1o4epKysq1G4xNMTnZs5P9zr7Frxbw2y4SW+5n5NJLcJdcT+48s++T9J8hsbdJcmADZIAYH9ccBRwFIilgXJTyRR9XUlYhoWpSQEg+ZD3W+fC0lZeMyMT75muwI9rChJhlEuB5Z2b08sojrZFGn6Jg1MWgCBA1NAK2jAG9gOOW7K4y6S1btujKVrho/NM//VPc0JjAnbsbHAXSTAFqTRC4H6tWM4WBgoZxwQpp7o1EBjgWS/TGTUlnSPzhn6So4j/YphTLpgKiuC0x9liN1GPpSDxKNukHHnhA3XXXXTprM1ZraLh9+3a1bdu2IG8rY0AvkDciJR+/+c1varAjwHk0nSiDUNdd6ygQjwL79u3TdSaiuSzWMvVdv/3tb6dMvJt1oEPt7YTP3rVrlyLGNlb8Lbkc48XlpjwhuXHt2rXaDevkyZNqz549uhoaVRFTKEIUyutkVHR60YQC8e+//36FL9o//MM/aLSnpTD5MO/A3esoEIoCAEMscIDzmzFjRloKF4UasNxMhpVz586pzz77TP8drQqE1OSg/i2ZZ6jERoJcExmUgmg+/kCP8CpOQk5JMj5MnjxZl4S07aQZdoG4+x0FUqUA3F6mSS+ADBmzf/GLX2hua7QADxpSEhNm58CBAxr4KPpNai6TxTtRmcgY72D8gR6LAaBDl8eJiHxP4eFXXnlFZwsezZeR6qJ29zkKJKKAOcAzRXphz1EXBcD75JNP0iK+JqIH6iz2OaIzYyEPIWU8aYwnIOiFWnxjIt7qupwycU4b9CL8+0tf+pKW+d944w1XtCbUK3U3jzUFOLRZ23/1V3+VMQc4ew7DCmLtWBSFQn/HQYBKi3EcOnRI6/OXLVumvxvNZhP0kjsWeWYGAa5cuaLZXdrmzZt1RXiX/WM0X797VjoowNomVfx7772Xju7HZZ+4pWAthruDq+NQ4Dv0fCm0QFgT3b9N0PPtSo45nNOGSvVweZj3QXtAMB2m8hSI6m5xFHAUsEgBAA+9PdLcgw8+qFPVo+fDepuC7tM31sSagk3Q8x0EjJ4Dc/m6devUl7/8Ze3nhFVp//79zoJrcaG5rhwFMoUCMDMHDx7U4j6Ax4fvsCCnUNt5/IFerxRGwWwN0GHK5u+RI0e0NZd/u+Yo4CiQfRSg7gZGCyzI7HsAEDUA1tyALWNAL6lzMk7kZFKmaFB+znV1cN+bmrU1Im2F6DOJ1+vqzUs5LU1A4rnLHQUcBdJMgdycQUWxsKLCG1IPt1m1NPC59dASSaBUIOF13T25Ot28jxaKM7Ip3sYcLUBHdoUFkl1l5pQunVGVWpaxsi0wWUCPzMvU2LgkqalOSsYFamPcsFxwxAdhx/QSuGFOQTIc2264B7msybap6vqLpsBUKfo9T+pfT5e/1MIuLgL0YmdZIVFwZ1eeTidHyvnTl0o1DsRpGcPpjQBQgG3G5C517x2Nav2KRkkr1S65tfyBNAWASDe/+7Nq9cH+WnVOUk2RlHCiNDz9cS9A5LfdUCEgYrjmKJAOCgBsKxa2qntXNajVS1rU3GkdIt0lN7iSYaVZUtEdPVuuth+oVjslTfyVBimiZLnZ5PQisnzmysRn1nWpL95/WT22oV6VeWpX+pkD3CCEIwcfyUd/JclET1wo05zgRGgmKDwdMZD0DSfpmqNAOiiwXPbt1584FzhlPJhRU9GrNqxoUItnt6nJlb3quW0zJM/eiATCoYKS0wZ6VZIt9f7V19UT915RJVKkO9VWJHn2H777mk5GyicdyJ/q2Nx9jgKOApEUqBWg+u1HzwcGPG8vqMQmV/WqJzde0Zzfr7fOiE4oGgq3bMqLwzmqc2XQi2Z3qAfWXA8FeIYQGD/uEwBdNl/S+MTIvOoWnqOAo0BmUGDT6gYtoYUpCmRmUi0Z1p+4p17VVY+QSkJxetZAT9STw8I31lnKwGG8sNVmTu4WlrddVQgH6ZqjgKNA5lEAXd7mNddUiex/Gw1xd3J1j1q3PLJUqUS8ZAanhzfKLYTu1fq8WJaalIkhD5glfU4Rttc1RwFHgcyjQHlpvxgtOq0V+maGqLduFwnPNEL8JI44lGLfGqcngxpG39LiASvFfqNfK1WVSor8WX8zb0m4ETkKZDcF6oQry89P6q4biAios6ZIv6YN+fSGAr1QbGLU6IcBFGdEWFPbDc7RKvdoe4AW++MwIyaZdDy2Gy4r8VKF236W62/iUCBfVzi0u+9ztGPziD4zA/S6e3qGDRk94k+XwLEw5VXQ2Z0vpeFC6TBTfvZo30gg9t13361Wr15t/dEtLS3qtddeSyX8x/pYXIfZQ4FWsbTaLtuIi1pz2y3eLKRkq4ltjdMrKizsMq+vWerW1otTIUVNwknfkQviSmOhapK+J0IjuzRJVufPn299ukRjkNTRNUcBmxS4LHset7IK0e3ZkvQISDgl/rmmDWVkCcVO2tTpDZtVm9oKdBhJq4SS2WoU/z15vlRdFeBzzVHAUSDzKEB5192HqxWSnq3WIdLd7kNV0d2FMg/bG51Sw6AHh3fiQqn6aH+NrbmrPULMo+fKFTF6rjkKOApkJgVeeG+GiKOThkpXhhtjV0+eOniyXH12ujK6o1DWTJsIEoG+BA2/sXOqOiJxdGHbhavF6pXtU9UJST7gmqOAo0DmUuD8lSL1j6/O0YkDwrR+0eWdEMnuBy/OiwWgoUDPmk5PJhgRUYxC88CJCvV3/7RAfe3x8+Jg2CT6veCi+MGTFZqIe49K3r0JEncbZrFMhHtffPFF9eGHH6aScTcpeajlgD7VtdQoQDakN3bWaYnsaxJ/i29tUI8LjKC7D1WrH708V2daitGSZy9IMHyboDcC0Zj4odPl6js/XaRDyO6+vUnNlVQzlWW9klcvNgBirUEZCnf3yZEqdeBkpdbjTaQMK6ktt4lzF1ZtikZTWMZ2w/kV0JsyZcqIIt62n5Wt/bFXt+2ZLNlSytSaZU1q1aIWNV0iqkgxlxcrjFSgoKfvZlqpM5dL1CeHb+77VlLKCfNku9kEvZijA/iuNBZpq+u+Y5U6mSDIH8+qCxTeEOAjmSCIj1I0HRO3TUjX3+hRgGpaFIhPV51kMtB89NFHCtce11KjAIbHc6LiutZcIAA4RScPxqIbD8KwA/QPSBJR3N1El9cj9ydoodRyNkEv7hiZEP51E8XHLrVl4u7yS4FPP/1U11VIoaCM30foqnzNzc2+r3cXjqQAzAp5MTuGndmsUSkU+zcqoBc9VcSH5cuXq3nz5g3/hNMhC+3NN9/Uhb/TdYpbI7vraMwogN6Nlk7QG7PJZdmDN23apEu70qiASHGgy5cvqxkzZujyj1evXtX1cWjTp0/XJSIvXLigjh49Oi44Pd/oy2LFOXbq1Kka3Ph/SkDijPv+++9r0HPNUcBRYPxTYOHChcNFgIqLi9XcuXPVtm3bNNhVVFSo2bNnKxLlEha5atUqXRY2CeDp8y4MZWxyer5Bz1Q4N6Xf4PIeffRRXQqS3xyXF+aVunsdBTKHAhibTp8+rY4fP66luyVLlmjOzxT7RtpbunSpBsEFCxaos2fP6n8naaFiUccE9MiUQCiUKU5DUD0l4SiC09VlXwGQjILud0cBR4H0UACGBt0o9W0BNRM7CwYAhEh7gCF1cBF/9+zZ46eUQcZweilRDSLcc889Wp9HIRyscq45CjgKZAcFqG17xx13aLF22rRpuiDVlStX9OQAQ6Q9AA+mhyJY9fX1fiaeMaAX3PNYpodIu379ei3HNzY2DtfA9TNzd42jQCZQgAMbnXRpaalev3AsfLyNwx1Rb9asWdoPEGU9BhmkHHRb9AFAoM/GZcaoeNgfcEiLFy/WqcYoC4riH+DgmWTjoZnrUQ+xj0yrqalRdXV1GkxwwTE1pvmd7/kd6YqC2+koQmU4O56Fzh5OzgtsxoDJ/AMYplLCGkMTm+JtYC9pJrlixQqFgpPK565CVyZsYTeGoBTAKMc6RmkPqHR3d2sL5YEDBzTQAHL8jrUSkGHd8/0rr7yiFflYLAE3vgcIEQXheriGe3DGBtRQ9gOAgOvOnTs1gCIach+/A3imX0Bkw4YN+nqAkXv379+vmQv2GSnLeC59AbaA6L59+6yXBmVszIX+161bp52+q6urNdAChIyPf8P1YcSYM2eO1uslaYGxxttfKDYxamCB4+F4MYi2sLgsEu8plGzW7ndHgUyhAIc2AASgwTHBvd13330a6FjjiHUPPvigThOGUh8QIJErXA6uG8uWLdNAyb1sevYEgDB58mTdB9di8cSdi3u5h+vgJuEMuQ7dGBwUnCBAg8j40EMPaRJhNGAMGzdu1NwW4MK/uY7fAB3jQmYjX130e2GcgO2xY8f0OKAVNALwmAvf43sJ54oFF442SQuMNd7+bHJ6gSr2sBg4xXhZP//5z/Vp49otCpjatOkQOVjkbCTX7FAALgt6cni//vrrmuNjbbOpMc7dddddmqMiZhhuisb/A3S8Z+7dvXu35vCM9AMAYOXkL8AEt4YfG4DA8+CWPv74Y20M5DtE53feeUf3DaDAVdH3G2+8ocEUi+iTTz6pdWtwhPTHWOgD0AWM0pGlGxA1H4APay2AzdgAZjg8dPnQAizgdyy8gGCCFghrovuxCXqBKvZACIjMywbpHehFvhoMOuh9WKC2G0BqlMm2+56o/bGe4aLgzOBkADI4L8AIfRyAxkZmY5uYYaQbGkDHZud+fkfE5WDiO/4NJ/nAAw9oZT/rAqBIBFCMBe4PMRFQBGAQbTdv3qxBD1US3wMuNECI8cIl2nYXA9CYJ+v40qVLWqfHPBk/37PG+Z7nMi6u86HbC3Vi2wS9QLsTIrMIkiD6RN1DetGjsDbe6jYJwSbwKrtt9j1R+2KjAlhbtmzRXNiZM2c0J2UMGAAV/0Z8QwwGyF544QX9HfeSQAHdHxzXqVOnNBkBR34zXBh6Of4fkTaZGIok5TWmGI4S/SP9AMKI0Yi6cIqI3YCe7fbee+9FdJlovwN+fHy0UGKhTdCLa1EhwQAppKlhWVbcr5MOUDwoVhuU1DQkG+joylPXWwpViyQqmEgppVBos2kQkdLF/XLgoBsabzpUNjo0YUNnWjOGBjYt47t+/bo+WLDM8htiKo3DDE4bNw6AjznxO5w3Ih4fODoMHPQDx4bhgd9NP9AgGUdGv4jQ3gao8j39A6jGoguoci1jNeOxQV8yKdVU9qqail5dC5ekA7HTy8l7lThdkg20dear65KkgKzrxOzHaRnD6cVciaUCcotmdaiVi1qlfmWrmkaKGfmO0m6xWr8OUs5TV5uK1JEzZWr/iUp1TFLUtHXaycZq42Wmsw/YexY7+g5O4XQ0noGIwaYbT42NCseUDj1nWDpwgOCDhg4NqymGAYAL7onxcpABfB988IH+i87NNEDM6PQQOZ966ikNdjSj20Uc5MOhCDjxrESNg41nspb4N4YR7gc8EWfhOMlJiBX4zjvv1IYXdIaommz4ytYK2C2Z267uuK1ZLZ7drvj/0iI5sGJUSQQJyMbU2pGvLl0rknR0FToj05nLpfGyrYSy3trk9EZkXqT477rbG9UzD15SyxfAkvtcWtVKzZ/RqdYvb1QnJe38c9tmqA/21aomybcVykHH5+PH8jK81BFfWKDp0Od552YCwcdyvkGebbglNnG6aRNkXN5reXeHDh3S+jLA76WXXtJ6K0AG1xPESCO2GhGVvyZ/H0AJCBpjAxwd1wOChgsz+kI4NkRq6AIXhyWUe+Ewec7atWu1QQVxFlADAA8fPqx1jjREZdaAcbMBUPmEBT0A7ol7r6jPb7qiqIXrt0jQNMlLcNucdrVhZaP67FSFevatWWqP5NSMkUvTL5LEfI1pA71CqUx+15Jm9b987pwGsFTbQuESvy4ZWGF/t348WVEoJJsbC9TVpB1fbxigQWw1CnjeH4cXhgh+w9UEzpqMI2vWrNHghb4NYDPiLpwfgAP3jeoBjgsRGM7WG48OwAGi6OSIWcUybEToRx55RB+Yzz33nHrrrbc0uD3zzDPad49r8BtE7AbUGBv3YrkFVBGh6TfaqTromygU1dWTG6+o33z4oiQLDqTmH35UkWDH6sUtOuloZ9dCLe1FtVD6DZsIEpEUf+60TrXl7quhAM9MdGpNj3pk/VV1UbIpf3q80krRkaAv013vKBCPAgAFQGV0jYDMrl27NLjAsQNcP/rRjzToIXIChAAMoi/gaAq7w8EZQEO3B6jxF1cURGTDGRruj/vh6EyDYzNp2QDeX/ziFzraCTDFnQbQoz+uwYiCCA6nxzjhAHl22LZkbptweJdFh58a4Jnnk2EZDPnqoxfUcSkB2SUJhT0tQ0AvJ2cY9NDXwaHdtaw5LA2H718h4vFtc9p0CmqqJLnmKJApFACQotMhIWK+++67w0OEWzN+dN5x47ZhXFei54OhAeBD5wbnB6gCUIAdfwFaPrEawMj9gFusBhCj07PdPidcXoVweL5VWQkGgLSIuLtyoRwin0VUVgwVVGGP0xscHHajrhZrzdzpHdpSa6th+UFMRkdw9spNS5hrjgLZTAF869DlIbbygZPDzw09YSa2Atmjd9zWohBxbbViMX7ctbR5GPQAc6FDKK7HHuh5EvshywNOtht9VpYL23wzSYNrjgJZTQHE5F//+tfaIoyuD44yEy3X5iVQ/AcLrQ0uz/QJkM6TYmKmDSUdDmXPTAvo4Z+DMtJ2KxJfH5uniO3xuf4cBdJBgVhZW9LxnLB9lonhIZUyr4mei+W3rOSWL/KQf2Io620o2ThqsMPoSxnHvv5Q44pJB0zX6eg37Mt29zsKOApIGUcp/kVwgc1Gf909NmEqZK557+RuDA4Os3btUgGpqS1chfNYhGuW6Az6ds1RwFEg8yhwuaHIevQUTA79mjaURisUCoa62Ut2wffhhAMNEkZyTowNNsPHCEnBgEHhb9ccBRwFMo8C1Kk+fq5MR1fYapSNPXC8Yri7IbedUOyktdHJYIaLWyCGnrpYqsNJbDVCUo4JQQlHc81RwFEg8ygAY/L6jqkSQBDKuDo8MdRk9Q2FasfBmyUkTROsCZVwwBroyYC6zaBQ7oH4b+2q0wHEYVuPgOhbu6aoQxKakiAIOexj3P2OAo4CISnw0YEatfuQZEa24Et7TSRGQtFiYEgoz+fwiHSLSBED6ZRJf/hpjZiw+9VXH7lw09UkhQbL/OutM9S7H0/RAcmuJaYA+dLI32byrRHIjusDqYuI06ThDItTK6FJJDbAHQJPfUKbCGQn+SX90AiTohYx/ZGPzTQ8+PHyJ+U4WTrw+sfTn/xp6F0YAymUaKRKIvIgUdYYxBbGQX/cz/XpSHXk1k96KdAt+/77L8yTLEpK3bOyQZWIC0vQBmNz+XqR+oUA3o6DNbEYneCdegZhE0UifFQYeKMkCHht+1R18VqxenDNNbVK4ukIRvbTWtonSdBxuQa7fceqVENLgbph2TLkZxzj7RqAjfhOk1YIcAO4CIDHu59mqszj+Iq3P3GhhC3h/EpsJnGZhC/RAMzt27frnGsE0JsGwJFGiRRYhDMBikQAAIREDpBMk2weNPoF+OKBHiBHRplvfvOb+np80b761a+q7373uzqf4HhLgTXe1ozt8QJY331+njp4skJtvOO6WjavXTM/Kokmjvj6682F6hNJMsC+P3KmXMH0xGgZA3ojxnZDJkFmlJ0Hq3W2FCI1KiXzCmEq+PLFahg/2oSja5F8Ws2tk9Q1IQKsshNr/S1Nsm0AeKZKFhyYie0035ksH1xrKmoBLACXyWhtrjXZTAAm8x0j4V4afdEHoAhwAnh84NrM9abfeDMgsSWASpZgUqozFoD7K1/5ivoP/+E/aC7UtfFDAfYqKaJQb+09WqmqRMqrlFjcUvG3i5VSjuuxAyDJweyAGdeFyYmRXcUQIZQhwyanF/OtAG1YYC5IsgASBhBInCiJKNwcZur+ASo8jZ8X7UaaOgUASFIqkWmYGFOAF9H2t37rt7TY7Nr4pAAgxocIjfy8G5rRiZU8mG0Og4TV16fHRyhLyaiuKCbHpPoH8vTCZrGjP+Kkp3AJOf1dwZrYCxy9GdWtEtW2MHowRFqTew7wwKMfsdPo+dDbIZ7CpSF2ItJyDeIpf9H5AT40rjOhT+Y7vud9ITbTF8+ib/pBHIYrJF264RLpE/HaJMY0M+Q6At8ZN+/eWwWLtcFaSJYheHzCwcQaNcwLgNZnLxQ/FG6FujnVV8fpbep5mkSWLHCU4x999JHeTK5FUsCIqRRPideoemVSwZs0RwAY4iFVuoyeDzGSLCDo5ABDRFXuA+D48LupZWASVtIf6ZFMA+C4lswhpFECwMj8wfc0xmIyM5tccxxu3sbBx2+MA2PJv/7X/1r/zHip37B169aMTRbq1mdyCjz88MM6GzPvGZWFqYqGwYz8feiSSY2F3paD0xyMVGhLYsQKhVuhbk4+7ZFXmNz9VHfi5Keep8k7BiGc0jo2VU2Sx0SgZ+6MVVwFIIvV4NiiW7wkpuRji27xkk4GLTxEaibEWwwacHdwfqwNx/mnsssy4x4kB9YtngAYx5BAOIQ5GI2Fn+zPABwHMklNWXvck6SFctYdddBDpCJ1NqmtX375ZV0bgEVuFOg+JpyMIO73cUoBxGiAFa4Ssdm5rIzTFzk0bLwEaByMcPn8Py5NNKQLEqqSHRpPATAAaYbUWT6yN4fCrVA3p/JKAD1EW3Q/TBBdldH1UIuT0yFdVcBSGa+7Z3QowCbA3SZTc8WNDhWy8ylDOfAi9LPoe9ERs/9xeQLo+H90wT5aqKCKUDdHDc6XGdlwdEwSYsD2UsAEx1dQ3xRC9jFxd0kWUYCDztUGyaIX6mMqqFZIUY/uFywA8HyqM3xhTbwh2AQ9H9O8eQkTxFLHX7g7ZH1YXZSemVjT1PfE3IWOAo4CvimAyIsxg8a+Nx4HPjoI5cw26qAHkgN0hEDhrgJLi+UOK55zT/Dxut0ljgJZQAEkPgwcfHDDYv8TKkkpTB8tY0DP10Cw1GKpQ5x5/PHH9UQxbMD5mWpPPiY94S7hQHC6zgn32rN2wriq4aICE4SVnnogxGqvXr16ONonweRDpWW3acjwBXooMBFn8cUhFpSCJ5iv8c3CYudTps/axRBvYpyE+NRla8NVCUdl17KPAux59rf30J4/f77m6rDm4qdXV1en6/Ti1QEgJnLCFwqNL9DjlUKAt99+W4u2GDKMZz4ECFtdPVuWDMpdrNrGoRi6eGucZss8zTwAPQ48kxSB71Fsu7jb8f+mUWcBbN5DDaMV7kkwQIAhIEdJSrg/s+bHA6eX8O1Q4KNYCvsUF97QcXjE4/W0H1FHDx4Zvq9GHPYHy5QQQfLiS7wuGRbIvDARGyffY489phcBDWdf3Dni1Tkd7zRioTNfE2uLOP+d73xHR2s4Xe/4fbskGOhoPadOHTuj8gQDpk++OZeW6/vkczPxCt/Jmad6Os6ondvP+8nFlzFZVmKiExOl2jnl4RbO6lQz67pUeUniLCvtkniU9DQnL5bpbA3UxvAZiDx+V0eckRs9pwnhyboJeiY0EeaYze/PO7d8SS5QW9GjZk5h37erqTU9qrR4QCcciW4mywoZVi7Kfj9xoUyXhWiVTEtxko6EiuK1qdMbkfkgX2pWzprSpbasu6qeuLdeTa5KGl4SQQ8m/dbuOvXaR1PV6UsliVLNZN1agrshOsXEISPmZbO+E/GWuXo5PReSOD6XNbVql0gOvS9tvqjWL2+SEo7+MYpsK5eE4Xn1o2nqzZ116mpTYUYnEY1wf0GcnTutU31FsiY/uv5qSgWA4RCfEcJNr+1SP3l1jtTcKJ8w4i6xsug8iVyh8f/ELWZrA9QxbnlBL5MLW2frewg7L9RWyxe0qW//9gm9/8GBII3rZ4k0+DuPnVezp3aqv//VAsmvNyLUNlinUQOwyelF9FUjCUMfWntdPbL+WkqA5x3nPSsb1TVB/CYRc8nLNxEacadkLzHiLVxeNseiAuqvvvpqhNuSSy01/lZ6VXmv+sPfOKUBKyjgeWdbWtwv6eYbtZj7g5fm6nx7nhbKv9gm6A2Lt6D9kjntarOkiI+VNDCVV/nAXdfVAUk/DesbRYBUusv4e/BWx7Jt6kzA9WDdNqmbMn4CAQeItZp0UiYiB/GejDImXDFgd+7yMaLAkxvrBfBETRFDdxd0SJWSYf2hu6+qV6XkxCUpOeFpoaybNkFvuLp3maD0/Jmdmk211SDA4tntul7GRKh9S1geKdSNCwfWW3R8Js+dLbpmSj+A/Oc///kI8RZLtY+MG5kyBTcOocD9wpzgpWGrlUuK+U2rG9Qv3pxlDfRCsYlRExsGvRop/mMT8MxzsARN9llYyBbRXT+OAo4C/igwpbpXTa3u1q4ptlphwYBaMrdtuLsh41YoTs8m6A1zjSB9mbil2G5YgWyeIrbH5/pzFJjIFKit7BE9nl0K5AuA1lbewpIhn81QT7Ep3oZCXz+kSvsD/AxilK4h7c5rr72mPvjgA/1ErJvZHJGBt/73v/99HZ1jGp78zjF5lBachcfc3J/2uDwzpBg9ZkZhoN6+vkIzyO6eXNXRZRNPb/ZMn929oUDewqsdnS5MLPJEsd6ir6RAkDfphEuwMDprzdZTGsW1xLaRkYgsghNMY30M9PcPq9JSGbs9ZLpxYxiQm9oKdCSF7Xa5oUgX/Z4IjWBsMk4QhE0jVpGiSWSkyMZGrYSvf/3rEdbb559/XrvpOG5vfLzx6y2Fuk51udS2tqXX6+nLUyfOS2zqUAP0wvKS1kCvoLBwWNvYJmFkZy6X6lAyws9sNEJUTpwvFdAbZihtdJuxfZBqC8AzsbdsfoK2s7VRQvK2226LsN56S0Jm67yzaV7EzH+0v0bNmNylQ85sNEJStx+oiQA9cWAPZTCwKSsOx5jB4h47W6Y+2FdrLYJi58EadehMuS4EPhEaJxrRCdSO4MO/szmrNPM1czV/XX7F8bfSXxOfuvNXS6zEylMo/H3BkHNXRgQkhEJUm6AXEWAHm/vuJ1PUh5/WingSDqj2HKnScXgXJ0g0Bkvd1KFFmc8HTi+b6wGjvzNzNX+zOdZ4/MGZvxFfERXUT16bLYkDikPp98iw9MnhavXCe9N1ofCoForTsybeyqAiEvuRFeXkhVLtVNgoerj7Vl8PnHAAkXaHcHhv7KiTuNuKCZVwgI1PGn1T55Z8etSCzdZG4fBf/vKXEdZbLLpOnze+3jhS3u7PqtWg/H3i3ivqjttaFMEKfhuGi3oJPdsqDNM7u6forCsxWihOzybojdAvkhPvqIi5BAzvPVYpAchdqq6mW/vaJeL9uO+6AOXZyyVaiYlusKfPJlPq9xWM3XVwPoSeGQsm1s1sTrCK0ynGGuOy4tLjj93aC/vkrp48tUuA72pjgZo3o1PNm96pqiv6VMEkyaMZxwxxQ6RBuLsrDYWSUalMnbpYIuBH8bCYo8nszMmwprC6sL37xKpD5pRJknomEehxT5u4p7QKpzdR8+gRhkbFd2O9hRPCekvJvGxsZWVl6sknn4yw3j733HM6earj9sbfG4dJOXquXJ26VKqqJITU5NJLBHq9ck+b6PFaO+Pm0TOECKUvs8npJXwzxt/G+NxworOxKfaL7obU4NnMyQRdtgTgz5kzJyL2llRT2dqod7xs2bII6y3O2a6NbwrAwKDfv9ZsdR6hcCvUzVHT8O0+g3WOQHqqoHHC065du6ZTKZEzzjmlWl0grjNHgYygAPt+0aJFaubMmcMFvskadPLkSb3/A7TMiMiQAfuWsznV77vvPs3pbd++XYs0mzdv1llEEGdc8kilLbUYLswBgL4rW9NKsdjh8g8dOhQh3rqiQAFgYBxcis/pxo0bNaODoQ49Lr6Y/Hu8gp5vTg+QI08cAPfuu+/qhU4uNaIQstkXLci6JGPy3r171eHDh/VtgEK26vOYHymk3nrrrQjrLUDv9HlBVk3mXktlvzVr1ugwQyQ6Qg55txSESqH0Z8Zwer5BDx3euXPndHXzdevWaVaXhs4Kbs81pTc/HHFJSYkmB/+PeJCtjfkxV6/11jknZ8/bps5tVVWVPsh3794dtrTn+AM9uBaSYa5cuVJ97nOfUySQhL2Fq3Ggd3Ohs0DWrl2rsyfT4Py2bt06oUpA/vSnP9XrwnF74x/8Kioq9HvEyZ79TsghzA4qDMp8BhRvx4f11vvaEGHR56G7A/wQa6lsjrUSkYaK6BO9EYsKXWbPnq1JgRjAwsnWBhfLXL2FgbKZs83W9xhvXnDwfODeOdAXLlyoFi9erL/jMB9N0LPp8evbkAHCP/TQQ1ox/+tf/1p74kMM/NJckPmtZcPJGP3J5s2CYtvM15V/zK43DYPDHufgRrXFvt+xY4dmfEb7XY+Jywqv0yxuuDv+DXfHx4kyNxc7bD+GC6PXwjkZw0+2NlQe6HS9nJ6z3mbP28ZCi+oKsRZpDs6OdGLepLEBZuubwYrVp03Q8x0PB7iRBRh/naefflojPd+ROsnp9G6+JjInv/766xElIFOwcgVYR2N7KTrLH/7whxFJRA3nN7Yjc0+3QQEONFRYWHC3bNmiOTx0e/xNISjBfzBvjMHbBD3fijjcE1BS46aC6wqLe//+/er8+fPOMXnoJWG5ra2t1bo8GguDqBVOzGxs6DAXLFgQcfLjp5jChshG8oz7ObHH0d1xcN9+++3aiFFfX699UVNwxfLNYGUEp0cBYLKq5qgetWP71ogx5YmGMVfsMmRqIGxtIrepU6eqxx57LCIM7aWXXtLe69nYUG5/61vfihBv/8t/+S/asudUHuP7jVMHm/rXubn96uCBj/UnoomzW35ejiL3us908xnD6cV9MxT+JbNKkXxIJU0AMhkXYrV+idVrac9XLR2TVLdka+iUz4AkDvXtBDi+14cbvaNA1lCAPc6+LykaUBVl/apcqhnm543c92RS6ZHaNy3tBYqs611SY4e9n4DxyRjQG+EwCMIXThpQC2Z2qCfvq1frVzSqKVU9vl5qkxQD2XO4Sr304XR1RDImk64mTpoZX/2Nt4vgbnDiNu47/DubY5KNMctwdcbQNd7emxuv0hmUigToNixvVI+sv6pWLZKcegJ44EGiRkalekkt9cG+yer1HVPVufqSeJnSM8aQMaJ4RakkD9wsFc//xRfPqJqKYJEW1eV96uF119SGlY3qH16Zq16TRKJNrROjKBALAwvXgQMH1JUrV/Q6QQ+KzjNbGwptkqZ6IzKggWvjjwJwdv/yt07qvQ8G+G1IhDPrutVvPXJB3XNHg/rBC/PU1j2TY4m8oVztbBoyIkCPnHn3CGf3rS+dVpUizqbayMP1+5+XtFN9Oeq17dN0osGJ0PBcJ1zHNDg9LJzZ2gD1V199NcJ6m61zzfZ5/fFvnFIPrrmmxdpUGhzhnKld6g+ePq3aJa8mCUmjWigQsAl6EdU7bpvTrh67p15k+dQBz0y0sOCGelz6gt39+NAIAqRC14y/x3itE6htOD04P5M+PuMnEHCAWKkfeeSRiCwrOK+6pAMBCTnGl28QRude4dJSBTzv8KfW9KivP3FOfXqsQpieCJwLhVuhbo6i703fCmlweejxVoosb8sGu2hWh1oiQHrkdLlG/2xveK7fcccdwyUgcUyG08tW0CPZAOnFTOgZLg4HDx7UoOfa+KHA4/dc0fo7Gw1xd8aUblFxNaltIuZ6WigACCUbe0chCvdh0EN/N3dapyoSDs1WyxMCzJ3eoaZU+zOE2HruWPUTXQISMMjmtFvMF189U/6Rf7ssK2O1+lJ7brGIs7fPb1cFwvTYaiVi/V21+JZaZ8jQFUq8tQZ63uDwCnFLmVwVzHDhh0i1lb1SY8POKeLnee4aRwFHAf8UmCZFv3BLS2al9d/jTalxVl3X8C1DoBdKgAzFJkYNfhh9YUvj+eEFmXD0tYXi9wMRJkIjDI0aER988IGeLnGop06dytqp46n/ve99L0KnR/SJc0weP69cVzkUJ2SbjWAGr34wY0GvT/xt0lGykWpJMQr/2qRxxvQFyF28eHFYxCPFNrn1Tpw4kTFjtDkQRHcC0Pfs2TPcbTb7JdqkXab0ddOXNhQTNmIqRGh0eTw2bKg8rIm3onge5vTaJJqiQerW2m7XWwpVq5SImwjN1H3FVYUP6gMCtrO1mfmZ+fLXcXnj621Tp7azO9dqEAFMzvn6W44hGQV64lQ6rMSjzCOFum361PVLKBp9Uk5uIjZedjYn1TSGjIn4brNlznB6h89UqF4BKluNkLR9x6qGuxsCvVAytL3RSficGRmi7amLpergSXuZfo+dL1fHzpWpzq5Qhhtb78L14yjgKBBFAcJECR9D0guFSkP9os6iWPj+EyNwJDWv56F+bYJehBcyXNk7H9epC1cjfJZTWiiIyu98PEUdP18mmRjs6gxSGpC7yVHAUSAmBQ6cqFRv756i2iVxQJhGsoGL14rV89tmSCKCEQWxQlkzw40sclYRviQ4EO+W8JGSwn71uY31auGs9pRM2URhvClxtx/sq401+TB0dfc6CjgKWKZAh0hiL74/Xff60NqrqrayT+Kpg/F9SIonhMF58f1p6hNJOhKjhfJbswl6I1jO68KhvS3cXoMkClh9W4uaP6ND1YivHU7Lifi1bkkz0yzofuZSieLk+ORIlTaMTKQsK5bXouvOUWDUKIDh4flt07WUt3xBq5ojgQqVklpqkqSViufDRy49dILXRWd/8kKp2nO0Su0/Xqm/i9EyhtOLSVSMGqSKOXS6Qs2e2qnInkIsbaIMecTZwdJeEOJday6w6qZCeBeZW7u6ulKyDlLDgdAoihW7Zo8CNqxy9kbjegpLAUTTq02F6lMBrhmTu3RQQX4+yYNjc32orbp781SjMDcXBSxhmNLF5Njk9OLysOTJutpYqD9j3UhJ/sUvflGnacItIkgj7RGJAEj3NNqgR/p4xn7ffffFHTJZhkmvzhhNyJr5rq6ubjj1fHt7uy4yZFLSA+T4xBHbSwEiynPiM0eDRqT0pj9Tg5fvqWTH9ZSpxIcQ2lDfBKdqAIxU96aynantMX369LgWaA4j+nEteyiAuwm6fT6WWyjFvk3QCzQvYivhuNig+GNRHYniIUGBKNBD5WKeR0ESytCx0dn4fioysaEZ24oVKxSp3Ee74awM0MyaNSvuo5kPgEUpTWoQ0F5++WUNRATzU2WehoMziQsApvXr12t6kNrps88+U0ePHlWrV6/WhdhpcLW/+MUvdH9f+cpXhp+9fft2nRBg06ZNGox5n0RQvPfee5qe69atU4Acbd++fZreFILiulgN4M3WVPijvVYy7XkcaObdsw5Im0Zj7+F7yod/s8dgKCgalsQxPZQB1ibo+UZf/M2WL1+uHn30Uc1xwEXceeedetIUv0kn8AEebE4SVlKUiJJ0EDxZgzMkDIzNuXTp0mSXW/+dQ+HFF19M2i/z4TAxXNPOnTu1KA8wAdg06AvAAN7MBTrA4cGRwRlSdNuAHguUtE/0Z76jD94Ti3Pu3Ln6XcLVXb58WQMh75NCzgZkofehQ4d08SfXJhYFWB9LlizR+4zD8I033hgGPYAQyYXDl8OVTDskkwXwWFsJWsaAnu+3yQbZuHGjFoN+9atf6dP/G9/4huYOQHrEr9FoEP3ee+/VnE6yBmeDmOeao4CjgH8KAHaoVgzn5tXdGi4PSeDDDz9Uq1at0hIJ92Qd6IH4cA6UgDMlDeEwIEI2Rx34XyqpX0lNDTg7I7KbcC50fZyiNDhq8tXxG9fyPX9NsXV+N9fyPY3rzXf8v6ndwbVcw+/8NYsbjtr7PBdSlvo7Hc93Al6oUgC0RYsWRUyFNcT6gcOD20OFwjpF6kjSQkUo2BRvkw10+Hc2CNwcHNbChQs1xwe3Z6rb++4o5IUALOCQ6yMXTr6IbKM9vlSmhxi8d+/eYZEdYwMLCz2e4aBJZAAgoSNE5GTRmQQHLDr0LmauXAc48rs3fT0cOQCHyM89XM+zEFOg6eHDh7UukYZqgHfu2sSjgEmQEev9w+iwBlG7YCQzKpIjR44kI9T4Az02IZuNYt9PP/203hDol9AfjSZHMGP6NClJWSxl6pInR6iqrBCLpr2wumRvNdXfOVljiQbo9qIbJ2qsQsukpefjbQDf888/P6IPRBM+0c2kxEp1Hu6+7KcA+x09sLHqs/fRK/vIruPbfhCLijY5Pd9u13AGyPAg/Zw5czQXAfsL+I0mR7BowXxxlq7wlZF46pTJqk7cM1xzFHAUsEOBZcuW6ZIIeG1wyKLTx7BmvADsPGVkL6GsIFHd+XZ6Q5zFwof4Q/40DAT4eyEypdNymy4iun4dBRwFYlMAkRU1Fn9RJ+EJwAd1CHp94+wPx4e7FNyeD8NiqIQDNjk93/nhjaOr8SfDtYFJv/vuuxHKcreQHAUcBcY3BXBnYn/jKQGY3X333dpoAWeHhEfDpQVQxIcW0RY3tiTNN4OVbvHWd8UeQA85Hv8wODscWrdu3eq4vGSv2v3uKDDOKAA3B5hhqUWHh5ELB3pADt9NfGRxhkfMxdC2a9cuRenP8QJ6vjk9dHrbtm3Tn3HVfGstx9Ws3GAdBdJGgWT7HGaHT8CWMeJtwoHgFaKDjYfsLvHML8O4Iv/Q4clpBJqB/gHf/aNruDHo3C4CLk53+QSngN73nmJBlvZ9xoBeXKMIVZKWzG1TG6Xy+UIp2l1V1he3qtnAQK5qkToYpyWt1M6DIvtL1tR0Fffu7esV0APIkrv9YFX2YUqf4EvcTd9R4BYFykv61PrlzWrNsiY1U8o4VkgR8DxJLzWy3Swkdl0yKp24UKZ2HKhRn50qT1RkKGNAb4RRJFdgfYGA3NceP6c2rGgUoBvUCQVv+gLHY+Fucnfk4Xri3quSU6tC/fiVuZKaqlxAJ5R7Tqj1mEaGM9S43M2OAplIgfuEwfn6E+fU3OmduhzsTY4vwb6X1FILJN/m2mXN6smNV9SOgzXqhy/NUfUNRbGmF2o72rTejojaXzq/VX3z82fVHVKh3H8d3JsicJ7wjZPUgLpzSbOqkASE331uns6i6tLFZ+ISd2NyFLhFgc1rrql/8YUzauaUbuHsfOLTkAgsRSQl52av2nzXNZEIe9V/+elidU3y8kW1UK52oW6OGkhEIvuZU7rUlnXXAgLeyKUDd7hIUs0/tqFezZ95M3bUNUcBR4HMpAD7/muPnw8GeFFTgSMsLhpQKxa26r5iRIkm10clII9N0BuGYwaJ7u6+VQ0BOLz4o8yX02Ld8iatFwQEXXMUcBTITAo8dk+9mhGEw4szDSThctEBrlnarBbPHpF1KZSeyx7o5eQMc3qVpX26Hsbkat+ue0nfYIX0uUiAtLbSXp+FBYUqR/yG/DSSEvhJNuqnL3eNo0A2UiBXRNR7VjZKLHsoO8MwaWCeKsXouWbpzaSjnpYhnN7g4LB+sFLqYEyfLPJ8wCpIiRYCBKDPmoqISpOh1k6BJBrwk2GFhxAuM2lS8sQEoQbkbnYUGMcUqKvpVZOreq3u+8KCAbV4zi1Obyg23x+nEoeWoW6Oh74gfZmwprYbfdo6RRibyQPnZ5z9Eh7TL17lrjkKOArEpgCGB1RRNlu+ME6UkTRtKAtThoi3npnicjKYhqLcpGSz6awcpAKXpnIoUttcCq4vR4HMo0A6PCsIULghhb+jWqidaI3T6+vvH5azqVXZJg7Gtht9dsaug5nSo/Lz8nUCUz+N63JzrJHLzyPdNY4C44oCjVLf2rYvLf1db7nlGDKkV/e3aeNQz9ouzhkcHOZBm2Tyl6Tu5cBIhA71Ei9dL9Z1Ma21oKQLer21gbqOHAUynwLUuL54vUhR8tVWI1Lj2NlbNWyGmJRQD7AGevmTJg0ntu/oztNhZBTrttVwUKTyeZMQ1jVHAUeBzKMAYPfhvlrVbUkaQ1yGe/z4cLXVyVoDPRnVzQoy0pDBTwhAffCpHQJATMJSDp8pVxQQds1RwFEgMymwbc9kdexcmeq1sE9b2/PVe3snq3NXRjBPoTJ/2ESQCAe6a82FCgIAfGH0cL3C3u46VKPe2jVFXRbW2TVHAUeBzKXARVFr/WrrDHX0jACf7N1UGsZKROVtAnivbZ8aS00WyhHQprUhAn3h9k5dLFXPvjVTT2DVohY1o65blRX7c2XBGALIfXaqQr25q06IaJ/Lu3T5iq7J6afYd5NU+mpublG1k12djFQWsrtn4lDgo/212tFh0+rrasm8djWtplsVFiRnzsCM9q484exK1CdHqtW7H08W20BMRid5ZwnIbRP0RjwGUfTYuXJ1VfRxqxZVqkUSTlJb2asK8mXMCVSRfXJCAJSA5qfHK8V6UxDLbB16FZ2Q8oVzpPRcWVnyYt/1166rq1JecWFU7c7Qg3AdOApkGQWwuCKWnr1corMlzZvRqSpK+8WHL/6+x8WtpzdXXZP0UkfFcPHZyQrV1hkXnkI5A9oEvZgwBquKNRdRF0IAeAQTJ2ooQrHa2PTJi/W8vr5+AdNBX2UnBwZcPr0s25tuOmmmwFnh2PgQ6VkkkRWTZO/H8xCDy2PPA3w+mq+L4vWTdtAzD8a/hipIVDHHqxrTMyElFPs11ZEoFO0tAUkufXLrU3B6NEtD+iC6u8RRwFHAJwV0UEFOmeSLK1CdXV26+Lxp1MuhjkZxSZEakBoZPb0dfnrNGNBLOFjAjpqWc+fO1UAGCFIU6KWXXlKLFy/WFZIoEE39DBqEWLt2rTp//rwuXm2+90MRv9dQqIQK7CUlJUlvqa+vd8CblEruAkeBSAoAapR3XbBggS4GdPjwYV35kAazQ5U0fqN4EN8fOXJEsdeStFDMWqibowaW0GEQY8Ei0YdRDu7kyZMa9Ei/DsdXUVGh7rnnHvXpp5/qUwBOECCkADgEsFkL19TehNBwkNTd9ROVwVgpTI7hw8/1yd6a+91RYCJQgD2zfv16tXDhQl3yEWAzoDdP9OmbN29WBQUFqrW1VTM506ZNUy+++GKyUrChcCvUzUFAj2sBjkuXLqlf/OIXEbdS9u3BBx/UgMjkAT7+zV/+33ZtCgD4qaeeCtyvAegzZ85MhPXq5ugoEJoCK1eu1PsMiQrmxjT2EgDH37feekv/Tk3cNWvWaICkLm6CFgq3Qt0cBPSYHKwuYi4sLdwbnBZ6PE4AdHvLli3T7C2c3uTJk9U1sZZyjc0GZweYUmNzKGNDoO5JMdXR4UvvEKhfd7GjQDZS4JVXXtGgt2nTJl3s2zQkPdRKqLqam5u1+oq/7K9Zs2YlA71Q+fRsgl5C5aIuoSgazalTp6pvfetbGuiOHj2qXnvtNQ1sFy9e1CItrC7XVFZWqo8//lgTwmYDsHbu3GmzS9eXo4CjQBwKxFNNAYTs7RUrVqi77rprGOwAPR/qo4wxZCTU6TU2NmqxlknNmDFDPfDAA1rWJ6fd66+/rj777DNd6RylJxwf3BicntfS41aWo4CjQPZQAAPl9OnT1R133KFFWxgjmBIwIUkLlXDAJqfny2EQ5D937px67rnn1JIlSzRXB7IfP35ctUjUA5PnO5SdPiafjDjud0cBR4EMpcCFCxfUs88+q0eH6gvwQwwGB5I0X1gTr49QbGJUpwkHYnR6TA5DwuzZs7UFFxbX6NauXr2qdXk1NZJcQEzbGDFccxRwFBi/FGCPs+f568UA/m3+H+nvtttu04CHRLh///5kEw4FejY5vYRhFvjhPfzwwwqHY6w4WG4wWsDxmXZKwsJwa0G5iauKE22TvXv3u6NAZlPg0Ucf1RIdOnqjr1+3bp368MMPNRBu3LhRGy5ghNj/77//vh8XtfEBeoi1cG5MHPZ127Zt6pNPPol4Y1hW4fK4zgeLm9Lbhrg4RXLKMCasuLZdYugbEZ05YLBJxUqc0uTcTVlHAfxK8Xhg38AEoPOKtV6Nrhz/02PHjmnXMBpgQx9mDbI2+TcfPCdgMNLZUGUBbuw782w8NQgMYMz47HINgIcrmM+9mDEJBxJyegDA22+/rQkAwZlctGUHs/Wbb76pf7fpkOx9qQ899JA+XSA4CwnLMQR/+eWX/XiCJ10fzA8u9s///M/V//gf/0O/VAd6ScnmLohDAYx7OPAap3jWK14PcESABZFL6MHvu+8+LUGx/gAy1jMRTn/0R3+kgQ8RE+8J85f994//+I9ajZTOxljxwfM2s//5DmMljbH5BDwuz5jUUglpVzipX82f2aLmTTcZF2JzqGRoaOvMUxeuFksi0nLVKVmYbSYeMLqEv/u7v9On5pNPPqnDYPAON5xZ2EXAwjKmdx/m97CPc/dnOQUAsa1bt+qIpTvvvFM78AJ+hGji7QDgIR39+Mc/1pILqiTWMuDy93//9xoIkW6++c1vKgIB0JlhJOTadLey4m5drHuGlG8tKR6IWx6S3HtNbQXqvGRbJ7tSX39CA23GgF5Mh0FSymxY0aievO+K1K3t0llWyLoQL9sCACeJT3SGZFLEv7GzTr0nGVpIG22jGdaeRcGH2N9vfOMbevEQGwiHuWHDBu0+g/4R7hOxm8XCwuJkxbeI05XfWXy428Ch4nz5p3/6p3qRsai+9rWv6b9wlD/4wQ+0L6JLnGDjLU6cPox/K+sMkRWuDb03Ii8Hq9GVoQMHBFlfBvCgklETAZxwUhz0GA9tO/1Hv5EaSSH3xfsvqw0rG1St1Ko2GVYS7Xtq6nRLlhVSUr360TSdgDhOoaFQMrlNQ8YI0Kur7lGP31Ovntp0WYp098rEg+kfa+WeabXdapYkH31+23R9CthohvsC6Ah/Q4+I+ZwFQfwfgAbA7d69WytZOV0BP8QFEibcf//9ejEhQhBdAkCyqN577z0dN4gF+nOf+5xW1iKC8Dz0GE7MtfH2Jl4fRjpBxMWHlcMVHzejk2ZdIang+8qaG2sD4EzZr9/60mmdOLiyrC9w8e/JApjTanvUnGmd6udvzI7F9WWMTi8CQMulMPc9qxrVFx+4pKuep9LypHAwSUcfXV8vSUXzNfo3WKiGxiL6kz/5E82BcWICeOgWAC6cJTkR9+7dqw4dOqRPVxYZYMd1LC7A8dVXX1VXrlxRDQ0NOk4YERmdJToSnK/h9liY6DM4fVmgowV6cADMA/Dl3yis8XuMTt2VyjuZCPcgHkI/wqQ47HjPuFKkW+kfj7YYAdBF33vvvXoNoScD3Pg36xPnfg5ixFwspRgyEIfHQqogb943njyj1i5rUqVF/XElukTrqGDSDQ14j6y/KtJegaSMnxZ9ecY4J0dwevNndqiH14rfXYqA550lp8XDd18THV+ZapQCQWF1fCwWxFEWBSEwWFpJewXLj+4DUAPMTFYIFj2gB+CxGQAPRFXAEY6QDQG3SL9sDANw5t8BFLShMQXwJdKFOQHoxkoNZ3rw4EH9SZdlPPTgx7gDDjeMXAS8o8bgwODdoaLAsoi3ASAz2mDCOkKFwvrEgZf/Z83RGBsHNOPCgLZlyxadpom5vPDCC6N20JpXt/GOBnXn0paUAc/0k5c7KHrALvXEvfVqp+x59H2eFsq/2J54m5MzXJuxuHBALZzVoW6ba09ROntql1oyp00dPl2uWtrDlYEEnIgAQZELoH3xi1/UnBonJL8ZZ0qIbLgzFjqLzehYvEDmtUZxjxFHRnsPE7vMoiedD1ys14iCKA/nB6gT02w2zWiPMVOfB13IvAOnBOANFZXWwzUJMAATVBgA4Ghx7TyftcY6BfiMawpiLgcY4wAMGRPcPAc282AtjEWDOaks7UuJw4seL+ow9v1dS5vV27vrvD+H4vRCIWbEIAcHh6G4qrxPzZHBAn62GorQOdO6rHCOZkwsJnyYAAgawMYC4pQ0GSEAEPR2JuEoCwvxB86QhugBl2cyr7AIAVP6giv0bh5btIjVD1wdrg2I2sYnynsdQM640VmiCGfzuHaLAhivli9frt979Dvj8AAUeefkeOR9j0VD+sC9ivVq3qE3GzmiOBLIWL1bjJYwO+xVWw0MQTdo2tBhEwq3bK78YdCj4ll1eWp6vETEqhbDBrrCMI0FzKJ+4okndDdwPzREBLifs2fPak6JpKYsLDgkFhnuAuj9sJBxyj722GP6r/GN2rdvn+7HBE0j9mIQYYMAQuj7WLTpEo0QyRDBky14xgMwom80PlJh6Gn8LqM5H8YRzS1xyDB/vveO03DKsX5jbNwXS0VgONmwXBfvh3dl1AHx6MF1cFDoaXmXo9GM1MBfaMD6g6vjIGb9oXfkLyoXrjHOyKzX6GZCwdI17slVPZrRiWehTeW5+cLtzZhyq7rs0LvOmNRSwwPBAGET7Q2xYHeR9cM0Fo0RE1hEiLlwbyxk9CP85XuAAWsZ4IXimBOW77HGoiQGYABM7nnnnXd0P6YhBmPFhXOgD7Mpw27ORPNGPIdrTdZY+AA54Jcq6AFYiIHET7Pp2HCoBqAjlkM2HxZvaGgaIIGRB9cKaAfHaRo05J2wmXEDIlzR2/Arw8kbujJHAJ6DiWfDmfMbRqZUSgowVhPv7cen0lwLHdN1gHnnDt1YfyaFOhIHYi204PkmFx36PNYXemhy2Jm8lN41aVKxp8vxnzKPOTnh9ucIoFaDCsOGaZnG6Q2znPjY4W9ju1EpKYnTYtJHAl5wdCxwk8DQpKjnZkCOrK2AoxFbAQezUDACwNXBKfE7i4wN520sRpTeLFTED/OcdIIeYOFn0zJOwAKuJtUGVwRoIb7DBQNaABn6LujC/AEmYixNg4NGL0VSCYwsiJOmQVNcergGfZr3N67hNwAROhrnXDgd/CqhP+D60UcfaXAI6q4BzYLQzlj8Af6gz0qF3hwk0McAuuH2AD8An+9Zz6gujH6P9Ri91hgrFl9AMl1W6HYJKqCUo812Q/rrkFq4pg2t8Yzh9IbhuLUjX+pXFtqcu+7ruvTZ0pGcm0n0YHRvyTIfs2lZSPGU/Sy8RL+b50eDoXWCeDqMNlwkehb6PT6pNMR5smHAwRrxFWBHxGJzQhc2ZDoa4ATYAnJm/AA4Iid6VMDR1F8I8nw/xd69/YWhX5BxcS0HSnSKtejvOJSTce3GvSXo84Nc39BSqNj75aLby7XE8fUKA+X1zx0CvVDIao8dy8kZVuJhXaVKeVgrq5fgXVIL98ylEtUgxYBdG0kBv1wed6ZqXeY+xCg43FjKfrg9b0pw2++JZwN80YBt4p3hdlJpQWgXhn6pjG083UPI6EEp0t3bFwqTIqZMn3uPVg1/F/RdxaKfPdAbHBwGPeLoTpwvU58eqwztU2cGffRsmToilc/bu2zaXsbTksqMsQJq8RYeXJcfvWKqM4GjjGcNh1sLyrGlOg53X3wKvClho4SPUrw7bOvuzVNHzpSrg6duFRQa6jOUW4g90FPqlolFRgZL+vbHU9RJCR4O60x8Qfp6a1edDkR2bWwpkMgFx8YpnGh2iayP6X722FJ9/Dz90+OV6l3Z901tpLNKfdw3GadS9eL701V75whGJ5QLh022KQJ9EUf3HatSJUUD6ilJNjBvRod4aQcDaJD+3JVixemx44Dk2RN9QaqNTWGSl8bbIOiiUg03YkMiemEZjdfQu6BIHs0IjVTp5e4bGwpgoMGYE2uNYkxjjYZxlyGqCANQrIaBA71omIid/oFc9dy2GcLxD+pEIzOnSMINj/U1GVVJNgLIweG9KYzOJ4dvibaee4MBSdRDU0eRkaMfgevNgvbvfjJF1TcUqQfuuq7j6UrFh+9m4oH4x0C/KC87BTQvXitWH+yrVZweMdA+Gf0ifmcR8cLxz4unxCfBANlUUqnAhliHGwcJDOI1XF3wB0x3hotAhHEXZxQFCCFkHcXiqDHAsT6xVKfaiOHF6h6rAXbk6Yvl4xfkecTH/+Ors9VZ0cGvkRhckgfgv4crW7x9j9UXrw8YGyS692Xffyb6Qay3MVoo72eboBeTLl2iiPzkSJXaf6JCTa3pkfRS3QJ84sCYAPQ6uvPV1cZCdfl6keoRNtdWQ+eDsjse6CXSGSUbA6CKG0giZTq/j1aERrLxut8zkwJII6yhWOsECz160zAN5+V4a5RnxuMCgz4TJuXV7VPVVkkLN0uis8icUigcXzw/PtJKoa+/Inv+iuz9JDrBEIKzUmkHPUMsUJzEoHxccxRwFJgYFEDNdfxcmTKu+zAHMB+AK65huN+k4DcYykpiE/QSoq9JeGhCfZg8kyZWkEBuTjF0XsbLnes5kRAFYetHw/t9PC/DdDo+j2e6pGvsjt7BKQvYofdGzYTuEsdqggVwSk/mOxv1tPEBerDVJNa8/fbbddgSIiYI/5/+03/SucDQY5Da2pR9RO/w5S9/WWcE4ZOqHswEi5sTJtGrAmgB5VRECE6uZO4axpufMRBJYDMcKIhxxMTABl+22XlHUE4D+tkEPdadcbdJ5DTOGmaNpbI+zZtL1j9rFEMKc7RZ1IqxE6WDTpFQPpzJ+Y5wwu3bt2tdd4AWSuc1apweiwRkJ0b1+9//fsT8mDAhSybsC4IDjugYyBOWKuDxEEDs8ccf10BL+BNAE49rxPJKfj1edtDGYuL0SrSB+N0E2+/cuTOl6IF44+KwMIVfko2d+aUyx2T9jsffWZesDb8gxtpkHdsMQYPz4dDn/cEJxUuwAH1ZQ+T8S7WxH+IltGVtEu2ChIWFmHBLaGOj8VwyjMMc/PrXvx6ubQuAp+BulDGg54vlNAp/FhkLhxdNED/EBXAQcQE5wpwwz0eH4AR9ARCZAHZeIM8kNjReY2xkPfa7AWL1Q/B7vMaiIv082Vtg61MJmYrXNyIC9EvGbTI33HJSsVAHpf14uB56oGJhncVzFfHOgzUJ7WyqW4g1BmgAU/ZBIhA2wJQqbdlfxD/HW+PsF8YCN4b7iq1qaaxNElRgHSYjucnCAwYEkVKG5h2KWQt1cxThk4IeL4yJ//7v/74WY9966y39AlhAAACnmGHf4frIvGHE3VRfMn2ziDKJs2E8NkVbaEPmDfLpwc0mshBDBwASurt2kwKADdIG6cQSHRqsJQ41m4cVz4erSjUWOh3v0MSeh5GwoseF2GzqWSNRwdmyx5k72V9IRhGghcKtUGxi1CAT9sVmY8GQCQOiEiT+L//lv9QZi+GwSOkEaw9xOPnQcfCdLfY6AEHH5aVwKhQqSlTWj9Odzc3pbXLXAZBBPslEERPXG+s6vosVVeG9JxZgJ+rTvCzTd5C5eK+lfABgFo+Dg3YkkMCHzR0YwbeIsdhCc9xyTD5AMvag1wvYQoFeqJuDcHqcGhgkSLnEAiWG8y//8i91xg5ETnRc/BvdHkQA7GzqTQISdVxeDphRwJmSluiJ2KhsYkQJOEucT0nNtHLlypREeGMUQvSJBWpY4amtygHHNYiLpvFvFroRI72+Ytz3m7/5mzoxK4detB/Z5z//eV3pCz/KWAkHeAaGsq985Su6jnEqjfkYQxbjMcYKYwDbtm2bLhcaK21TKs+baPew/+Fmeb9IJeRfxIBJJuoUWihmbdRAj4mxCY0ugUXlFfH4N6wuOjUWPRYdx+UFWw7QFl0hhwsirJfe0fQP1vOtqw3XFe9+80yeHw2M5rdYfXh/g8P3tkT3xbou1blxX6yxoZLZsWOHBjyburww4xxv95JbEiYGpobD11QJTHEeGRORkXAgnNKItPzlJMU6i6WTLK9mIaFQJl8a1yAKj0YF9hSJnrG3mTof6KmSiaIZO4kMGxicK/R0gJf6iwHkODwAPThyw/FD2xTWacYkHEg4EIAM0QqrLFweaP/Tn/5UW2sN94eFFZM54BfEjSD1V5H4Tk4mFKyMx6Tlhj1HJ4EfIS/RFBVK1xhS6TeM9TmV52X7PZlKT8YFeJDlm3VqVELsNdYoKg5yEKYAKtZfKZLcBx98oPWmMDwYMYx1GHE3YAtVgMemeJsQ9HCTeP7557XehJdldEze0xMW+Gc/+5k+UcdStOVloPAnbTygbMzqjIsFZHQT6JfIGGzqzAZ8ce5yR4GUKADTgP8qIje6MayiSE1GD4mxwKxRrPkwG34KH6U0mAA3AdAYMnFRMzWFDRcdoBsuzRjQS5ju5SbINahyybJSJhXNSiSbfEVEKcub075xo121S5KCm2V0k3rBBKRVcs6OTCsYVeDuEK8TuZYA5KYeKWI5yvZM4fw4WDLhhLf6glxnWu9NphX0thzOGAgSid34FaKLRIrCX/W2224b9TVKailSyOtMKzld8hZbb73JoVB8at+0SY2NTkk2QvKBJC1jxNuY48yV6mWkltm0+rpasbBV1UgZx3xJMROvTByJBwcGcnQtjMOSU+u9vZMVSUT75bt0NmL/3n33Xb2gcEnwE5rEycopy72Iv3CFWBrTmTI9nTRwfcemQKYcHnB3FF8C8FAP+dExso4BPg5wABPgM3rzdL5v9vfyBa1qw8pGddvsds3oUMkw3r4njx6JQ69LOQjSw2+X/JnUxInTMsaQMaJiT5GUhFu1uEU98+BFXQS4WoqA+y0NCcgtmdum7rytWT3/3nT18aHqtKWKh8XGTwtxIZXatICfOYERhb/61a9aS9GTzoXp+vZHgUzQ6aG3Ix/jnj17UnLYB/yQXl577TUtAaxZs0YbDNPRCqTY99ObL6tNd15XsyWtVEVJ31AuvcRPg+EB+JbNa1Orb2tRL0jWZEpO2G42dXoRFXvg5kD6rz1+Tv62+QY7M0Hur5UcXFVlffqUIL/Wzs9qFGUgbTYWNEkZ4fBSATwzFvrhNEUXiMvNU0895cRLmy9qAvdlDlR8XMPqupFiKDyPXyP6aNvqGDi5z99/WT216bKaJVmTbyYO9de4l9q5M6Z0q+qKPp11nXycxyQ1VVQLBQKhbo4aSEQO6pl1Xerhu6+mBHjefiHaIuESH1l/Vc2b3uGPegGuwjE6LOB5gQ9Rl/jCkH5IAWbgLs1mCiDCEqYFhxcW8AydEJNZo+mILLltTpt64t76wIAX/Q7R/90hUuIXH7gci2EKVQfWHujl5Azzygao1i1vCszhxVrA6AVXi5i7VMTdooJQ6fEjukcsRaSF7bcVCwvHhw6FuGI/esFs3rBubuEpAEARg56srm2QJxkgJeORzfhaxvDw3dd0XYwgHF68sZcU9et9v2Rue/QlGQJ6g4PDeawrSvvUXOHKJleFsixHTLRCrD8LZnaqGhF5bTV8hjD5205GwKJioQKmfpTNtubj+kkPBaIjW9LzlJG98lwkBhz1U8hEknCYuI+wRrEA22pYadcsbdYiqo2GuAuWUGfDK03Jnopr4fDzXHucnif1fFVZv7bYxsuH72dgsa6ZWiuyvhhDbDXEBr9WsKDPNIvKFgcZ9PnuensUSBZ6Z+9JkT2hKsHdBMkhHY2QRW+28rDPqBXPjNqqHm2ltdWoq7FAKil6QU/8EEPhVqiboyY23FehiKCwprYbJSSxCNtqsPe2uTzv2EgAYPuE9jv3TLA4+h2ruy42BQAkOLF0rSHcrdDrhc1ZaUZfKQxJnm9EyZPbkl8MgFaV38KSoXUdyn8t+VP9r8jhgeBzY6PCefSjdb+WDhHEThyL06l345RO14JN9loyxbcs2Tjd7/EpgPO7LeNFrKeYhLIB61PEHTD+tQmKHEbeB1rEc9rzXCmefRHOyjbWtU3QGx5qp5Ryw7nYdmtpn6Q6ujghwjdON4LI08kRoSRO9zPCU8L1kKkUYI2mUxJh3rhZ2Urh1tBaoHqk6iH+dknboBgk+SRp+OtSDta0zAK9nJzhGTQLOF2UUo+9QgBbjdAUykc2tITSYQ4PZzQqrAGoAF86gTUefcfimbbedab1M1aGDA7MdEoi0BlQtfWMptZJOnpKc3yWWrf45R46XZ6hoDc4OCx4dwinR5Xy81fCFSb20g20P36+TAGoNlq84ig2+vb2MVrPsT1u19/YU2A0qtbZfMbgYI4OG+2Q+FkbDfC82lik9hypiu4ulGLfHivmyXwAe3taQA8CtHaEJ0CneGV/8GmtOnaW0nT2ThEbLyZT+7AhBmTq3Ny4MpcC2/ZM1jHzPRJOFqaBIY0iLuvYe5HwopofATru48ONLLLbCF+SaxI4vG1PrR40bK8vOT/GMAHN3RJ3+87uOnXp+ojJh6Gru9dRwFHAMgUaWgrUz9+YpQ6erJCMKXkp7XvN4TUVakbnxfenxRphKE4vPBt2a0gjtJJnLpeqn7w2WzW3TdLZFoijxeUkmbc2k+akaOvM16ztixJ4fOZySUoEtPxOXXeOAo4CSShAlpQ+2b9Pb76kFs9pFwfjfoW/HZFV8ZrJrtTVm6euCeCRZYV9j/EyRssY0BsxNiZy6Vqx+tHLc9XbwqnduaRZZ10ggUBuThwCiF6gTSy0l4WrI8PC6UslqlsI4VowCjhDRjB6uavtUuDgqQp14kKpun1+m048QmBBcSFJeGPv+/6BXFGFTVLnrhSr/ccr1VmxB6QqHSabiU1OL66yjXQxGDb4uJZeCpAxl3J7IZ3W0zvIcda7oSl/x8rvcpyRTA8XZmWPcH18LLdQin2boBdoXmzKkpKS4ZqrOAvjL+T82gKRMeJiNiVlFlevXq1wbLXldJr6iLLjTupNUNeB6AUc2h3wpf5eSRPPocxfGhIJe55PgBYKt0LdHDVI3+gL4FGw5Hd/93c18FETlQ1K2UeyF9sKiwlAxKy4lEIwJDBduHBhSokms4IIaZgE65U6KIDfG2+8octsOvVBcEJDxyVLlqj77rtPFy0C+NjrFAyCrgFaKH3XmIAei+f3fu/3dHZhEiNSNX7p0qUa+EZzMWWTWwfJIJ955hldDJt5jSYdAyzWcX0pJUyJhyVJhc3sJOOaKAEGD6OzceNGNWXKFPXhhx/q2sx8l0Kp11DOuqMOenB29957r+bwfvSjH+m0OWxQU5w6AA1DXWrY61Cd+LiZ54wGuK5cuVIDntPl+XgpIS4B+EhUMRqgh7oi3e9zNJ5hyE1FNko/krIeZod9T/nHFA7oUGFZNv30fC2lSZMmaaTnxPSKCSlM3Nfz4l1E8Z50LyjADtF9NEAPcYEF7Fp6KUApAIrVp3vtMIvi4mKt/0png/mwnTI+3niZC2VevbWuU9z3EaUpgtJn1Dk9FgtAgDKYf3/961/XSmIaqZh+9atfpTWzhCEQojUvIZ2iIIVXAPnRAD1UBqPxnKALLNuuZ82ydnivAZXvgUmRTaDHXABYU+f2iSeeUA8++KCmCTq9F154IQh9QuGWTU7PlyEDKy26OxYNwAfI/cf/+B+14n00ORUAYvbs2Wk95ebPnz9qcxotMTrIyszWawG+0eD04Cop4JOuxh6gGPholCwF7Ei+AaPBobFt2zb185//XFHlLQVahsKtUDen8jIAPSw2vEwsOSgxca8g00OKrG4qw9D3oJ/hBaSrLV++fNg0n65nmH4dl5duCt/qf7QyKQNIqILSxQygA6b/dIvQUI69DZOD4YLnAoAYhFLkljMmIiN5ciyZPJOl+hgiLWUSAT5eKiBIqbvRbIASLjJwmbYBFzDFuDBaBpPRpNtEe5btteGXfujakEbq6uoU9VxsNw79yZMnj5pa5MyZM2rOnDlarOXZiLvTp0/Xer6ALVRadpucni/QA+3JKPzss8/qCmSAHh+AB6uYrdxefojIiXPHHXdoHaPNBrt+zz33aEuV48BsUnZi9cXaYW/gd5mCCJiQWOibOZTh9EarobOnYDl7HdUPgIeqK4UaIKEK5YRSCEYRyzf6AmxHjx7VkzeKfgCQydvK4urnRcJhAk5UnOJjo4gPC5XT86GHHtJzc81RIAwFOJhXrFihzp07pz82Gmv0rrvu0sAzWpZbxo2UB/AR1YJhg8aeQ8wN2HxjTax+bYJeIDmbyaLEHOvGSbdlyxatW6RkYxhRhsUEy/6FL3xB6y4clzfWb3f8P5+DGcd9/AKN/jvsrG677Ta1YcMGhaFktBsGDQuiui+pMt7cbIJeXOstaWVmSXaVpfPa1NSaHsm2QJaV2EMiBwN5uBqaC9Wxc2U6pVRXT/r8z1hUy5Yt01wnBbo5hVKpVQvAYQV79NFHdeyrbXEk6OIMA95Bn5Xt149VunhDV9bV2rVrtQGQSIbm5uaUSQ539/DDD+swsHRLIiVSvfA2SS21cFaHqpbykIWTxE0tzr6nHES7ZFyvbyhUR8+WS5aVYmFA4kJKIAYrmlg2QW9EXxQ7mlbTrTavuabukiLA1MItl+K9BfmkmIn/3sjKAgFIEb//RKV65+Mp6rzk3k9HhTVGgdEBdp9FgCmd6JAgukWAE2UzIi2L07DuKa9Md6OjQBQF4MqIWcXSSox6UG6JQxjD3f33368P+XR6LTB0GJyH1l5TS+a2qTphdCjfmp8Xf9+zt8mhSXop6mx8Ink0t34yRTVJLs4YLWNAb8ToZtV1qc9vuqw233VN8mn5z6LACVElNTS5f+70TjVZCgj/eusMdfJCWdpybHGa3nnnnTqofP/+/br6O57jiTJqsJCwOrOYVq1apRcT4u1YNC9n57i89L6BseD8WGuoYgjhxEB24MABZYrVJ5otEsiMGTO0wQ7DBRxeuvV45M/78pYLau2yZlVW3O+n0qOeAubE2speybnZqeZJge+q8l71z+/OVK0jE4mGShdvk9OLAL0aYWc33tGgHll/VfHvVBtE2HzXdZ19uU1Sx9dLoZB0NTg0AAyuDYsZOsdLly5pAwtKWLg/XFAANsAO69OsWbPUggUL9L/HUoc3Fn6O6XoPmd4vB+FYpJdifWHYWLNmjV536ObQQ6OSwRiA+IuuHG6QNQp3SKox3F5wEcFLId1ql5qKPvUbD11UG1Y0iRorNdVbft6gmikMz2MbrgqnV6CeE4bHZrMHejk5w4o3RNf5MzrVA8LhhQE8M1EyLW9a3aBl/eui60P+T1djYQF6nKr4EsLtAXosKAN6gCMcIdcBfmMJdoYO6HkMh5cJ40nX+xmLfr2cM2vAgMtYjIVnGv89ODh00fi58deUjAT0WKNwhBjUTLjlaIx3/YpGtUZUWakCnhkjur8p1T3qkXVX1Q5JHX+lwR6zYw/0BgeHQY8JL5jZoRbKx1bDELJodoc6IDq+OHK+rUfpfoxhYjRCdGwMnOQNZLFIt3LaxljHWx/eQwQHeg6YVIxdtueNLhnOj08mNJidB0V/X1qcGocXPQc4vhlTuqXMRIt69SN7oGfTOXkY9KqH9HGFUgTIVsuToiLI+uj3XBtJAUAPcdzV2U3f6sCHFAf6oEaE9I0os3quECPlfGF0MFjYakUFA2r5wtbh7oa47lCinj1OT6lh0CsV5SVKSH+N8YO9yU8HwBRR17WRFMCH6/3339chfaQ+cs0uBfAvO3bsmDYgECvu2kgKTKnCLSWxZ8bwXTlD0DOYeD9Pyh9U06WokGlDHHbGGDKGQY9Sb7CmvluOgN5gctDLkxMkURk538/L0gsPHTqk9XroGYO43GQpOaxNC1rCSePOBDedCaKttclZ7GhSEle0yEcZuEgMelRPo9+oForzscnpDYvK+Nl1+nYoFnAc9BdK19mdr3pSKAeZbotV0HWTrvEAeAAfDqhY7pxBI+ibiX098aG7d+9Wp0+fttNhVC8mLVgmuRqlklG5VepUSxIlf23Qn5oKo6W39u3QmvYHGHFGYg30cnJzh9GXQeJYTN3KRE7I/qhz66qrTQXadSVoMwlLWVyJfJTQh/FJ5STnZdB/IkOC6T/di9u4rzjQC7pSYl/P+kllTfh9Ou8JCyvrg/UJ4MRaI3zHNWG4eFxZ4iXOpX/6Zg2nYhCjSDd7n+LetiQyGKizEpVl2lB8vF/dWcxXYA30Bvr6bpg8Y80yccLHIABOxjYaoWlnLpWqhpZgmaJ5iTgat7VJCJzkJ8M5Mx4YoKAmAwz6m6CNhYoLAf3Ha4hGPMMkWwj6DL/XpxtU/Y7DXeePAiS7AOx4bzi442oS6x1iSMEvL4VUTMMDWbRokXZnidU/655oJFy0cNUKqrsEoPYeq9QRGGFdVhgwTFO7cI97j1Xp8TNm9rEcQqFAxRroSaqa0xr0ZHADAzlS2LtMfXy4Wpuw84Lo92KsE0JUDp6s0H56QeNwEU1+/OMfa6dMQsQSpekxepugL5shE9ZDpSccleM1wHfHjh2pVH/yt3s8VzngC0yyMbsBlQQf2je+8Y24NTgAPaIwiBFPtbE+cVaOdfADelQm3LlzZ6rdqzd3TlV3iYsJ0VRhuT2KhR85U672H7+VPRqOWySqtpQHKDdac1kpKy8/oVniIXkWTu/NXXWa4+sXEEy1AXhXJAj59R1T1fHzdvPepTomd5+jgKNAbArAnLy5s05day4IFSsP13j8XKn6xZuzVF//TfwAqHsEmJcuW/ZZGPpbAz1hyQ/hyDsgOgca3N7eo1Xqe8/PUycErDq68gKBHwpMRNpzV0rUD1+ap7aLV3ZPr7XhhqHZuLjX6fPsvSbHNQej5U9fn6Ve/mC6unitSEtmfhOFIM7CILVKuOmBExXq+y/OU4eF0zOAB1Ml4m3Ln/2rf3Uk2Igir7Ym3grbvFsshjckDjBXuD6Fwwog9ZGA1cmLpepRicHdsLJRzZzSpZnBeAYOJs7nqihFEY9f3z5VZ1hJZ+hZGAJm6r1uo2bqm8n+cfUP5KofvTxHZ0oh08pdS5u0bp/QskT7Hu7uwtVi9f6+WvWuZFhpjNLfw++JXn7XWdG7h2nWQO93vva1q7/79a//8NjRo9+sFkVsrxgQaOTEIm7ux6/MUf/w6hxVIM6LeG7H8+MbEJN3m6SXQZ4H/Gw29AHEJ8YrtBI2mgErX6JCJ/zuwMjmG82+vjC8obuLxanzfdhEB/Qfb43a6N/7RhB1+QB0ZFspluxJRFbFar39kk5OjBbxpDn27gVJ/rHlkUe+/70f/CDUi09d2RbjsX/7N3+z9Kc/+cmnAzduFBSmscpYqjNmISWqLAVhw7gmpLt/v/MmkSmW6nT5A/odR7ZcR/r/V155Rac6T3djfSZSTYRdo+nuPx30gR6TxB1s3549B643Na0K+wyrSrI//bM/OyI5u/7iupi7CzKwPoTxczL+ctF/wwDeTa72ph9VuvoP+7Ld/ZlPATi5dK6hdPdvm8LmADj82Wd9v/07v/P/sNG/VdBjQP/jf/7Pv5WcdP/5tITtFInDpWuOAo4CjgKpUMAA3mXxTVyydOn/8Tf/7b+9nUo/0fdYBz0e8MJLL/0bcdL9juj3NFvqLIk2XpXrw1Fg4lAA1UyOSE5nTp4kEer/+c7Wrf8fW7NPC+gxuLfffffPpeLSV4Ut/bBBxF2cd9NVqd0WMVw/jgKOAmNLATAC1VijVH8Tpmn3/Q888PS727b9v22Oypr1Ntagfv7ss7/46+9855fP/epXf7bvk08eEbvN6il1dTO0vk9QvFyygbhmnwKLJdQI6/lo1hC2P4vM6ZEknYWEifmOps+csWf6SG6IDpNM1D1ime6XNdvc1HQlLz9/7x2rV/+z2Ah+/K0//MNQIWex5m/VepuMwP/2L/5i2oWLF+++cP78Gonvmy2xqnCapETlQyYBQJjv+JB7xnzMOLF3G5s335mPebT3/821Xhu5+Z3+vdd6+4plU/c+k2dFPzf6Oy9dvWPm3+Sh4EMuLfNv8715jvcv/45+T9yHFzh98DvK04ohGhb8+b/5N3VC38nU9TDNBLGHNdYke8fj/XccYKNdl5YsWaJeeP75jn1791KouX2I7ob23ilHv7dY6zXWWo1+v/H2ZfSaTbRWY43LrFPv31ivLHr9ck30s7xzi/Ws6D1lrjdrH/qJB01fjzgcd4okeF5CRD+YNXv2J//XX/3V5XSuo1EFvXROxPUtKoW33y7MzcmZIu5CG8+cOfNzTlAa+hESIVBHgaLRrsWnAAH5BNsT2G4OCOH0zsjnK7JZPhN3rC6pG+s3gZIjdQZSIK3ibQbON6uHJJuRJGUXXnrppQsi2l6Uf89kwlTOmjt3riKbh2uJKUAoJVlOSA5BsgppXXJYfCjV7o7ec8899oq+uBcxZhRwoDdmpE/fg6Uc4Arxx0KE75SKbccE9N6SLDgFYkX/qnxXl74nj/+ehUZ7Jd3+TjkkciXrzn2SeWSq0HKGpHRaJLP7ZPzP0M3AgV6WrYHnnntuqejzvijTkjKnZZ/K5v22lKs8LJsZhTBBi/+bfMamInnm07pJhvjvhVbvib65X0Tc35FY8r8UvdNdwu39jgO9zH+BfkaYNpcVPw9319ingGzOZ0QXtVySUp6VvGn/ftWqVbvFz6ldOL4e2cyvyBM/lo/lqGb78xijHj8QGr0tnHGbHBZdEs73PRF3XxSdqLiMDT7x7LPP3jdG43KPtUgBx+lZJOZYd/XP//zPM0W0rZZNekA27X+99957oz3YT8sYvy+fPfKhWGqpfPAbIlGhsaAb67nX+hbLep7MKu61kEdb2v1aKyGp9znR1m3Tj/dvtAXf9GEs5NpqKB9SjpMiGz0oFp96+by0evXqiLTZAoD/XgL0a0W/N1sqzi2Raz4Y6/fsnh+OAs56G45+GXf31q1bJ0u9hUFRujdk3OA8A5Jxxlp7QddjItCL9Vs0AGr3ic2bNyflfN97771K4aA75NpQlbgy+Z24sTkKOAo4CjgKOAo4CjgKOAo4CjgKOAo4CjgKOAo4CjgKOAo4CjgKOAo4CjgKOAo4CowxBf7/J0bwy72gJAkAAAAASUVORK5CYII=;rotation=90;" parent="hVDaip0IasZPoEA9I7b5-1" vertex="1">
          <mxGeometry x="159" y="439.65000000000003" width="212.88" height="368" as="geometry" />
        </mxCell>
        <mxCell id="hVDaip0IasZPoEA9I7b5-3" value="" style="endArrow=none;html=1;rounded=0;strokeWidth=2;fillColor=#a0522d;strokeColor=#6D1F00;" parent="hVDaip0IasZPoEA9I7b5-1" edge="1">
          <mxGeometry width="50" height="50" relative="1" as="geometry">
            <mxPoint x="40" y="220" as="sourcePoint" />
            <mxPoint x="800" y="220" as="targetPoint" />
          </mxGeometry>
        </mxCell>
        <mxCell id="hVDaip0IasZPoEA9I7b5-4" value="" style="endArrow=none;html=1;rounded=0;strokeWidth=2;fillColor=#dae8fc;strokeColor=#6c8ebf;" parent="hVDaip0IasZPoEA9I7b5-1" edge="1">
          <mxGeometry width="50" height="50" relative="1" as="geometry">
            <mxPoint x="40" y="260" as="sourcePoint" />
            <mxPoint x="800" y="260" as="targetPoint" />
          </mxGeometry>
        </mxCell>
        <mxCell id="hVDaip0IasZPoEA9I7b5-5" value="L1 (230V)" style="text;html=1;strokeColor=none;fillColor=none;align=center;verticalAlign=middle;whiteSpace=wrap;rounded=0;" parent="hVDaip0IasZPoEA9I7b5-1" vertex="1">
          <mxGeometry x="40" y="220" width="80" height="20" as="geometry" />
        </mxCell>
        <mxCell id="hVDaip0IasZPoEA9I7b5-6" value="N (0V)" style="text;html=1;strokeColor=none;fillColor=none;align=center;verticalAlign=middle;whiteSpace=wrap;rounded=0;" parent="hVDaip0IasZPoEA9I7b5-1" vertex="1">
          <mxGeometry x="40" y="260" width="60" height="20" as="geometry" />
        </mxCell>
        <mxCell id="hVDaip0IasZPoEA9I7b5-7" value="Power Supply&lt;br&gt;5V 24W" style="rounded=0;whiteSpace=wrap;html=1;" parent="hVDaip0IasZPoEA9I7b5-1" vertex="1">
          <mxGeometry x="95" y="300" width="100" height="40" as="geometry" />
        </mxCell>
        <mxCell id="hVDaip0IasZPoEA9I7b5-8" value="" style="endArrow=none;html=1;rounded=0;exitX=0.25;exitY=0;exitDx=0;exitDy=0;strokeWidth=2;fillColor=#dae8fc;strokeColor=#6c8ebf;" parent="hVDaip0IasZPoEA9I7b5-1" source="hVDaip0IasZPoEA9I7b5-7" edge="1">
          <mxGeometry width="50" height="50" relative="1" as="geometry">
            <mxPoint x="50" y="490" as="sourcePoint" />
            <mxPoint x="120" y="260" as="targetPoint" />
          </mxGeometry>
        </mxCell>
        <mxCell id="hVDaip0IasZPoEA9I7b5-9" value="" style="endArrow=none;html=1;rounded=0;exitX=0.75;exitY=0;exitDx=0;exitDy=0;strokeWidth=2;fillColor=#a0522d;strokeColor=#6D1F00;" parent="hVDaip0IasZPoEA9I7b5-1" source="hVDaip0IasZPoEA9I7b5-7" edge="1">
          <mxGeometry width="50" height="50" relative="1" as="geometry">
            <mxPoint x="175" y="270" as="sourcePoint" />
            <mxPoint x="170" y="220" as="targetPoint" />
          </mxGeometry>
        </mxCell>
        <mxCell id="hVDaip0IasZPoEA9I7b5-10" value="" style="endArrow=none;html=1;rounded=0;entryX=0.25;entryY=1;entryDx=0;entryDy=0;strokeWidth=2;" parent="hVDaip0IasZPoEA9I7b5-1" target="hVDaip0IasZPoEA9I7b5-7" edge="1">
          <mxGeometry width="50" height="50" relative="1" as="geometry">
            <mxPoint x="800" y="420" as="sourcePoint" />
            <mxPoint x="150" y="400" as="targetPoint" />
            <Array as="points">
              <mxPoint x="120" y="420" />
            </Array>
          </mxGeometry>
        </mxCell>
        <mxCell id="hVDaip0IasZPoEA9I7b5-11" value="" style="endArrow=none;html=1;rounded=0;entryX=0.75;entryY=1;entryDx=0;entryDy=0;strokeWidth=2;fillColor=#f8cecc;strokeColor=#b85450;" parent="hVDaip0IasZPoEA9I7b5-1" target="hVDaip0IasZPoEA9I7b5-7" edge="1">
          <mxGeometry width="50" height="50" relative="1" as="geometry">
            <mxPoint x="800" y="380" as="sourcePoint" />
            <mxPoint x="180" y="400" as="targetPoint" />
            <Array as="points">
              <mxPoint x="170" y="380" />
            </Array>
          </mxGeometry>
        </mxCell>
        <mxCell id="hVDaip0IasZPoEA9I7b5-12" value="5V" style="text;html=1;strokeColor=none;fillColor=none;align=center;verticalAlign=middle;whiteSpace=wrap;rounded=0;" parent="hVDaip0IasZPoEA9I7b5-1" vertex="1">
          <mxGeometry x="170" y="360" width="40" height="20" as="geometry" />
        </mxCell>
        <mxCell id="hVDaip0IasZPoEA9I7b5-13" value="0V" style="text;html=1;strokeColor=none;fillColor=none;align=center;verticalAlign=middle;whiteSpace=wrap;rounded=0;" parent="hVDaip0IasZPoEA9I7b5-1" vertex="1">
          <mxGeometry x="120" y="400" width="40" height="20" as="geometry" />
        </mxCell>
        <mxCell id="hVDaip0IasZPoEA9I7b5-18" value="" style="endArrow=none;html=1;rounded=0;strokeWidth=2;" parent="hVDaip0IasZPoEA9I7b5-1" edge="1">
          <mxGeometry width="50" height="50" relative="1" as="geometry">
            <mxPoint x="40" y="420" as="sourcePoint" />
            <mxPoint x="120" y="420" as="targetPoint" />
          </mxGeometry>
        </mxCell>
        <mxCell id="hVDaip0IasZPoEA9I7b5-19" value="" style="endArrow=none;html=1;rounded=0;fillColor=#f8cecc;strokeColor=#b85450;strokeWidth=2;" parent="hVDaip0IasZPoEA9I7b5-1" edge="1">
          <mxGeometry width="50" height="50" relative="1" as="geometry">
            <mxPoint x="40" y="380" as="sourcePoint" />
            <mxPoint x="170" y="380" as="targetPoint" />
          </mxGeometry>
        </mxCell>
        <mxCell id="hVDaip0IasZPoEA9I7b5-23" value="" style="endArrow=none;html=1;rounded=0;strokeWidth=2;fillColor=#f8cecc;strokeColor=#b85450;entryX=0.5;entryY=1;entryDx=0;entryDy=0;" parent="hVDaip0IasZPoEA9I7b5-1" edge="1" target="hVDaip0IasZPoEA9I7b5-12">
          <mxGeometry width="50" height="50" relative="1" as="geometry">
            <mxPoint x="120" y="540" as="sourcePoint" />
            <mxPoint x="190" y="440" as="targetPoint" />
            <Array as="points">
              <mxPoint x="120" y="500" />
              <mxPoint x="190" y="500" />
            </Array>
          </mxGeometry>
        </mxCell>
        <mxCell id="hVDaip0IasZPoEA9I7b5-24" value="" style="endArrow=none;html=1;rounded=0;strokeWidth=2;entryX=0;entryY=1;entryDx=0;entryDy=0;" parent="hVDaip0IasZPoEA9I7b5-1" edge="1" target="hVDaip0IasZPoEA9I7b5-13">
          <mxGeometry width="50" height="50" relative="1" as="geometry">
            <mxPoint x="101" y="540" as="sourcePoint" />
            <mxPoint x="121" y="440" as="targetPoint" />
            <Array as="points">
              <mxPoint x="101" y="480" />
              <mxPoint x="121" y="480" />
            </Array>
          </mxGeometry>
        </mxCell>
        <mxCell id="hVDaip0IasZPoEA9I7b5-25" value="" style="shape=image;verticalLabelPosition=bottom;labelBackgroundColor=default;verticalAlign=top;aspect=fixed;imageAspect=0;image=data:image/png,iVBORw0KGgoAAAANSUhEUgAAAS8AAAErCAYAAACPTwXOAAAAAXNSR0IArs4c6QAAAARnQU1BAACxjwv8YQUAAAAJcEhZcwAADsQAAA7EAZUrDhsAAEMASURBVHhe7b0JmBxHef9f0q72vrTSaler+76sy5Yt29jCmGAbTMAQHuwAIQYCJr+Qf2wgkISEhCshccgDgXAlgANJOJwEG9vIGMc2h2186r7ve1fS6thTe+o/n1KX3OrpnumZ7p7pmX0/fsqa7p3p6a7p+vZbb71V75jzCZQgCEKBMdb6VxAEoaC4xPLq7+9XP/zhD9XevXutPUIxM27cOPWJT3zC2io8duzYob7//e9bW0IxU1JSol73utepq6++2tqTAPGC/fv3n29qakLIpIySMmPGDOvXL0weffRR1+uSUrzlrrvusn798+cvdhu//e1vqxMnTlhbwmhgZGTEelWYyP06+vjOd76j2tra9OuL4rVhwwbrlTBaOHz4sOrp6bG2Co/jx49br4TRwsDAgFq/fr1+LQ77UUzC8labN2+2tgoPxFcYvYh4jXI2btxovSo8fvazn1mvhNGIiNco56GHHrJeFRbr1q1TW7dutbaE0YiI1yjn4YcfLkgR+N73vme9EkYrIl6jHPxef//3f29tFQZnzpxR3/3ud60tYbRyMUj1tttuUw8++KDe6UV1dbWaPHmytRUchuoPHDighoeHrT3ZQQBbc3OztXUpjE6cPHnS2kpNY2OjqqiosLYuhWNwrGKktLRUjzYvXrzY2hNv7rzzTvXv//7v1la4LFq0SK1du9baeoVz586phQsXWlv++au/+iv1vve9z9p6hW9961vqM5/5jLVVuEycOFE1NDRYW8EhUP7QoUPWljv8Prfccot/8aqpqVHLly/XUdlh0tnZqZ3GQ0ND1p7MaW1tVT/5yU+srUthNI2b3Q9f/vKX1TXXXGNtXcp73vMetWnTJmvLG77L6/uIT7njjjusrXiBcD3//PP6ARVn6Ob+9m//trUVPkuWLFE///nPra1X4ME1c+ZMa8s/n/70p9Uf/MEfWFuv8G//9m/qk5/8pLXljw984APqHe94h7V1Kbt373b9nihpaWlRCxYsUGPGjLH2hMOxY8f07AkvjHj56jbW1tZGIlxQV1enli1bpp/+xUBZWZkWercSZ2HA7+VmIcSJo0eP6gYcJRMmTNAPVGfB8soGLBO345WXl1vv8A+fcbuvKFVVVda7ckNUwgX07rBy0x07reVlhCtqcenq6tJdl2wssMrKSvWO1yxLXKy+lEs42T2sHvjFS9ZWal7/qpVqSoO7QP/4mZ2q4/QZa8ubN9y4Ur3xVU3W1qW0nx2rPvXPj1pb8eTzn/+8+vjHP25txYcjR46oG2+8Ue3cudPaEw2vfe1r9fxeNxCiTGFg4fWvf7219Qo/+MEP1Ic+9CFryx9vueUK9borJ1hbl3Lg+Hn1999IthijAHFBuKKmvb1dbd++Xftl7fjqNubaKuru7tYCNjg4aO3xzz23LlUlY5OVesuh02rt+tR9aMOaRZPVVXPdhefLj25R/YPpfXNrltWoz39girV1Kb/a2K0+/s0j1lZ8+fCHP6zuvfdeNXZsPMZzDh48qIVrz5491p7omDRpkrriiiusrUuhO5npw3XVqlWqqSn5nmJ2wEsv+XuoGm69ul594l0t1tal/PS5s+qz37swbSZKcNHMnz/f2ooeNwFL222sr6/PicVlB/M3qu6p4J9/+qd/Um9+85v1wyTfPP300+r666/PiXAB3UOExa1k00U6ffq067HoOhYauRYuYCCOQRS3uncVL0YPsLgYxcs1CNiKFSu070jIHzjGV69erX71q19Ze3ILcy7vvvtutWbNGm15CfllypQpORcuA9YwA0pOAUsSL4Rr6dJEFywPwmXAsY0FJgKWX3DiIx5vf/vb1f79+6290UO3gIfnl770pYJf+aIYmDp1qpo3b561lR/oejMSbBewJPFiFCGfwmVAwMKMHxGy5/7779emOw7ml19+2dobLsT3sNwJD603vOENsiBmjKC7GAcYMLGP0sbDIyvEHnxB//Iv/6Kd2QjMF7/4RR26EAS6ho8++qj6yEc+oqZPn67e+973FvREcSG3iHgJGYPA3HPPPdoPMm3aND1S/dnPflb99Kc/1V1NIqSZwsPMCUaJTp06pYOFH3vsMXXfffepv/zLv1TXXXedGj9+vA4jYIAAJ7YgZEJg8SI6YWzif75KFqM1QrxhTS1CbJgGc+utt2q/BFYUwsRINYXAT/yoN998s56p8LnPfU6PImYTEiPEG1q4a9v3KEEUIbB4rblmhrp+datak6asXjlJNY7Pvy9NyC3icB9dNI6vUqsvd9cAZ1m6oEHV1GQvQYHFa+WyGaqivNLacqevf1AdPMLk6OK/kSuratSY8ibXUl7tHh0txAesxD//8z9PKvjlsrEUb7jhBtfjMYqbKZVVta73FaWiutF6V/559bXz1UCaWN5Tp3tVx9nOpOj5TEiKsGdOESOOfrnng2tUeXmpWrfxoOro6LL2vsLwyLA6fvK0YgCzt++8OnnKv4DhP/HjC0k1MXv7tq3qXb/3bmsrNV/76r+oK69abW1dil9n8v/7w7vUe9/3fmvrUtrb2xJdqzdaW0IcifPE7Hvu/v/UO9/lfi/v2bNL3X7771pb4XLVVVf5njs5IWF5vf/dF9KT/fKZHWqgP1nF+s71q87uLoUX6dSZEdXd41/AfvOb36gf//jH/idm+2Hu7EkJ0atJKghbPiMvhob9i2Wq9/p9QgwNe79vZCT7p4yQG5jLy+ohzpJqlYNUEHbkdrxslldKdW8Np/hbvpg+tclVE4ZGRrRwBSU0y6ur+5w6cKjd2vsKJzt61NG2CymqorK8uOF+93fdnzp8/oEHHrC2UkN8EQF5bnAMP+fC6BvFDcINooqTyjU44om4Lg8QSDw0PKyXP+no6AjUfQiTOE/MZiDE6/5kKldUYSbZWl77D55KWFXJvbFde0+ovr4LWauCWF5FIV5C7mCyNjfOda961SUBgzBzZq+qq3efvN411J8wX8eofVuT/X7HT5zQma/jMA2IqSivSlybGzSaTCHDs9sCnlxrphOz84WIVwIRr8LnHQkL12vVhXe+65xqbnaPxv7uhoTwjRlSx3/uPiGZmLB//ud/VoePxH/VjdFGXMUrNJ+XUPzMmTPHU7iCgm8orqvMCvEkNPHq7DynuruGksrYsaVJs8GFwmTxokXWq2ige4X/UigOenrcNaGmMnVolV9CEa+2450JM7BPtbbUJpWZUxvUgjnTta9EKGxIUJKKzs5+1d5OSIhSRw4qtXPdhdcUnBN+OgfEWQmFz649x1VNVYmrJiyY26SmtEyy3pk9gRWlPSFc3Z09qmycdzzExMaqhIBNU2NEwAqadP7HurpyRRInypTpSs1feeE1BePbj/3NyplCYbMzIVxlpfzm3r/4rOkTEgLWHChkIrDDvrW5Vs9R8kNXd78629VvbaVHHPbxgm7dh++5x9OKDuKwh127dqmvf+Mb1pYQFzJx2I8bN1Y1T6yxttJz4lSP6u/3n/owVIf90fYudfhYp6+SiXAJ8YOYrP/7v/+ztsKlt7dX/fBHP7K2hEJlcHDEte17lUyEy4n044SMePRnP1Pf/8EPXLt3zzwzqJ56cq9raTqxQ41vT15gkIQWW7ZsUf/4hS/o9d4FwS+Bu41RIt3GeMPSvGUBkqUQYU8m8qAZ04VoyaTbGDUpu41xyWrCDc1Km0J8OXHihDpy9GjWBetNhCv+xEUTiGiwr+yRJF4s7ZurNFNe0JUgf6OIlyDkHyal57sHhE90/fr1lzzsXH1eLOO7e/duayu3IFxMMC3EvHaCUIzgWdq2bVvewliMcJGkxY6nw57lfRm6ziXG4hLhEoR4gYCRuTrXAkbvC+FyW0Io5WjjkSNH1M6dO62taKEvy0l2dSVP5BQEIf8YAWtra7P2RAvL/HgJF6QUL8AHlu1CbH5BuLC44pBeXhAEbxAw9ICYvyhBC9CEVEtvpxUv4ERRXCuqIlRQVdRVhEsQCoOoBYzeF5qQLmdAUpxXKoj/YjXHsCCzDLFcOOQEQSg85s2bp9PchQVOeYKW8X97sXbt2symBzHJklUFCFYLq9TU1Kj6+nrrGwRBKCTKyspUQ0ODa9vOtrAkEv/6wZflhXAtXrxYR1RHAaOaDA7ElY997GM6Q7Sb4xDTlqcFha7vt7/9bfUf//Efnk8O1mvPpIvMJGizJj7HffWrX+2aC5GfkXPge7Fk/+u//kt961vfShq5ZbSItfQ5xqxZs6y9xc9///d/60hx63bXXR6WaE4HdU6aMj5XUVGhPvGJT+jMP0B7WbFihaqsrFRvfvOb1bPPPqv3ZwuuGY7FQz3uSwMhXFy7X6HJBGK5CJc6e/astedSfFteNB7SQUUlXIDp6ZVYIA7wQ5kus7OwuijCvnLlSnX99derr3/96zrJxiKPhfvoz7sdx6vYu9Tc2NST2/tmzJihE2JwLqtWrVL/8A//oLvky5cvtz59AYST9xOtPJqgkfEQMPVFPbJefSq49xE88znez4qvhurqar0fUQsDHo4cL+7+X3IXRCVcQB0vW7ZMW3WpSCleRriyyZqSKXPnzvXMuhMnsFwQJ1N4QjAjAcsRQeCHJbX9Qw89lPJ6zpw5o52S9mO5Fa/I5v379ye9d/PmzTq4mGOT3WfKlCl6Hli6Rjoa4WH07nenzudJwthUdYeFgGUb1hQn7h2Ox0MqrkQtXAYjYKn8aZ7ihXBddtllOTVfsWJ48sQZBId13E3BskF4Efm//uu/vtj95VoQDi8QOtJs2Y/lVrDm3Lj//vuT3otoYsWSkdmcB13Dj370o/q1cAG67jQOr3R5hj/5kz/RPlmvAaU//MM/VDfffLNObUYuxqC8/e1v18d705veZO2JF1iYppucC9Ag7mmvFXxdxYsfNtWHomT27NlZZSbON/TP7733Xp0d2VhLCNitt96qX+cSuq6//OUvrS2lrrnmGuuVP/BxYjXiX2OVEbrNUcF3IbikG6urq7P2+iPbXgGNApqbmz0tKyxXjg/OFG+GvXv36lUOKOm6enSBeBC5pUEzENdkjhc3ci1chlRGVJJ4GeEKc/gzUxCvQnUmP/roo7oLB9ywPL3zAXkQccyD399ywYIF2unMAAoN6JFHHlG/+MUv9CwLusfXXXed9c4LVgIivW/fPvXUU09Ze5P5yU9+ot/DChTXXnuttffCevg//elPdZf717/+tX7NEDlz6NyyCL3tbW/TTnYKDwjex7nR4NetW6etWL+YhwtC4tV1xJqia4mFzLm78T//8z/62jin1atXW3svuBbY//DDD+tr4bqwzKjPF198UXft3/Oe91jvfgW6/XwuVxHsfkGwEK6wfHuZYgTM+aBKEi8sn3SOslyAA7pQkzF84QtfuPgkzlc3GKvCWAx+4ujuvvtu9cQTT+gROCxGGjYjkgzU8FvwQDPrKAGixLwzHjTm/U7ocmG98B66as8884zej0X3wgsvaIHgIcVNiaWDEx1L7ytf+Yr6z//8T/1eA39HTDifz372s/p93B+tra26jr0Exg2EHYGgUXilW/ujP/oj7ZDnfZyrG1wf18b7jDUHPDTYj6B98Ytf1IMoXBthAJwv9cU98rnPfc76xAWobz7nnICcbzj/fAmXAQude8neC3C1vOJCnM4lE7C8TIgCXSEvEWZUELHwKtlanwy1f/jDH9Y/ODDFKxU4X//4j/9YNyyc/Vg0hIa84Q1v0I2YIXxAZD71qU/p1zRQrB7gc3fddZd+bef3f//3Lw5aPPbYY/pfbr5//dd/1Q9JrBqyRr/rXe/S3et//Md/1L466uuNb3yjeuc736k/YweRwJLEujEDFFxfJqnuWTXFRIcbQbSD6DNyC1h46SK9veA8uV4syw9+8IM65AYrDJHibwjnuACLOeaKuLRD7mf7QyJJvITgnDp16mJMGD+8m++QBoPT/Wc/+5lrobF/6Utfst6dDE+h3/u937uk/MVf/IWO70JU8CMBYvDxj39cv/YCgTIWItM+GGXju2l0X/va19R73/tefU1gN90///nPa7HjhnrrW99q7X0FRInGidAgTPDpT3/6oihj0Vx55ZXaEqLr+ad/+qdaxFjRBNH/m7/5myR/EzcwVi1iizWIyLzmNa+x/uqfBx54QMduYTEisnaI2WI/30MW72yhXrgufF3f+MY3tE8UawxfGXAPcP1Cdoh4RYQJUqW74zaszH4aqFehi2F/yjjBKvrud797SaEbwggaVg3HZ4llhCHdxHp8WnTT8HN94AMfsPa+ApakES8sCXNevN9YMHRT6coZ6P5gkQFidPDgQf2a8+bcEDT8PiZo1IDwYu0AVhFxVk4QZIQf+DzXmSlYf5w713L77bdbey+AlUQ3iXN8/PHHrb2ZQ5cTkbVDV9vUGfdFHFw0hUpg8Vowp1EtnDveV2moj7+JHAYIj/ERYIG5rQiLD4hYMJy+qUqmEARLN4oAVZzqWDPpIFL8zjvv1KOSdKnwSWHFMfhAdwzxM6NyWD52vwO+LwSEv9PVNDBQQZwZIk6kP/BZurSARfqd73xHd1GdxYgg78W6cuIVeZ0JCIgREaws03XEf4X4AwMBQWK46FqbkBU7Zh91UGziVV01zrcmzJ/doCorspegwOJ145qFqqGuXLU0VaUs+DdKS0bHeuV0i2gEgL+EJ7gTRA3BYBTNq9C4vWBU8DOf+czFQncMSwaHOl0RRmeefPJJ693pIVYNKwPLh1EyrDhijhAPHPbmepzgkDY+NUTP8LrXvU7/S0PFKgTEzIg63U+m3bgVe3Av8WtODhw4YL0KBtYbwouFyG8BCL7x/XFtQTCjvU7sPrRU1nUhUlE+Tl13zRzV2FDhqgOmNDVWqJ7e7oSAZ79STeCaqygvVdeuXqD6+pPn2xn2HjypzqvsnJ6FCMPK5omKlRDFAov4oz75yU9eLATI3nfffXpEDzFxdsdSgajgZyPcAOFAqAgnoDv5q1/9Sv3t3/6tp2DQNTJ/o5tHvBYWnBl9pAtoLE97Q2V0EKFMVbD63EYReRCGAQ8HxBWLENGC973vfdpPR1fUjI5mSya/QTHRNKFWLVk0LfGAdteE4eERtefgiUDCBaHIfllZiVq5bKY2g52lqxfHtffyFsUG/hwc5DQIiGPAoRMmk9NVorExsvj+979fW2/EfWEJIY78lsB1OUfIvvrVr2org9CBD33oQ7owSIFo46Q20CU11giijsi7FUZhL7/8cj174c/+7M/0+6MAgbZ3HakDM3Dx9NNPj1rxCYMJjTWJh2JTkh5Q2k52J3phwes2NJu1pGSMqkz0d51lXGlhhjtkC1NzjM8EJzWrEMQduoWAFUWIAj4q42AH4pLMoAPi5Yz5oftl/DiID8IDHM/edUUMjBVGqIA96NUOAasEazIqxxScKGF0Fr8W4sVruoz4I1ON9Ar+KCkZ66oJY8deeLAHpbg63HmAJwkBiHSVcMBjddC4cVTT5TLR3HEFMcJaBCKpnbFlWFM/+tGPLjq03cQL/52ZVYAvy8S14UNzWi8EuvJ+3kP4gDMGjrAFrD4sIM6HQYMo+d73vqe72XRpsfT4PREvnPVCvBHxyhAcyPh4TME6IF4JnxFWC6NuRriIj4o7iIsZUMBP981vflN3I4kbwxJ57rnn9Ox+s4YYjdwt9IOYLxo94oXQ2WO77DCwYHxkRG5zfCw9fHYMQvzd3/2dPg/qkL9hgUUJ52ysRiPKP//5z/W/QrwR8coQGidWgb3gqCY8ggZOwzTTaEygatxhriCxWIDlxaglzn9ixggC5ZqIhAd8WW6TzbG8jP8IeG2CMe0gSsRV4Vtj1I0uKSJPQCqzCui+4ZBHuJzxV1HBaKgZAcRS/vKXv6xfC/EmNPGid3B+5HxySfxX6PBkZlqH24gY3QssBvw0WBVYZoxceQkX04b43OnTp3VDzgQzQZpzsfukMgFHOd+PxWFgRJAwB/xTTJRGeBAzJhOzkih+LLrDxI5RvKLCERzgulKFeVBnHJNuI+fC2mR8JyLJd37kIx/R52Of40eQLILH391EMR18lu/iWp1BrQTymr9zfGdQr6l3Pmt3A7DNZ6greywfAxXs9wqeZUoT38Pn7b8Dx+ZzUYxO5wPd+l00gb+EQdIy0AQIYkn45Z4PrlHjxpWoTVsOq/H1yUuHcPTNO46qs51nVW/feXXylHdIhRMaStx9RsUI1iUim6nlSAMnLgwxIs7MLTjXDbqidDUJizDdUyE+MMvBzVXgxoTxVer9775a9fQOqP0Hjqva6uTllAYGh9WGLQdV/8A5derMiOru8S9mjN6bnk1gy2s4oaSbt7oLFxAxsHRha+LvMg2iUMBiyFS4WECPeDHAAvMrXIBg4SMT4SoOurv7E1a0u3BBWcLYWbFkuqoov3TgJ1MCi9fzL+5TfX2D6lh7d8rS2FCrxpUGO1khXjD1iJVl6TazACL+MCxlnO/C6GRgcEit23hQdXUPuOqAKSdP9anmiY0J4yb7UKrA3cYokW5jvGECM6tOGPDVsBYX8yKF4iGTbmPUhNptFEYvOJeJkaLg8CZmSoRLyBUiXkLW0F0kVIQQB1K9sS6YIOSKJPGKk9NUHLjxh6k1zFkUipe4tEM8XPZzSRIvYmjiEGdCbFU2i8wJghAuxKPlO+Aa4SL+zn4eSeJFgCG+DLMGez4g6I8MNoIg5B/CXtCEfAkYwoVPlYn+dlx9XggYAYdhrFiZKXRBiEAWBCE+IGCExeRawBAuLD+3BT09Hfb5EDCmvDA9RRCE+EEKPQQsV6nZEK5U4VKe4gU4YxEwlsSNGrNCgyAI8SVXAoZwMYc3VT7OlOIFCBiTSJlIHBXMhYt66RNBEMKBVT+iFDBGFMnJmW7ALq14gREwk/4qTBAtxEsQhMIBAWN1EK8kI9mCcGFx2Vfb8CJpelAqWPXSntklKJwoowj5HoYVBCE7WEKcJb3DAmuOkIhUsWVr167V04N8ixeTblnmJOxUTVGboIIgRAPC5Vw2PAzo4dFt9BKwjMQLi4v08mELlwEBI44kbBOUZYZZXz4TXnzxxYvdY34YkzbfL1S6yWPIBHeWUM4ERlvNiCurs7I2fiYQC8MgC7A2/Y033qhf+4XBmeeff97aUvrzZo17PzBK/cQTT1hbFyb1ZppYlc9zHKD+Ml0ogGlLJtCa3y/TBsbDVBYESA0Z0SlRgY8dV5WbgPkWLxamQwSiEi4DwsVNE6aAMUn4rW99q7Xlj7vuuuviksckImUF0Uz41Kc+pRNxwE033aRzHmYCa8hTgCWYWUc+Ex577LGLk6MRv0wSzwLiaxKwwlNPPXUxy7Ufuru71Q033GBtKb2cNBZ7JrzmNa+5KD7UH/WYCe94xzv06qdAun2SemTCRz/6UX3dgjs8DEzGqSjhQYqA4XO3Y8QrpSKxumWUFpcdkh+sXLlSZ4wRBCGekNYvF8IFWOyszEtGJzc8VYksOFhcJnlqLigvL9drm8dl7SBBEF6BZCmsIpJLEDBcB26uC1fxam5u1kuc5FK4DCJgghA/5s6dG2qkQSaQO9RNwJLEC4uL1VTzIVyGsrIyLWDShRSE/INwZTrwFTZ1dXU6KbDdhZUkXoRE5FO4DAgYDmdBEPILmhAH0AN0wZA02lgMa9hjPYYROMeyPKmC5YJgT4sfV3iIccNkOmBD0HEmvxu3IIW6tv/rtY/EtLgX7J81pZAhzMW5EAI+prB6IMwTzGaWTFzXsC9K8aKyGWwAuxWZ6c1NFuWgDcLZEM02jc+klxcEYLoN8Y523va2t2UUqmLH2YMiq7nz+H4o2gQcNdXjfJfysuzTHGUDAsHggyl2k9MP48aN058JUhAonpz8+NyE9N1xQIpwCU6cIoXFW11dbW1lBvceAbr2QthT1JSUjHFt+16lNPH+bAksXjdcO1tdflmTWrVsUsoyf3a9qs3uARIaQa0oQYgS50wEHnJx8D9nQkNdpbpyxRRXDXCWqS0ViYd4HsVr3pxm1dQ0XmfO9uJs5zl1/CRL6uRXPES8hDhDUDizEbDKETK6a4XI6lWz1diS1L2co+2dqvdcb+JV9m0ysHiBFrCJ41VXz2BS6TjTp06cOpMwga03C4LgyapVq9Qdd9yhfdAMTBQqV10xS40ZO85VE462d6lz/QhXMEKTlMkt9YlSm1Sqq8pEuARhFNI8qcFVE8aEpAciK4IgFCQiXoIgFCQiXoIgFCQiXoIgFCShidfx412qr284qVSUl6uSEv8rcQqCUBycOdvrqgkTxjNnOXj8WijitffASVUydkQ1T6xJKq3NtWrpwhmqtGSc9W5BEIqdzVuPqMb6MldNmDl1vJo7a0rgANzA4rX/YIcae35YjR3rfSI11WVq6aLperqNIAjFzaYth1VdTeq23tJUq+bOnBpIwAJPzK6tKU+cgLWRhoGBYXWu/0JiBT8EnZjN3Eb76hIksTSJHQShmGFuozNBBvkJMs2JAJlMzGY+Zk1VQrh8akJf36AaHPK/ckuoE7O7uvtVZ5e/kolwCYJQeLBqSmcGmpCJcDmR0UZBEAoSES9BEAqSJPHCLxSH1RfIoN3Z2WltCYKQL1iBNQ6wyiyr9BpcxWvLli15FTASz7KqZNgZtAVByJx9+/apAwcOWFv5gQS0ZILHp2Zw7TYiYIxM2N+YK6LInC0IQjAQsP3791tbucWk/ndmzvb0eXV0dORcwPr6+sTiEoSYgnghYrmEhCFuwgUpHfZ8MFcChnBhceHrEgQhntB9zJWApTOgUooXpFK+sOjt7dUWlwiXIMQfBGzv3r3WVjQgXPjeUxlOacULvPqcYdDT06MtLvsogiAI8ebgwYNqz5491la4+PW5+xIvwNu/fft2Hb4QVkEURbgEoTA5dOiQFjG3tp1taW9v9x3t4Fu8mNs0d+5cnXcwrMK8w9bWVusbBEEoJMj4PnXqVNe2nW0hg1JjY6P1DanxJV4kvlyxYsXFFOthMmvWrKQJpIIgxJuJEyfqJLZMxA4TjsdxOX460n4zwrV8+XI9Sz0qEK/Zs2dbW4IgxBmsoyiEy2AEjO9JRcpvJ/04FleUwmWYPn26mjNnjrUlCEIcmTRpkl5uKupM3hyf7+H7vPAUr9raWi1cuVxAcNq0adqvJghC/GhublaLFi2KXLgMfA/fx/e64SpeOM7oKpaW5n7teRyA8+fPt7YEQYgDLFDKQqW5Ei4D3+e1QGqSeNXX16tly5blRbgMjEAuWLDA2hIEIZ/QHvMhXAYjYM7IhCTxwu+UT+EyTJ48WVuAgiDkl7j0hJznkdJhX2xENToiCELukdYshApTOgYHB/WsCXsxUz0y7XoQac1nSZxiLyYCO19dGSH/JGUPuvzyy2PTXXv55Zf1lIFM8coexCRzv1ORnnvuOd1ImHtpoM992WWXab9gV1dX2rlXBo6zY8cOPR2K10C1Ex7C6Coju9lcZxxpa2u7mPXJvrTRmjVr1Lx58/Tvwdw1v7AMC9NQnPPobrrpJh3gXFlZqaeuCZcSZvagG264wXqVf5566im1du3a4NmDyspK1KrlLeqqFc1py8olE1V9bYn1yXiDKDGrnQZ49OjRi8UIGaJonvx+oLtKoz58+LBujBRm5vMdUFFRof8tBpi8jzXkrB8aE/WQSb0B/le37j7fw7HE8ooXrc116vKlk1w1wFkWzWtItKXsf79A4jU2ceO85vqF+uaqqiz1LCUJzTrecRo7z/pkvPFqgCbmze1vqTCNz9kIi7EBpqq7TOsN+JxbHfE9QvyoqBinVq+ak2jzY1y1wJTBwSHV1d2V+F2tD2ZBIPGCkpKxas2rFqpzA+cTJ4S/49LS2zeoDh45qQWsUEjXALMBC6LEUQnF2ABN3Tm71EHEi2ONBuEvFurrKtXK5bNV37lhV004dbZPnTh1JvGbWh/IksDiBaT6XzCvVY1vrEoqff2DBSVcQGNJJV5+fV12aHxuDbDYSCf8mdadl3ixT8QrvtTVVqiWlkZXTejq7gssXBCKeBUbqawHGlGm1gNgdXmJVzE1QurMS7yyqTsv8SpG4RcyQ8TLhXTWQzbiReMbDeIVdt2lEq9iqjchc0S8XKBhuFkJjJhlK15ulpfdsitm8eK6uX72O63ZdPA5jiXiJTgR8XIhVdcnmwYIbkP+NEDIRgzjirkmO2ZJJbc69YNX3Yl4jW5CE6+BQQI6B5OKc4StEHCzHgDxohFl0wBHk8/Lrd4g27rjc151J8SXwQF3TRhXGs4yW6GIV8epbtXfd05NnlSXVBbPa1FNEyZY7ywMUolXttZDKvGC0SBeQerO+RA031Ms9VZs7Nl3QtXVjHPVhMuXTlPVVdXWO7MnsHid7OhWHR2dqqLceyWKBXMmqUk+1qSOC7kWr2yOF1fSiVc2Xe50wi/EC4SrZAyDLO4PFvYvXzxN1VTVWHuyI5B4DQ6NqGdf2Kd27TulNm0/nrL0959X50cKowvpJl5sG99LWA3QHIfv4fjFANfirJ8wLK9Uwl8sdVcMdJzuVtt2tqstO0+46oAp/H3M2LLEvZL9bxdIvIaHR9SWHYmT3JY4oXQlccKd3YPWJ+ONES97IwzaAPn8aGiA1JmzfozDnusPW7yEeHG2s19tRqDcNMBR0I6BgcwNAUMg8SpWaIDOhhZ0xCxdAywW8aJunPUTZbeR7yqWuhMyQ8TLBbenetAGOFpCJdwsr6BWa7q6E/EanSSJV39/v/Uqv9AIWNQuH6RqgE6LzC983tnQzPcUUwOMQrxS+QuF6ImLJjjPI0m8tm/fnvfF3bgxN23apPr6+qw9uYWnetgNkM9zXV6NsNjFK9t6A+k25pf169dfsrBkPuD7OQ87SeLFTYFwsOpnPsj394NXA4RsGyE+M66NhmjHTSgLGerOCLJBxKuwwYjIp4AZ4XIaM0niBfkSkDgIF6QTL2fj9AN+Gz7n1giLqQF61R3Xna14ic8r/3gJSNSkEk5X8QJuQoSEdd9zATfjxo0bY7EeOQ3C2dCCDvfTgPmcVyMslgboVXfZij4Yy81OtscSsifXApbO4vMUL+AGYdF+s9Z6VJCUYsOGDers2bPWnvzCdTsbh7G8IBvxAq/uD8crZvEy4pNtvfF5fg973YnllR9wmiMovb291p5o4Ph8T6rBgpTiBdw0W7ZsySjjSyYgXFhcccqewzWH3QCBxuclXsVCFHVXyOJF0hUaYa4LbWr37t26tLe3W2cTDlELmB/hgrTiBdw4+/bt0/+GDVl14pb2iwbh1gBpPNk2QBgNlpeXeAWpu1TiFWfIOPXCCy/o7g89C7u4pCu4bMgylennTOFzO3fu1IXzIOVfkHvXCccjA1YUcN1+UhT6Eq+qqiq1fPnypIYXBlOnTlUzZsywtuKBVwOMyvKCYhEv6ser7rJ9+PF56slNvPiuuNYd/ttp06bpB3Sm9011dbVatGiRvvZsoE5M4TwQhCD3rpOJEyeqBQsWWFvhsnDhQtXY2GhteZNWjajEFStWXHRYRwHJQ50JMvOJm3gFdTqDm+VlviuuDTBTohB+Ps9x7WEm5neIe92R4zMbXy7uFD4b5H6LCoRryZIlkRgzwHFJ7jwhzVJaKb89F8JlQLwQsThAg3BrgFRqtg0QvIb8gxwzTtDQnAJvhCtI3fH5VF1uIXc0NTVp4Yr6gcFvzfcglF54ildNTY0WrmzN1myg+zh79mxrK3/Q+NzEix8sSGPxaoAQ9c2QC7gWZx0h2MD+IFYEny/muisEJk2apBYvXpyz+jYChmC64SpetbW12seVS+EyTJ8+Xc2dO9fayg+5Fi+OWQwNkGvh+ux1ZKz2oHWXymoV8Yqe5uZm7YPLdV3zfQimm4AliVc+hcuAE3/evHnWVu6hQTitBCNeQayHYu/6cC1OkTL3kXN/phS78MeZlpYW7UTPVz3zvQgYlp+dJPHC6jGmfj6ZMmWKFtJ84GV5Oa2KTKEBUuwUUwNMJV5B647PO8UryINE8A+jivm+P/l+5+hmknjFqRHl61yc4mWe+s6GmSmp5ujFqd6zJZ3lFZXVWgx1F2fiUr/O80gSLyF5tDHKro8RymJogFyLs46k2yhEhYiXCzQIe0MzTmcaTxDrodhDJYzlZa+jqB32wuglkHiVjStRly9tUauWT0pbViyZqOpqCiN7kLGGDGFZDxyHz9stBdMAi8F6MOLlVncIT5C6E8urMJg8qTbR1ptcNcBZFs6tVxVl2f92gcSL/Gs3rlmgShI3VU3VOM9SVlaiTnScUWPGZn/z5gpjNbg1wDDEi+PbG2ExNUCuxSlSpu4gSN2JeBUGlZVlavWqOWpcaWpN4Lfr7ulJaIL1wSwIJF5QWlqi1rxqoerrH0mc0Pmkcu7coNp/6Hji5ou/cAHiQmOwd33s4mXfnympxKsY4FqcAs81O/dlA91GBMwOdSniFT/GN1Sp5UtnqnP9w5dogSmnz/apE6fOJNpBsHsisHhBSclYNX9uq6pvqEwqvf1DKqFvBUMq68G5P1O8xKtY8BIvrjeI6IOX5SXEk4b6KtXc3OiqCWe7+pRHMu2MCEW8igm3BhiW05njpBKvQrcgvOouaL2BseDs8H0ct9DrTcgOES8Hbg3QWF5BG6ERLTfxKoZG6FV3QesNjNVqr6NCEy+ugdkr1113XdpyxRVX6M9cffXVrn+/6qqrVH19vX7PaEXEy4FpIG4NEII2Qmf3x3Sngh43DnjVHdcb9PqMeNn9Xkb4CwUixFeuXKlnsaQrzDBhQT5WWnH7O9NlELbRjIiXgyitB3CK12ixvIxIZ4sRL2fdFVK9sainXyoqKtT8+fMvEWsnmRyvGAlNvAYHh1RPb3IZE2QsNA9ELV40PjfxgkJphF4gLk6RCqvu3MSL7UISryhgHTwWLYwjQ0PDrppAhEIYhKIsHad6VP+5fjW5qTapLJnfoiaOT7+ka1xwEy/jdHY2zGwoZsvLiImdsBz2XoMdo128Jk+erNfeixv7D3So2qpSV024Yul0VVkR3GoMLF4I18mTZxMn470SxcJ5zWqijzWp44ARL7tQmakpQRsgpBKvQscpXlynud6g12e6T251J8QLhEudH0r8Vu4PFUKrViyZrqqrqq092RFIvIaGRtRvXtyn9h08o7buPJmyjIxwA8c/4IsG4WxsYVkPQCM0DRHsDbDQLQjqx15HiD44HwbZwnFEvOLNqTO9atvONrV9d4erDpiyY09H4v6oUMMj2d/zwcRreERt2nZcrd/S5qO0q86uQeuT8YVG5hSqMH1eqSyvQhcvp+WF6ENYdeecnG0EsRjqrlg4c7ZPbdja7tL+kwvaMTCQ/UMtkHgVI4iJm3jRaMKwHlI1wELHKV7UG3C9YVwfx7HXXTEJv5A5Il4OvMQrLOvBy/KCQm+AXuLFdYUh/M66Iz2YMHpJEi8/mWpzATf74GDuu5l2MQEannQb/cFvZhcpu3hFUXfmu4qh7uJMXDTBeR5J4rV9+/askmSGCTflli1bdJr0XMN32xta2E5nZwPku8x3FnoD5BrsdRe1eEm3MTesX79e9ff3W1v54dy5c2rDhg3W1gWSxAtTfOPGjXkTMBry5s2bVUdHh7UntzjFyzidaTRhNEAatL0BAo0wjGPnm6jrjgcJAmZwWslCNPT29uZVwBAuvt9pzCSJF3BTIGBnzpyx9uQGvnfTpk3q1KlT1p7cQwOkGMK2HmiATivBfF8xW172Os2WQre88m29BAHhQEAQklyS6ntdxQuMkJw+fdraEy25/j4vUjVA+/5s4Xg0ZGcjLJQGmAquK8q6K3Sf186dOy8Kbhh0d3dbr3JDrgUs3fd5ihcYQYnaEuJ78mHpuVFZWXlJQ2u0ZgbQOMKwHswyJqYR0iCZmxZG48431dXVSXUXlnBBQ0PDJeLFbwWFIl40xm3btllbwdm7d6++f3Jp0Xl14cLGT1c1pXgBDRYfVFQCho8NR1y+BwkMLEVCxRlM5m4ENgzxwg9E5l/TCFtbW/UNyPHDfCrnAzIrm6ckgkzmcwhr1Ji6sk9Cth8/jN8mF7z44otq3bp1gQWd9kjb4V7NtQUWtYD59bGlFS8wAha2E90IV2dnp7Un/zDJddmyZbph/NZv/ZaaOHGi3o+4hiUurATAcieUa6+9Vu/jhoj6aRY106ZN09fE9d1yyy1aoGmkYbkCsK4WLVqk17hatWrVxQzKPT09eQmryRbu+ccffzzrEASE65e//KWelN3W1mbtzS0ICwJjf9CHAb8lx/VTN77ECxAwGhgHDatQAXG86WiECJd5socN1gOND+EyXZ9iALFasmSJuuGGG9T48eOtveFCt/vVr361uuyyy7TFWqgcOXJEPfTQQxkLO8L15JNP6h5BV1eXOnbsmPWX3IPxQRt2a9vZFo7n10jwLV485ehS0e0Jq+AjYWXJYmrAguAXxOeRRx5Rhw4dsvakBiv22Wef1cJFI8d/FpY/MVMYNWdJax5Sbm0724KfdOnSpb4eTGnFC1N94cKF2kSNAqyQFStWjPpVIYXRCdbLM88846sHgm+rrq5Ot0mCuPPl50O4cK1wLlHAwAzHTydgKcXLCBeO2CgxAoYlJgijDXydiFE6EKvm5mZ18ODBvA3uGIsrKuEy4B7ge/g+LzzFyzhHqaxcgMkoAiaMVo4ePWq98oYGTWMO20nuF+L2aKO1tbXWnmhBIFMJmKt4IVxkJ2FIP5eYyonjsraCECUmxCQdPOTt4SK5graJkOS6bSKUfK8JeLaTJF5GuJqamqw9uSXX6i4IccCveOEHyrV/2PSK8mVUeAlYkngxqpgv4TKYfjXpnwRhNECYgB8/Fg041+IVB3cOwokm2EkSr7iM+iFgKL4gjBb8WF+IV65Di+KiCc7z8HTYC4KQW/yIFw/0uIhJvhHxEoSY4Ee8cKXQK3FzYI82AokX+demtNSo1uZqX6WqsnCncwhC1PgRL6Zg5cPv5ZfqqjLXtu9WJidKaWn2q4EEEq9xpWPVmmvnqNkz6tX82Q0pS3n5+cT7C2PmvyDkAz/ixXQgLK+4TqlrbqpVSxdPdtUAe5k3q0GVjB1IXIv1wSwI3G2cMW2Cmj5tks7h6MWBw6fV8HA/cRjWHkEQnPhdVSQf4RKZsHLZdFVR6X1+IyPn1e79xxNWZDBjJhSf1/SpjaqpqVH19Q8nlbYT3Wp4pHCXvxWEXOHH8oI4dxsNK5ZOU2NLy101Yf/hUwkBDt4LC81hX11drpomVieVceNC+wpBKGr8ihcjjoWwEkttTYWrJowJSRJEWQQhJvgVL6YHMepoXxJ7NCLiJQgxwa/PC8sL4Rrt6+CJeAlCTPBreTHiWAh+r6gR8RKEmMDcRr/Losd9xDEXhCZeJ090KjWSOJyjTGlpVKWlEg0sCH7wa33FOdYL+vuHVP+5AVdNmDl1kl69JiiJowVnw6ZDqrGhQtXVlieVxoZKtWzRDDWuVCZZC0I6MhlxjKvlda5/UO3afcxTE6a01Kn5s6cFHnAI9GnW/l+34aCqqSpNmLuYvO6FSPxF86Ym/g0QTisIo4BMRhzjaHkNDg2r7TuOqcqK1JrQUFehZk+fosYGiJsYc95KP3LbbbepBx98UF1++eWRr0/tl5dffjmrnI5XXXWVXlCRH9iegou0UaybJAi5YOvWrdqP9dJLL1l70kM6PHJfpoNmS8bsF154wVXwsMquuOIK/ZqwCjJ/8b4f/OAHel8mkMouDrCGP/kq165deyEvqLVfEIQY4NfywmcUd79X1Ih4CUKM8CteMNpHHEW8BCFGZCJeoz3WK0m89u/fn7dklnaOHz+uMwoLQqFy4sQJ65V/MhWvXHQb8a3FAed5JIkXTu1NmzblLakltLe35zWVuSAEpaenR7clv1N+DJm8nwGpXFheJLndvXu3tZUfdu3apQ4fPmxtXcC123j69Om8CVhbW5vavn27CJdQ0NDYGdk+dOiQtccfmVhexHphfeG4jxqEI18CtnPnTnXkyBFr6xU8fV5nzpxRGzduzKmAHTt2LBbCRbeZc8ikhIHbcU3hnFIVfidTCg2367UXt+s1xX7dbMeF6dOn63RdQ0NDGaXw6+/3v/admaCdK78XAoYFlCv47Xfs2OGZTTylw/7s2bNawPgBooYT5ETjADcEQ9GZlDBwO64pnFOqwsiTKYWG2/Xai9v1mmK/brbjAvGFt956q7r99tvVHXfcoV772tdaf0kNAuxXwGjcWF25dNpjAWEJRY0RLgwaL9L+2rkQMBQ9FxUiCPmAJM5XX321uuyyy3x18TINl8h1rJcxNBCYKOC49MBwIaXC16OKKPcNGzZEImD4BPLtDBSKjzh1Iek2knG6tbVVTZ482drrTSZO+3yFS2ARRSFgHI/BOgbt0uHbziZsAeuoo6MjtEIF7Nmzx/oGQQgPuptxBLFJR6ZO+3zFemEZHThwwLVtZ1v27dunw6T84Fu86uvr1YIFC9SECRNCKzyF5s2bZ32DIIRHXMXLD5mIF+ESlHz4+7AkZ86c6dq2sy2zZs1SLS0t1jekxtcVNzQ0qGXLlkXiDGbCKKIoCMIFMhUvhDrXfi/arZ8J5JnCtSxcuNBX9zqteDFqsnTp0kiEy8CJcsKF/LQUhHT49cNlIl60mVxP0J46dWrkPSYMGiy7VKQUr8bGxsiFy4CpKAImFCOIFgNTfkMgMo3Kp33myu81bdo0NXfuXGsrWrDsEEovPMWL/idDu7nsSzc3N+t1uETAhEKH0bL7779f3Xfffeqhhx5Smzdv1vu7u7v1v6nIxPKCXM1xnDFjhpozZ461lRsQSgTTDVdlmjhxolqyZElenIDExOTruwUhLIhdZH4jMDeQuKV169b5GknLJCIf6CFFbXnhmMeZng8QTGYsOElaSRXxiIP1w7Dpli1bsorXkZVUhXyD9URoUab3L1bU7NmzM7KkiCHjXn/yyScvxl0RQmHv3rHNOWWzkiqihdWVbwijIDTDrKQqy0ALQoGDoYGA2buk7HPGlDFb5oc//KG15R9ZBloQhEjA/nD60hAuunr2kouBt1wi4iUIQkEi4iUIQkESSLzKy0vVtaumqDWrW9OWK5Y1qYa64jJbBUG4lGlT6tXqlS2uGuAsi+fVq4qK7AcGA4kXX7vmVQvU0AhrLnmXvnODqu34KXU+8Z8gCMULiaWvXT1PDQyOuGqBKSdP9aiunvQxb6kIpdu45toFamBIqd6+oaRy5uw5dTQhXEXmKxQEwYPy8nHqmtXzE+1/OEkPKMeOd2nhChqNFZrPa/asZjVpUk1SGT4/okrEsyYIo4ryslI1eXKjqyacGxgILFwgsiIIQkEi4iUIQkEi4iUIQkEi4iUIQkESmnj19Q6oru7BpFJeXma9QxCE0cS5c+6aUF2Z2aoZXoQiXoePnFYlY0bUlOa6pDJ/VpOa1upvTWpBEIqDbTuOqQkNFa6asHzxVFVfV2+9M3sCixfCNdDfr0pLvQ81Y+p4NW1KQsCs5ToEQSheEK7qSu/ATsIkli5sVQ0BBSyQeA0MDqunn9+nXtxwTP3mpSMpy7G2XjU8kj7hpiAIhUv7iS61cWt6PaB09Yyo4eE8TQ8aGTmv9h08o/YePO2rdPcMWp8UBKEY6ekd8K0JvG9wMPvkwKH4vARBEHKNiJcgCAVJkniZpAH5ZnBw0HeqKEEQoiMumuA8jyTxImmAnwwnUYJwbdiwQcRLEGLA+vXrfaVsi5Kuri6tCXaSxIv1sLdt26bzzuUDEmTEobIEQbiAMSYQkHxAEh6+f2hoyNpzAVefFwJGnrm2tjZrT24wwhUXM1UQhAvkS8DIeOQmXODpsEfAduzYoY4dO2btiRa6iCTl7O3ttfYIghAnEBCEJJt0hNlw5swZtXHjRjU8PGztuRRP8QIjYEePHrX2RAPJMLG4+vr6rD2CIMQRI2BYRFGCcG3atMlTuCCleBlw4h85csTaChcRLkEoLBAULCIEJgpOnz6d0uIy+BIv2LVrlzp8+LDu3oVVcMrTVUTABEEoHBAWLCOy0Lu17WxLR0eHPi7ZsdPhW7wqKirUhAkTdAr9MIszJbkgCIVBbW2tqq+vd23XQYrfzN6+xAvhWrFihaqsrLT2hAPCtXz5cl0JgiAUDuPHj1dLly71LTR+qamp0VpTVpZ+HcC04oVgrVy5UgtYFBgBq6urs/YIghBnGhsbIxEuQ3V1tdaEdAKWUryqqqq0CmLKRUlpaalatmyZNkEFQYgvuI4uu+wyNXasb49TViBg6bTH8wxyJVwGETBBiBZ6UYhPtkycOFEtWbIkcuEypNMg17Mwquen3xkmmKEIWENDg7VHEIQ40NTUlFPhMqRyWyWdSSYOsygwAoZDUBCE/DNp0iS1ePFiNSaMNNdZ4DVgmCReOOLyHb6AukfpEBQEwR8Ix6JFi/ImXAbOAwG1kyRecREMBCzfFSYIo504tUOnNuW2AysIghASIl6CIBQkgcSrvq5CLZgzXi2cm77Mm1WvKsqlGygIxUxrc61vTZg5tSbRLbU+mAWBxKu6qkytXjVLTRhfoVqaqjzLxMTfe/t6Ap2oIAjxZ0prg5o/t1k1T6x01QJTqqtK1OBwnxobwJ4JLCetLQ1q3pwpnvnXBoZG1L5DJ1RJiWTLFoTRwBKyYTfUqxGPDPmd3f2q/cRpVRJQfUKxhVqa61TTpEY9GuAsbcc7E/+KcAnCaGLRgsmqvKIySQ8ox092htILC60jV1o6VlVWjUsqQcxCQRAKl7Jxpa6aoFQ4xkxo4iUIQniwmigLdb788stZFVYnZgVke2Ghv2JCxEsQYsjevXv10uvkj8imsOoxqx/bS66S6eQKES9BiCFz5sxRU6ZMUa2trXr9rEyn7JFGkOQ59rJnzx7rr8XBmPOkCEpw2223qQcffFBdd911enkaP7S21Kl3375Kv96197hr2rJde9sTFXlhjfqTp0ZUb5///u6vf/1r13xt6bjqqqv0PCiW0rBP8Ga9bX5UP5AQ5MUXX1RTp06VaUpFysKFC/UKJidOnEib7CHf0A7+93//1/f9m4pM2hTL0tCe/HLlymnqtWvm6dcbtxxW588nf9embYfV2DEX6vto27Aa8ln16Mvzzz+v1q5dq2655ZZwxOvM2V7V1nZaVVUmPx36B4bVxq0HEv/2F5R4Pffcc3o2Patr5CpPnZBbWKXg+uuv1/P3Dhw4YO2NJ1hhL730knr22WcjTztmJ1vxOnT4tBpMtHkG8pycOXtObd11UI2MDOdXvN50y2JP4TIgYBsSAna0ra8gxOvQoUPaZ8Bsem6WuD+VheyZNWuW+p3f+R3tD8qlKGTK9OnTdddv8+bNasuWLdbe6MlGvObNnqiGBhPClSKQ62xnQsB2HlSHjg7kR7wax1epRfMmqLLS9CtRDAwOqfWbj6mePv9CkA/xIg0b33vllVfqm2T//v061blQnHCvv+Utb9G/N+KQzf2WCxAv7sXt27frBpwrMhWvmdPGqxlT6hLWbHpXS2f3ObVuc1vCArN2pCFU8YqafIjXCy+8oB2kwHBzV1eXfi0UL7gH7rzzTt2NjGv30YjX7t271TPPPGPtjZ5MxStKnOIlo402GJrGymKtbp7CJMUVih8c9o8//rgWL1mCvHAQ8bIgWy8mORbb1q1bdSpzyygVihx+Z7I0E9yJYzwuPQ87ZJCWXsClJImXnzTbuYAbKpfigSN0xowZOrKZIL8whqSFwgGL+4knntBWGOEx+Qah4p5EVHFlELbDOeb6voyLHoDzXJLECyd1vkfXEC2sn1ydByNNxHXh+9i2bZt0F0cpTJ957LHHtK80391HpvPg48IH197erkWV+5SR8FzCABbnkm8QbdqmnSTxYrh4w4YNeRt1QV0RUH6sXECl8H0k0qRypLs4euF3x9ohnirf3ceZM2eq5uZmnXKMgrOaQlpCzs0U/hY19ETwAeerXdBGGTzr6emx9lwgabTRUFtbq1Nu5/IHNMIVdAJpJqON+DlI98Z7Mc3FryCQmPWmm27SI23MMUzH5MmT9T1Ety7XDZyH/COPPGJtRUtLS4tasGBBTmec4IvGmEK4DZ6hEnYQMHIo5iIVGsLFUw+BCQrdP25Aiv3JdPz4cW0GG7Au6SKSE+7pp5/Wf49TH1/IDzROwmV4CDpzBbpBOyFV38mTJ1VbW5u1Nzw4vpeFxT37la98xdqKHqxBplXlQsAQLiwuXDp2fIkX8ETBAotSwBAMHJM4y8OCRc94UtjTm2PRUSF2sLi4QfElOP8mjF7ocWTi9yLI9cYbb9RxWGHfR3V1dfpedgPL62tf+5ruUeTqwYtxEHUuR4wMLC6ncIHvOC8sE9QvqihznPJhC5eBm8i+TIjbTcU+nl4iXIIdrHLmtHL/+ym/+c1v9JSyXI9U8pDGwMhlGn7aCwNqUXWRES43i8uJryvGUcbBnP6ioEQpXDyFuPn8FPFzCW5wv9OQ/BTu4V/84hdaTEZDoCsWH/7psAUMwUJrqNN0pO022mGFBdJuh4W5OQShGKCrefvtt2s3CwHPYXXjUnUb8RHfd999epQ8HxECuFzCdCkhXul6eb59XoIg+IfwBeZJ0qxwVYRBnMUrH8jcRkGIAAQL/xchOn5GKoXsEfEShBDB4kK8iI7HChOiQ8RLEEKGAS6c92CWVxLCR8RLECKAUIKNGzfq6HtGIIXwEfEShAhgpBHrC4c6AiaEj4w2CkKEkMKMJB9Mfcs2npBZIqy17wZdVFYcHo2jjRfFi3W8H3jgAf1HQRDCgRgoLC/il6ymljHMbWR1XzcQLKa2jSbxevTRR9XNN9/8injde++96mMf+5j+oyAI4YH4MIc2SkaLeBEoj1gzv/KieDG9gcmWLHwmCEJ4MIE56rmH+NiytewKBerw7rvvVl/4whf09kXxAsLyH3744dgn4BQEYXTBiO2tt96qZs+ebe1xiJcgCEKhIKESgiAUIEr9/0bGU7GDdNBHAAAAAElFTkSuQmCC;" parent="hVDaip0IasZPoEA9I7b5-1" vertex="1">
          <mxGeometry x="540.86" y="550" width="162.14" height="160" as="geometry" />
        </mxCell>
        <mxCell id="hVDaip0IasZPoEA9I7b5-26" value="" style="pointerEvents=1;verticalLabelPosition=bottom;shadow=0;dashed=0;align=center;html=1;verticalAlign=top;shape=mxgraph.electrical.electro-mechanical.loudspeaker;fillColor=#f5f5f5;fontColor=#333333;strokeColor=#666666;strokeWidth=2;" parent="hVDaip0IasZPoEA9I7b5-1" vertex="1">
          <mxGeometry x="623" y="710" width="80" height="120" as="geometry" />
        </mxCell>
        <mxCell id="hVDaip0IasZPoEA9I7b5-33" value="" style="endArrow=none;html=1;rounded=0;strokeWidth=2;fillColor=#d5e8d4;strokeColor=#82b366;exitX=1;exitY=0;exitDx=0;exitDy=0;" parent="hVDaip0IasZPoEA9I7b5-1" edge="1" source="_DcCZeVHs-mnkeLGjmZU-2">
          <mxGeometry width="50" height="50" relative="1" as="geometry">
            <mxPoint x="573" y="793" as="sourcePoint" />
            <mxPoint x="360" y="710" as="targetPoint" />
            <Array as="points">
              <mxPoint x="460" y="580" />
              <mxPoint x="460" y="740" />
              <mxPoint x="460" y="793" />
              <mxPoint x="360" y="793" />
            </Array>
          </mxGeometry>
        </mxCell>
        <mxCell id="hVDaip0IasZPoEA9I7b5-34" value="" style="endArrow=none;html=1;rounded=0;strokeWidth=2;fillColor=#fff2cc;strokeColor=#d6b656;exitX=1;exitY=0.5;exitDx=0;exitDy=0;" parent="hVDaip0IasZPoEA9I7b5-1" edge="1" source="_DcCZeVHs-mnkeLGjmZU-2">
          <mxGeometry width="50" height="50" relative="1" as="geometry">
            <mxPoint x="573" y="812" as="sourcePoint" />
            <mxPoint x="340" y="710" as="targetPoint" />
            <Array as="points">
              <mxPoint x="470" y="596" />
              <mxPoint x="470" y="800" />
              <mxPoint x="340" y="800" />
            </Array>
          </mxGeometry>
        </mxCell>
        <mxCell id="hVDaip0IasZPoEA9I7b5-35" value="" style="endArrow=none;html=1;rounded=0;entryX=0;entryY=0.6;entryDx=0;entryDy=0;entryPerimeter=0;strokeWidth=2;fillColor=#f5f5f5;strokeColor=#666666;" parent="hVDaip0IasZPoEA9I7b5-1" edge="1" target="hVDaip0IasZPoEA9I7b5-26">
          <mxGeometry width="50" height="50" relative="1" as="geometry">
            <mxPoint x="553" y="657" as="sourcePoint" />
            <mxPoint x="623" y="822" as="targetPoint" />
            <Array as="points">
              <mxPoint x="493" y="657" />
              <mxPoint x="500" y="780" />
            </Array>
          </mxGeometry>
        </mxCell>
        <mxCell id="hVDaip0IasZPoEA9I7b5-36" value="" style="endArrow=none;html=1;rounded=0;strokeWidth=2;fillColor=#f5f5f5;strokeColor=#666666;entryX=0;entryY=0.4;entryDx=0;entryDy=0;entryPerimeter=0;" parent="hVDaip0IasZPoEA9I7b5-1" target="hVDaip0IasZPoEA9I7b5-26" edge="1">
          <mxGeometry width="50" height="50" relative="1" as="geometry">
            <mxPoint x="553" y="693" as="sourcePoint" />
            <mxPoint x="613" y="798" as="targetPoint" />
            <Array as="points">
              <mxPoint x="523" y="693" />
              <mxPoint x="520" y="760" />
            </Array>
          </mxGeometry>
        </mxCell>
        <mxCell id="hVDaip0IasZPoEA9I7b5-37" value="5V" style="text;html=1;strokeColor=none;fillColor=none;align=center;verticalAlign=middle;whiteSpace=wrap;rounded=0;" parent="hVDaip0IasZPoEA9I7b5-1" vertex="1">
          <mxGeometry x="130" y="495" width="30" height="30" as="geometry" />
        </mxCell>
        <mxCell id="hVDaip0IasZPoEA9I7b5-38" value="0V" style="text;html=1;strokeColor=none;fillColor=none;align=center;verticalAlign=middle;whiteSpace=wrap;rounded=0;" parent="hVDaip0IasZPoEA9I7b5-1" vertex="1">
          <mxGeometry x="70" y="495" width="30" height="30" as="geometry" />
        </mxCell>
        <mxCell id="YzSw_B4QZBqDwRmD1GTX-1" value="Speaker" style="rounded=0;whiteSpace=wrap;html=1;fillColor=none;strokeColor=none;" parent="hVDaip0IasZPoEA9I7b5-1" vertex="1">
          <mxGeometry x="703" y="740" width="60" height="30" as="geometry" />
        </mxCell>
        <mxCell id="_DcCZeVHs-mnkeLGjmZU-0" value="VCC" style="text;html=1;strokeColor=none;fillColor=none;align=center;verticalAlign=middle;whiteSpace=wrap;rounded=0;" parent="hVDaip0IasZPoEA9I7b5-1" vertex="1">
          <mxGeometry x="496" y="543" width="60" height="30" as="geometry" />
        </mxCell>
        <mxCell id="_DcCZeVHs-mnkeLGjmZU-1" value="RX" style="text;html=1;strokeColor=none;fillColor=none;align=center;verticalAlign=middle;whiteSpace=wrap;rounded=0;" parent="hVDaip0IasZPoEA9I7b5-1" vertex="1">
          <mxGeometry x="496.07000000000005" y="561" width="60" height="30" as="geometry" />
        </mxCell>
        <mxCell id="_DcCZeVHs-mnkeLGjmZU-2" value="TX" style="text;html=1;strokeColor=none;fillColor=none;align=center;verticalAlign=middle;whiteSpace=wrap;rounded=0;" parent="hVDaip0IasZPoEA9I7b5-1" vertex="1">
          <mxGeometry x="496" y="581" width="60" height="30" as="geometry" />
        </mxCell>
        <mxCell id="_DcCZeVHs-mnkeLGjmZU-3" value="SPK1" style="text;html=1;strokeColor=none;fillColor=none;align=center;verticalAlign=middle;whiteSpace=wrap;rounded=0;" parent="hVDaip0IasZPoEA9I7b5-1" vertex="1">
          <mxGeometry x="496.07000000000005" y="635" width="60" height="30" as="geometry" />
        </mxCell>
        <mxCell id="_DcCZeVHs-mnkeLGjmZU-4" value="GND" style="text;html=1;strokeColor=none;fillColor=none;align=center;verticalAlign=middle;whiteSpace=wrap;rounded=0;" parent="hVDaip0IasZPoEA9I7b5-1" vertex="1">
          <mxGeometry x="496.07" y="650" width="60" height="30" as="geometry" />
        </mxCell>
        <mxCell id="_DcCZeVHs-mnkeLGjmZU-5" value="SPK2" style="text;html=1;strokeColor=none;fillColor=none;align=center;verticalAlign=middle;whiteSpace=wrap;rounded=0;" parent="hVDaip0IasZPoEA9I7b5-1" vertex="1">
          <mxGeometry x="496.07" y="670" width="60" height="30" as="geometry" />
        </mxCell>
        <mxCell id="adNX3L5HM8rw6OUq3eDg-3" value="" style="endArrow=none;html=1;rounded=0;strokeColor=#FF3399;" edge="1" parent="hVDaip0IasZPoEA9I7b5-1">
          <mxGeometry width="50" height="50" relative="1" as="geometry">
            <mxPoint x="280" y="540" as="sourcePoint" />
            <mxPoint x="280" y="490" as="targetPoint" />
          </mxGeometry>
        </mxCell>
        <mxCell id="adNX3L5HM8rw6OUq3eDg-4" value="" style="endArrow=none;html=1;rounded=0;strokeColor=#FF0080;" edge="1" parent="hVDaip0IasZPoEA9I7b5-1">
          <mxGeometry width="50" height="50" relative="1" as="geometry">
            <mxPoint x="320" y="780" as="sourcePoint" />
            <mxPoint x="320" y="710" as="targetPoint" />
          </mxGeometry>
        </mxCell>
        <mxCell id="adNX3L5HM8rw6OUq3eDg-5" value="Capacitive sensor" style="text;html=1;align=center;verticalAlign=middle;whiteSpace=wrap;rounded=0;" vertex="1" parent="hVDaip0IasZPoEA9I7b5-1">
          <mxGeometry x="250" y="450" width="60" height="30" as="geometry" />
        </mxCell>
        <mxCell id="adNX3L5HM8rw6OUq3eDg-6" value="Capacitive sensor" style="text;html=1;align=center;verticalAlign=middle;whiteSpace=wrap;rounded=0;" vertex="1" parent="hVDaip0IasZPoEA9I7b5-1">
          <mxGeometry x="270" y="783" width="60" height="30" as="geometry" />
        </mxCell>
        <mxCell id="adNX3L5HM8rw6OUq3eDg-8" value="" style="endArrow=none;html=1;rounded=0;" edge="1" parent="hVDaip0IasZPoEA9I7b5-1">
          <mxGeometry width="50" height="50" relative="1" as="geometry">
            <mxPoint x="450" y="770" as="sourcePoint" />
            <mxPoint x="380" y="710" as="targetPoint" />
            <Array as="points">
              <mxPoint x="380" y="770" />
            </Array>
          </mxGeometry>
        </mxCell>
        <mxCell id="adNX3L5HM8rw6OUq3eDg-10" value="" style="endArrow=none;html=1;rounded=0;" edge="1" parent="hVDaip0IasZPoEA9I7b5-1">
          <mxGeometry width="50" height="50" relative="1" as="geometry">
            <mxPoint x="450" y="780" as="sourcePoint" />
            <mxPoint x="551" y="680" as="targetPoint" />
            <Array as="points">
              <mxPoint x="450" y="680" />
            </Array>
          </mxGeometry>
        </mxCell>
        <mxCell id="adNX3L5HM8rw6OUq3eDg-11" value="" style="endArrow=none;html=1;rounded=0;color=red;strokeColor=#FF3333;" edge="1" parent="hVDaip0IasZPoEA9I7b5-1">
          <mxGeometry width="50" height="50" relative="1" as="geometry">
            <mxPoint x="375" y="543" as="sourcePoint" />
            <mxPoint x="500" y="470" as="targetPoint" />
            <Array as="points">
              <mxPoint x="375" y="470" />
            </Array>
          </mxGeometry>
        </mxCell>
        <mxCell id="adNX3L5HM8rw6OUq3eDg-12" value="" style="endArrow=none;html=1;rounded=0;strokeColor=#FF0000;" edge="1" parent="hVDaip0IasZPoEA9I7b5-1">
          <mxGeometry width="50" height="50" relative="1" as="geometry">
            <mxPoint x="500" y="470" as="sourcePoint" />
            <mxPoint x="551" y="561" as="targetPoint" />
            <Array as="points">
              <mxPoint x="500" y="561" />
            </Array>
          </mxGeometry>
        </mxCell>
      </root>
    </mxGraphModel>
  </diagram>
</mxfile>
